<svg width="577" height="448" viewBox="0 0 577 448" fill="none" xmlns="http://www.w3.org/2000/svg">
<path d="M569.21 375.059H11.5859V375.335H569.21V375.059Z" fill="#EBEBEB"/>
<path d="M513.333 392.943H489.156V393.219H513.333V392.943Z" fill="#EBEBEB"/>
<path d="M395.973 387.181H357.938V387.457H395.973V387.181Z" fill="#EBEBEB"/>
<path d="M503.536 382.626H453.879V382.903H503.536V382.626Z" fill="#EBEBEB"/>
<path d="M204.534 388.228H192.117V388.504H204.534V388.228Z" fill="#EBEBEB"/>
<path d="M182.181 388.228H139.367V388.504H182.181V388.228Z" fill="#EBEBEB"/>
<path d="M116.428 383.535H85.5352V383.811H116.428V383.535Z" fill="#EBEBEB"/>
<path d="M252.563 173.29L253.06 158.684L244.058 155.751C243.684 150.803 242.881 145.897 241.658 141.087L249.263 135.486L244.081 121.764L234.653 122.524C232.407 118.09 229.781 113.857 226.806 109.872L231.687 101.741L221.636 91.0559L213.235 95.4609C209.445 92.2362 205.401 89.3208 201.141 86.7429L202.503 77.4153L189.128 71.3081L183 78.4734C178.266 76.9227 173.41 75.7685 168.483 75.023L166.175 65.822L151.484 65.3159L148.576 74.287C143.61 74.7123 138.689 75.5509 133.863 76.7942L128.197 69.2264L114.464 74.356L115.214 83.7526C110.77 86.018 106.524 88.6494 102.52 91.6195L94.4422 86.7544L83.687 96.7261L88.0029 105.168C84.7643 108.928 81.8534 112.957 79.3018 117.21L69.9428 115.818L63.8382 129.148L71.0622 135.267C69.5119 139.983 68.3729 144.824 67.6579 149.736L58.4259 152.036L57.9297 166.643L66.9309 169.576C67.3018 174.524 68.105 179.43 69.3312 184.24L61.7033 189.852L66.9309 203.573L76.3591 202.814C78.6105 207.248 81.2397 211.481 84.2178 215.466L79.3248 223.586L89.3762 234.271L97.8119 229.969C101.588 233.203 105.629 236.116 109.894 238.676L108.475 247.969L121.861 254.018L128.024 246.864C132.761 248.403 137.616 249.557 142.541 250.315L144.849 259.458L159.539 259.953L162.447 250.993C167.409 250.595 172.33 249.795 177.161 248.601L182.781 256.158L196.548 251.039L195.833 241.631C200.269 239.357 204.514 236.73 208.527 233.776L216.605 238.641L227.36 228.669L223.044 220.227C226.283 216.466 229.19 212.433 231.734 208.174L241.093 209.577L247.197 196.236L240.031 190.071C241.574 185.353 242.709 180.513 243.424 175.602L252.563 173.29ZM153.481 220.607C141.98 220.218 130.854 216.438 121.509 209.746C112.164 203.054 105.021 193.75 100.982 183.011C96.9432 172.272 96.1908 160.581 98.8198 149.416C101.449 138.25 107.341 128.113 115.752 120.286C124.162 112.459 134.713 107.294 146.069 105.443C157.426 103.593 169.078 105.141 179.551 109.892C190.024 114.642 198.849 122.382 204.908 132.131C210.968 141.881 213.99 153.203 213.593 164.664C213.063 180.027 206.433 194.551 195.16 205.042C183.887 215.533 168.895 221.131 153.481 220.607Z" fill="#EBEBEB"/>
<path d="M503.364 124.985L507.057 121.534L505.58 118.636C506.701 117.336 507.709 115.944 508.592 114.473L511.823 114.967L513.912 110.367L511.431 108.262C511.958 106.638 512.344 104.972 512.585 103.282L515.77 102.488L515.931 97.4392L512.827 96.4386C512.687 94.733 512.413 93.041 512.008 91.378L514.685 89.4343L512.908 84.7072L509.665 84.9603C508.882 83.4398 507.975 81.9858 506.953 80.6127L508.627 77.8294L505.165 74.126L502.257 75.6097C500.951 74.4974 499.554 73.4971 498.079 72.6193L498.552 69.3989L493.936 67.3057L491.813 69.7785C490.178 69.2586 488.503 68.8739 486.804 68.6284L486.02 65.477L480.954 65.293L479.938 68.3983C478.228 68.5255 476.533 68.8026 474.872 69.2264L472.933 66.6041L468.179 68.3753L468.444 71.6187C466.916 72.3943 465.456 73.2985 464.082 74.3215L461.266 72.6423L457.574 76.0927L459.051 79.0026C457.939 80.3066 456.935 81.6991 456.05 83.166L452.819 82.683L450.73 87.2835L453.212 89.3883C452.684 91.0162 452.298 92.6861 452.058 94.3798L448.873 95.1734L448.711 100.223L451.815 101.212C451.945 102.922 452.22 104.619 452.635 106.284L450.015 108.216L451.792 112.943L455.046 112.69C455.83 114.214 456.737 115.672 457.758 117.049L456.073 119.832L459.535 123.524L462.444 122.041C463.745 123.153 465.139 124.153 466.609 125.031L466.136 128.251L470.752 130.345L472.876 127.872C474.515 128.392 476.193 128.776 477.896 129.022L478.68 132.185L483.746 132.369L484.75 129.252C486.464 129.129 488.163 128.855 489.828 128.435L491.767 131.046L496.521 129.286L496.256 126.032C497.784 125.259 499.243 124.359 500.618 123.34L503.364 124.985ZM477.03 103.73C476.056 102.692 475.412 101.388 475.181 99.9852C474.95 98.582 475.142 97.142 475.732 95.8474C476.322 94.5528 477.284 93.4617 478.497 92.7122C479.709 91.9626 481.117 91.5883 482.543 91.6366C483.969 91.6849 485.349 92.1536 486.507 92.9834C487.666 93.8132 488.552 94.9669 489.052 96.2985C489.553 97.63 489.646 99.0797 489.32 100.464C488.994 101.848 488.263 103.105 487.22 104.075C485.821 105.373 483.963 106.065 482.054 106C480.144 105.936 478.337 105.119 477.03 103.73Z" fill="#EBEBEB"/>
<path d="M368.447 274.951L356.907 267.015C355.785 262.877 354.238 258.864 352.291 255.042L355.246 243.483L338.524 225.633L326.719 227.726C323.022 225.53 319.108 223.719 315.04 222.321L307.874 210.302L283.374 209.474L275.412 220.975C271.267 222.106 267.247 223.647 263.41 225.576L251.87 222.631L233.96 239.308L236.107 251.028C233.894 254.723 232.068 258.635 230.66 262.702L218.612 269.833L217.77 294.25L229.31 302.186C230.419 306.347 231.967 310.379 233.926 314.216L230.983 325.718L247.716 343.568L259.417 341.44C263.143 343.644 267.083 345.467 271.177 346.88L278.32 358.876L302.819 359.716L310.782 348.214C314.959 347.093 319.011 345.551 322.876 343.614L334.416 346.547L352.326 329.87L350.179 318.161C352.392 314.467 354.218 310.555 355.626 306.487L367.686 299.357L368.447 274.951ZM292.11 312.066C286.664 311.878 281.396 310.086 276.971 306.915C272.547 303.744 269.166 299.337 267.254 294.251C265.343 289.164 264.987 283.628 266.232 278.34C267.478 273.053 270.268 268.252 274.251 264.545C278.233 260.837 283.229 258.39 288.607 257.513C293.985 256.635 299.503 257.366 304.464 259.613C309.425 261.861 313.606 265.524 316.479 270.139C319.351 274.755 320.786 280.115 320.602 285.543C320.353 292.826 317.211 299.712 311.867 304.685C306.524 309.659 299.417 312.314 292.11 312.066Z" fill="#EBEBEB"/>
<path d="M394.727 205.609H394.67L375.363 204.954C374.968 204.939 374.582 204.826 374.242 204.625C373.901 204.424 373.616 204.142 373.413 203.803L368.22 195.074C365.426 194.054 362.723 192.8 360.142 191.325L351.764 192.843C351.376 192.919 350.975 192.894 350.599 192.772C350.223 192.649 349.885 192.432 349.617 192.141L336.439 178.063C336.164 177.778 335.968 177.427 335.869 177.045C335.77 176.662 335.771 176.26 335.873 175.878L337.974 167.643C336.673 164.972 335.607 162.194 334.789 159.339L326.387 153.589C326.065 153.363 325.803 153.061 325.626 152.71C325.448 152.358 325.361 151.969 325.372 151.576L326.041 132.323C326.052 131.929 326.163 131.545 326.365 131.206C326.567 130.868 326.853 130.587 327.195 130.39L335.966 125.192C336.992 122.408 338.25 119.715 339.728 117.141L338.124 108.745C338.047 108.358 338.072 107.958 338.195 107.584C338.318 107.209 338.536 106.872 338.828 106.606L352.953 93.4597C353.239 93.1859 353.591 92.9902 353.975 92.8915C354.359 92.7928 354.762 92.7943 355.145 92.8961L363.442 95.0123C366.109 93.7067 368.885 92.6368 371.74 91.815L377.51 83.4535C377.731 83.1263 378.033 82.8614 378.387 82.6842C378.74 82.5069 379.134 82.4233 379.529 82.4414L398.836 83.097C399.231 83.1117 399.616 83.2247 399.957 83.4255C400.298 83.6264 400.582 83.9088 400.786 84.2471L405.99 92.9881C408.784 94.0084 411.487 95.2627 414.068 96.7375L422.493 95.1964C422.88 95.1236 423.279 95.151 423.653 95.2758C424.027 95.4007 424.362 95.6188 424.627 95.9094L437.829 109.987C438.104 110.272 438.3 110.623 438.399 111.006C438.498 111.389 438.497 111.79 438.395 112.172L436.283 120.43C437.583 123.095 438.652 125.865 439.479 128.711L447.869 134.462C448.197 134.682 448.463 134.983 448.641 135.336C448.819 135.688 448.903 136.081 448.885 136.475L448.227 155.728C448.216 156.121 448.105 156.506 447.903 156.844C447.701 157.182 447.415 157.463 447.073 157.66L438.302 162.859C437.287 165.645 436.032 168.339 434.552 170.91L436.087 179.283C436.156 179.67 436.127 180.069 436.002 180.443C435.877 180.817 435.66 181.153 435.371 181.422L421.212 194.591C420.926 194.861 420.575 195.053 420.193 195.15C419.811 195.246 419.411 195.244 419.031 195.143L410.826 193.05C408.137 194.348 405.342 195.414 402.471 196.236L396.701 204.597C396.484 204.917 396.189 205.178 395.844 205.355C395.499 205.532 395.115 205.619 394.727 205.609ZM376.783 200.307L393.527 200.871L399.066 192.82C399.381 192.359 399.853 192.028 400.393 191.888C403.534 191.047 406.581 189.891 409.487 188.438C409.99 188.184 410.569 188.123 411.114 188.265L418.961 190.255L431.205 178.869L429.74 170.887C429.642 170.324 429.748 169.745 430.04 169.253C431.696 166.499 433.061 163.582 434.113 160.547C434.288 159.998 434.663 159.534 435.163 159.247L443.553 154.279L444.13 137.602L436.052 132.07C435.635 131.794 435.319 131.39 435.152 130.92L435.094 130.724C434.245 127.633 433.085 124.635 431.632 121.776C431.372 121.268 431.31 120.682 431.459 120.131L433.467 112.264L422.077 100.061L414.068 101.522C413.505 101.625 412.924 101.523 412.43 101.235C409.663 99.5761 406.732 98.2078 403.682 97.1516C403.511 97.0927 403.345 97.0196 403.186 96.9331C402.866 96.7279 402.598 96.4525 402.401 96.128L397.416 87.755L380.672 87.1914L375.121 95.2424C374.794 95.7187 374.3 96.0553 373.736 96.1855C370.636 97.0359 367.628 98.1918 364.758 99.6359C364.247 99.8909 363.662 99.9562 363.108 99.8199L355.214 97.7612L342.97 109.159L344.436 117.129C344.532 117.63 344.459 118.147 344.228 118.602L344.124 118.797C342.468 121.559 341.103 124.485 340.051 127.527C339.872 128.055 339.507 128.5 339.024 128.78L330.634 133.749L330.057 150.426L338.135 155.958C338.589 156.279 338.919 156.746 339.07 157.281C339.907 160.402 341.067 163.427 342.532 166.309C342.621 166.464 342.687 166.63 342.728 166.804C342.821 167.182 342.821 167.576 342.728 167.954L340.72 175.798L352.156 188.001L360.05 186.551C360.609 186.444 361.189 186.546 361.677 186.839C364.465 188.484 367.411 189.848 370.47 190.91C371.023 191.079 371.493 191.448 371.786 191.946L376.783 200.307ZM387.111 179.225H385.876C376.624 179.063 367.81 175.265 361.354 168.658C354.897 162.051 351.32 153.17 351.402 143.947C351.483 134.725 355.216 125.908 361.788 119.415C368.36 112.922 377.24 109.279 386.494 109.279C395.747 109.279 404.627 112.922 411.199 119.415C417.771 125.908 421.504 134.725 421.585 143.947C421.667 153.17 418.09 162.051 411.633 168.658C405.177 175.265 396.363 179.063 387.111 179.225ZM387.111 113.541C379.09 113.681 371.45 116.972 365.852 122.699C360.255 128.425 357.153 136.124 357.223 144.118C357.293 152.113 360.529 159.756 366.226 165.385C371.923 171.013 379.62 174.171 387.642 174.171C395.664 174.171 403.361 171.013 409.058 165.385C414.754 159.756 417.99 152.113 418.06 144.118C418.13 136.124 415.029 128.425 409.431 122.699C403.834 116.972 396.193 113.681 388.173 113.541H387.111Z" fill="#EBEBEB"/>
<path d="M439.214 67.0759L431.217 64.9367L429.07 56.9663L432.198 53.8379L435.51 60.6697L442.353 63.9591L439.214 67.0759Z" fill="#E0E0E0"/>
<path d="M439.672 61.7392C440.019 61.3941 440.293 60.9844 440.481 60.5334C440.668 60.0825 440.764 59.5992 440.764 59.1111C440.764 58.6231 440.668 58.1398 440.481 57.6888C440.293 57.2379 440.019 56.8282 439.672 56.4831C439.326 56.138 438.915 55.8642 438.462 55.6774C438.01 55.4906 437.525 55.3945 437.035 55.3945C436.546 55.3945 436.061 55.4906 435.608 55.6774C435.156 55.8642 434.745 56.138 434.398 56.4831L438.38 50.5254L443.711 53.2167L444.865 58.8064L439.672 61.7392Z" fill="#E0E0E0"/>
<path d="M431.594 54.4701L437.456 48.6274L445.442 50.7667L447.588 58.7486L441.726 64.5913L433.729 62.4405L431.594 54.4701ZM442.234 59.2547C442.613 58.9172 442.919 58.5061 443.134 58.0466C443.348 57.5872 443.466 57.0889 443.481 56.5823C443.496 56.0758 443.406 55.5716 443.219 55.1005C443.031 54.6295 442.749 54.2015 442.39 53.8428C442.031 53.4841 441.602 53.2021 441.13 53.0142C440.658 52.8263 440.152 52.7363 439.644 52.7498C439.136 52.7633 438.635 52.88 438.174 53.0927C437.712 53.3055 437.299 53.6098 436.96 53.9871C436.322 54.6962 435.98 55.622 436.006 56.5742C436.031 57.5264 436.422 58.4327 437.097 59.107C437.772 59.7813 438.68 60.1723 439.636 60.1998C440.591 60.2273 441.521 59.8891 442.234 59.2547Z" fill="#F0F0F0"/>
<path d="M112.204 279.804L116.497 278.654L117.651 274.376L115.966 272.708L114.189 276.365L110.52 278.137L112.204 279.804Z" fill="#E0E0E0"/>
<path d="M111.937 276.94C111.562 276.567 111.352 276.06 111.352 275.532C111.352 275.003 111.562 274.496 111.937 274.123C112.312 273.749 112.821 273.539 113.351 273.539C113.881 273.539 114.39 273.749 114.765 274.123L112.63 270.925L109.768 272.374L109.145 275.365L111.937 276.94Z" fill="#E0E0E0"/>
<path d="M116.301 273.041L113.162 269.913L108.869 271.063L107.715 275.342L110.865 278.482L115.158 277.331L116.301 273.041ZM110.531 275.606C110.16 275.228 109.952 274.72 109.952 274.192C109.952 273.663 110.16 273.155 110.531 272.777C110.811 272.497 111.169 272.306 111.559 272.229C111.948 272.152 112.352 272.191 112.719 272.343C113.086 272.494 113.4 272.751 113.62 273.08C113.841 273.409 113.959 273.796 113.959 274.192C113.959 274.587 113.841 274.974 113.62 275.304C113.4 275.633 113.086 275.889 112.719 276.041C112.352 276.192 111.948 276.232 111.559 276.154C111.169 276.077 110.811 275.886 110.531 275.606Z" fill="#F0F0F0"/>
<path d="M96.7509 45.223L100.305 48.7769C100.756 49.2188 101.363 49.4663 101.996 49.4663C102.628 49.4663 103.235 49.2188 103.686 48.7769C104.129 48.3293 104.377 47.7262 104.377 47.0977C104.377 46.4693 104.129 45.8661 103.686 45.4186L100.121 41.8646C99.6715 41.4235 99.0663 41.1763 98.4358 41.1763C97.8053 41.1763 97.2 41.4235 96.7509 41.8646C96.529 42.0848 96.3529 42.3465 96.2328 42.6346C96.1126 42.9228 96.0508 43.2318 96.0508 43.5438C96.0508 43.8559 96.1126 44.1649 96.2328 44.453C96.3529 44.7412 96.529 45.0029 96.7509 45.223Z" fill="#F0F0F0"/>
<path d="M94.237 36.3787C95.1695 36.1096 96.1605 36.1183 97.088 36.4038C98.0155 36.6893 98.839 37.2391 99.4568 37.9853C100.075 38.7316 100.46 39.6417 100.565 40.6035C100.67 41.5653 100.49 42.5367 100.048 43.398C99.6061 44.2593 98.9207 44.9728 98.0766 45.4506C97.2325 45.9284 96.2666 46.1496 95.2979 46.0868C94.3292 46.0241 93.4001 45.6802 92.6251 45.0976C91.8501 44.5149 91.2632 43.719 90.9366 42.8079C90.522 41.5191 90.6365 40.1191 91.255 38.9142C91.8735 37.7093 92.9458 36.7977 94.237 36.3787Z" fill="#E0E0E0"/>
<path d="M90.3522 42.2211L90.8672 43.6499L101.467 39.8548L100.952 38.4261L90.3522 42.2211Z" fill="#F0F0F0"/>
<path d="M290.393 425.25C409.817 425.25 506.629 419.617 506.629 412.668C506.629 405.719 409.817 400.085 290.393 400.085C170.969 400.085 74.1562 405.719 74.1562 412.668C74.1562 419.617 170.969 425.25 290.393 425.25Z" fill="#F5F5F5"/>
<path d="M108.293 84.109C107.177 79.2247 107.677 75.1034 109.793 71.745C111.908 68.3867 115.405 66.1592 120.283 65.0628C125.291 63.9356 129.457 64.4034 132.78 66.4659C136.104 68.5285 138.316 71.9789 139.416 76.8171C140.204 79.7643 140.267 82.8574 139.601 85.8342C138.953 88.3104 137.584 90.5398 135.665 92.2404C133.385 94.1501 130.652 95.445 127.726 96.0014C124.855 96.7605 121.849 96.8628 118.932 96.3004C116.403 95.6867 114.117 94.3328 112.366 92.4129C110.282 90.0612 108.875 87.1922 108.293 84.109ZM117.605 82.0502C118.29 85.0712 119.348 87.1185 120.779 88.1919C121.517 88.6743 122.344 89.004 123.212 89.1617C124.08 89.3193 124.971 89.3016 125.832 89.1096C126.693 88.9176 127.506 88.5552 128.224 88.0439C128.942 87.5326 129.55 86.8829 130.011 86.1332C130.78 84.5997 130.78 82.1499 130.011 78.7839C129.365 75.966 128.314 74.0338 126.883 73.0332C126.155 72.5127 125.318 72.162 124.435 72.0067C123.553 71.8514 122.646 71.8956 121.783 72.1361C120.921 72.2962 120.108 72.6498 119.404 73.1699C118.7 73.69 118.125 74.363 117.721 75.1379C116.971 76.6791 116.901 78.9909 117.605 82.0502Z" fill="#263238"/>
<path d="M143.849 80.44C143.453 78.9273 143.382 77.3483 143.641 75.8064C143.899 74.2645 144.481 72.7943 145.349 71.492C146.323 70.1062 147.563 68.9262 148.997 68.0202C150.431 67.1142 152.031 66.4999 153.704 66.2129C158.066 65.2237 161.651 65.7375 164.459 67.754C166.741 69.4234 168.311 71.8864 168.856 74.6548C169.256 76.1671 169.332 77.7464 169.08 79.2901C168.827 80.8337 168.252 82.3071 167.39 83.6144C165.659 86.2597 162.828 88.0232 158.897 88.905C155.871 89.7398 152.647 89.4832 149.792 88.1804C148.269 87.4345 146.941 86.3476 145.91 85.0048C144.879 83.662 144.173 82.0997 143.849 80.44ZM152.215 78.5308C152.443 80.0819 153.206 81.5054 154.373 82.5563C154.83 82.9183 155.364 83.1709 155.934 83.2946C156.505 83.4182 157.096 83.4096 157.662 83.2693C158.231 83.1582 158.766 82.9164 159.225 82.563C159.684 82.2096 160.054 81.7544 160.305 81.2336C160.885 79.7637 160.942 78.1398 160.466 76.6331C160.24 75.112 159.489 73.7171 158.343 72.6881C157.897 72.3346 157.378 72.0858 156.822 71.9603C156.267 71.8349 155.69 71.836 155.135 71.9635C154.554 72.0834 154.009 72.3344 153.541 72.6973C153.072 73.0602 152.694 73.5253 152.435 74.0568C151.843 75.4777 151.766 77.0592 152.215 78.5308Z" fill="#263238"/>
<path d="M177.289 92.9192L170.457 62.9352L178.27 61.1525L179.008 64.3729C179.54 63.0814 180.325 61.9085 181.316 60.9225C182.418 59.9911 183.734 59.3469 185.147 59.0478C186.461 58.6831 187.846 58.6597 189.171 58.9798C190.497 59.2999 191.717 59.9529 192.718 60.8765C194.932 62.9251 196.432 65.6248 196.999 68.5824C197.815 72.1938 197.572 75.1458 196.272 77.4384C195.662 78.5507 194.814 79.5162 193.79 80.2673C192.765 81.0184 191.588 81.5367 190.34 81.7859C189.14 82.0802 187.892 82.131 186.671 81.9354C185.496 81.7322 184.377 81.2898 183.382 80.6358L185.748 90.987L177.289 92.9192ZM181.316 71.9523C181.519 73.3403 182.215 74.6096 183.278 75.5292C183.705 75.8526 184.199 76.0771 184.724 76.1866C185.249 76.296 185.792 76.2875 186.313 76.1618C186.785 76.056 187.226 75.8432 187.602 75.5401C187.979 75.2369 188.28 74.8514 188.483 74.4136C188.957 73.0227 188.957 71.5144 188.483 70.1236C188.278 68.7266 187.603 67.4406 186.567 66.4776C186.186 66.1611 185.737 65.9363 185.254 65.8207C184.772 65.705 184.27 65.7015 183.786 65.8106C183.273 65.9188 182.791 66.1417 182.378 66.4625C181.964 66.7833 181.628 67.1935 181.397 67.6623C180.874 69.0401 180.846 70.5558 181.316 71.9523Z" fill="#263238"/>
<path d="M200.541 72.6076L208.619 69.9508C209.05 70.7383 209.727 71.3643 210.547 71.7335C211.383 72.0247 212.29 72.0528 213.143 71.814C214.084 71.6644 214.946 71.2023 215.59 70.5028C215.779 70.3104 215.916 70.0735 215.988 69.8142C216.061 69.5548 216.067 69.2813 216.005 69.0192C215.93 68.7263 215.772 68.4614 215.548 68.2571C215.325 68.0528 215.046 67.9179 214.747 67.869C213.489 67.7265 212.22 67.7265 210.962 67.869C208.842 68.0425 206.712 68.0425 204.592 67.869C203.352 67.6914 202.19 67.1602 201.245 66.3394C200.249 65.5112 199.562 64.3726 199.295 63.1075C198.948 61.7756 199.091 60.3636 199.699 59.128C200.36 57.8403 201.372 56.7641 202.619 56.0227C204.396 55.0199 206.325 54.3129 208.331 53.9294C210.252 53.409 212.238 53.1688 214.228 53.2163C215.477 53.3103 216.685 53.705 217.748 54.3665C218.884 55.1288 219.847 56.1201 220.575 57.2763L212.831 59.8411C212.539 59.2623 212.053 58.8029 211.458 58.5415C210.646 58.2531 209.766 58.213 208.931 58.4264C208.194 58.531 207.51 58.8698 206.981 59.3926C206.812 59.5735 206.69 59.7928 206.626 60.0313C206.562 60.2698 206.557 60.5204 206.611 60.7612C206.673 61.0292 206.818 61.2711 207.025 61.4527C207.232 61.6344 207.491 61.7465 207.765 61.7733C209.009 61.9225 210.267 61.8993 211.504 61.7043C213.657 61.3889 215.841 61.3579 218.001 61.6123C219.357 61.8006 220.626 62.3849 221.648 63.2915C222.583 64.132 223.232 65.2413 223.506 66.4659C223.788 67.7708 223.683 69.1292 223.206 70.3763C222.613 71.8607 221.583 73.1316 220.252 74.0223C218.295 75.29 216.107 76.1615 213.812 76.587C209.835 77.4841 206.873 77.5608 204.927 76.8171C203.952 76.4408 203.062 75.8748 202.309 75.1521C201.556 74.4293 200.955 73.5643 200.541 72.6076Z" fill="#263238"/>
<path d="M227.777 45.1196H236.929V52.1239L235.244 66.2016H229.589L227.777 52.1354V45.1196ZM228.227 68.3408H236.767V75.8627H228.216L228.227 68.3408Z" fill="#263238"/>
<path d="M155.097 140.73C155.029 140.746 154.958 140.746 154.89 140.73C149.87 138.798 146.812 136.9 145.312 134.634C144.085 134.852 142.821 134.679 141.7 134.14C140.397 133.499 139.318 132.481 138.607 131.219C138.226 131.509 137.779 131.701 137.305 131.775C136.831 131.849 136.347 131.804 135.895 131.644C134.544 131.116 133.393 130.179 132.606 128.964C132.105 129.324 131.49 129.492 130.875 129.436C127.563 129.171 123.062 122.535 122.797 115.634C122.794 115.487 122.849 115.344 122.95 115.236C123.052 115.129 123.191 115.065 123.339 115.059C123.412 115.054 123.486 115.065 123.555 115.089C123.624 115.113 123.687 115.151 123.741 115.201C123.795 115.25 123.839 115.31 123.869 115.377C123.899 115.443 123.915 115.515 123.916 115.588C124.216 122.236 128.532 128.24 131.025 128.389C131.398 128.422 131.77 128.311 132.064 128.079C131.187 126.496 130.634 124.757 130.436 122.961C130.238 121.164 130.399 119.347 130.91 117.612C131.867 114.277 132.721 113.012 133.737 113.207C135.653 113.69 135.399 120.959 134.383 125.755C134.229 126.616 133.911 127.44 133.448 128.182C134.104 129.279 135.095 130.138 136.276 130.632C136.591 130.757 136.935 130.787 137.267 130.72C137.599 130.652 137.904 130.49 138.145 130.252C137.146 127.388 137.191 124.265 138.272 121.431C139.842 116.508 140.476 116.37 140.846 116.29C140.977 116.262 141.114 116.27 141.242 116.313C141.369 116.355 141.484 116.431 141.573 116.531C142.6 117.681 141.365 125.341 140.072 129.183C139.918 129.636 139.709 130.069 139.449 130.471C140.044 131.675 141.022 132.65 142.23 133.243C143.015 133.635 143.894 133.803 144.769 133.726C144.665 133.516 144.573 133.301 144.492 133.082C143.604 130.701 144.042 127.941 145.819 124.663C146.973 122.489 147.954 121.477 148.831 121.465C149.074 121.465 149.312 121.534 149.516 121.665C149.721 121.795 149.884 121.982 149.985 122.201C150.955 123.996 150.251 129.896 148.323 132.829C147.88 133.503 147.256 134.041 146.523 134.381C148.012 136.337 150.851 138.062 155.386 139.81C155.504 139.86 155.601 139.949 155.661 140.061C155.722 140.173 155.743 140.303 155.72 140.428C155.697 140.554 155.632 140.668 155.536 140.752C155.44 140.836 155.318 140.885 155.19 140.891L155.097 140.73ZM148.785 122.42C148.785 122.42 148.162 122.42 146.754 125.031C145.138 128.01 144.723 130.471 145.496 132.541C145.588 132.799 145.7 133.048 145.831 133.289C146.433 133.036 146.944 132.607 147.296 132.058C148.866 129.677 149.604 124.789 149.027 122.857C148.866 122.489 148.785 122.42 148.785 122.42ZM140.788 117.739C140.18 119.001 139.682 120.313 139.299 121.661C138.439 123.992 138.287 126.524 138.861 128.941C138.905 128.853 138.94 128.761 138.965 128.665C140.122 125.136 140.737 121.452 140.788 117.739ZM133.448 114.231C133.252 114.404 132.71 115.105 131.937 117.819C131.021 120.877 131.31 124.168 132.744 127.021C132.971 126.519 133.141 125.995 133.252 125.456C134.406 119.97 134.072 115.013 133.448 114.231Z" fill="#263238"/>
<path d="M197.493 198.973C195.71 198.994 193.953 198.542 192.404 197.662C192.276 197.585 192.183 197.461 192.146 197.317C192.11 197.173 192.132 197.02 192.208 196.891C192.245 196.829 192.294 196.774 192.352 196.73C192.41 196.686 192.477 196.654 192.548 196.636C192.619 196.617 192.692 196.613 192.765 196.624C192.837 196.634 192.907 196.659 192.969 196.696C196.951 198.996 202.086 197.397 203.148 195.707C203.225 195.6 203.279 195.478 203.307 195.35C203.335 195.221 203.335 195.088 203.309 194.959C201.256 195.078 199.223 194.503 197.539 193.326C194.7 191.566 194.481 191.026 194.504 190.612C194.51 190.491 194.549 190.374 194.616 190.272C194.683 190.171 194.776 190.09 194.885 190.037C196.039 189.473 201.024 191.785 203.125 193.153C203.375 193.325 203.607 193.521 203.817 193.74C204.642 193.549 205.386 193.102 205.94 192.463C206.247 192.103 206.468 191.678 206.587 191.221H206.367C204.59 191.405 202.801 190.635 200.886 188.921C199.582 187.771 199.074 186.874 199.247 186.218C199.296 186.034 199.397 185.867 199.538 185.739C199.679 185.61 199.855 185.525 200.043 185.494C201.59 185.114 205.398 186.724 206.967 188.426C207.325 188.807 207.582 189.269 207.718 189.772C209.172 189.082 210.706 187.564 212.53 185.022C212.571 184.962 212.624 184.911 212.686 184.872C212.748 184.832 212.817 184.806 212.889 184.794C212.961 184.782 213.035 184.785 213.106 184.803C213.178 184.82 213.244 184.852 213.303 184.896C213.363 184.937 213.414 184.99 213.454 185.051C213.493 185.112 213.52 185.181 213.533 185.252C213.546 185.324 213.544 185.397 213.529 185.468C213.513 185.539 213.483 185.607 213.441 185.666C211.33 188.599 209.575 190.267 207.81 190.945C207.733 191.793 207.395 192.597 206.84 193.245C206.203 193.996 205.355 194.541 204.406 194.81C204.46 195.076 204.461 195.351 204.407 195.617C204.354 195.884 204.247 196.137 204.094 196.362C203.159 197.823 200.459 198.973 197.493 198.973ZM196.501 191.267C196.881 191.543 197.412 191.911 198.185 192.417C199.386 193.222 200.764 193.727 202.201 193.89C200.405 192.81 198.493 191.934 196.501 191.279V191.267ZM200.39 186.54C200.71 187.143 201.154 187.672 201.694 188.093C203.355 189.611 204.856 190.29 206.31 190.14L206.667 190.083C206.583 189.741 206.417 189.425 206.183 189.163C204.603 187.666 202.561 186.745 200.39 186.552V186.54Z" fill="#263238"/>
<path d="M212.265 197.466L194.886 200.606L179.111 114.783L145.576 120.856L90.9453 217.559L96.8076 249.464L166.89 236.812L171.691 262.909L205.214 256.848L200.414 230.74L217.793 227.6L212.265 197.466ZM124.331 213.384L153.273 162.778L161.351 206.725L124.331 213.384Z" fill="#6C2E88"/>
<path d="M352.21 108.952C351.686 103.561 350.488 98.2558 348.644 93.1606C346.762 88.2721 344.134 83.7022 340.854 79.6121C336.97 74.8527 332.146 70.9383 326.683 68.1107C320.706 64.8597 312.816 62.5939 303.015 61.3135C282.612 58.6681 266.71 62.2757 255.308 72.1362C243.907 81.9967 236.398 100.89 232.782 128.815C231.339 139.255 230.972 149.814 231.686 160.328C232.455 169.967 234.232 177.722 237.017 183.596C240.592 191.518 246.236 198.338 253.358 203.343C260.398 208.266 270.041 211.525 282.289 213.12C304.123 215.957 320.321 211.77 330.884 200.56C341.447 189.35 348.44 170.419 351.864 143.767C353.396 132.219 353.512 120.528 352.21 108.952Z" fill="#6E2D87"/>
<path d="M292.366 201.699C289.689 201.607 286.827 201.365 283.884 200.986C273.671 199.652 265.778 197.075 260.4 193.326C255.037 189.535 250.802 184.368 248.145 178.374L248.11 178.271C245.964 173.808 244.568 167.436 243.944 159.351C243.306 149.668 243.65 139.946 244.971 130.333C248.953 99.5209 257.169 86.6279 263.366 81.3028C270.59 75.0576 280.342 72.2397 293.174 72.6768C295.805 72.7688 298.598 72.9988 301.46 73.3669C309.699 74.4365 316.208 76.2537 320.824 78.7725C324.816 80.814 328.349 83.6432 331.21 87.0879C333.719 90.2152 335.735 93.7058 337.188 97.4392C338.665 101.588 339.622 105.903 340.038 110.286C341.226 120.903 341.118 131.623 339.715 142.214C336.622 166.148 330.656 182.975 321.966 192.21C315.515 199.111 305.81 202.17 292.389 201.71L292.366 201.699Z" fill="#401A5B"/>
<path d="M314.186 109.263L314.336 105.053L311.739 104.214C311.633 102.785 311.401 101.369 311.047 99.981L313.251 98.3708L311.751 94.4144L309.039 94.6329C308.378 93.3565 307.605 92.1404 306.731 90.9985L308.139 88.6982L305.242 85.6158L302.807 86.858C301.722 85.9313 300.565 85.0929 299.345 84.3507L299.738 81.6594L295.883 79.9112L294.118 81.9814C292.75 81.5423 291.349 81.2153 289.929 81.0038L289.271 78.37L285.036 78.209L284.205 80.7968C282.772 80.908 281.352 81.1388 279.958 81.4869L278.331 79.3016L274.361 80.7853L274.581 83.4881C273.302 84.1517 272.083 84.9212 270.934 85.7884L268.626 84.3852L265.522 87.2605L266.768 89.6988C265.839 90.7819 265.001 91.9398 264.264 93.1607L261.563 92.7582L259.786 96.6111L261.875 98.3708C261.43 99.7323 261.102 101.129 260.894 102.546L258.24 103.213L258.09 107.422L260.698 108.262C260.804 109.69 261.035 111.107 261.39 112.494L259.186 114.105L260.686 118.061L263.398 117.843C264.068 119.114 264.84 120.33 265.706 121.477L264.298 123.777L267.195 126.86L269.63 125.617C270.713 126.547 271.871 127.385 273.092 128.125L272.688 130.816L276.542 132.564L278.319 130.494C279.687 130.933 281.088 131.26 282.508 131.472L283.166 134.105L287.401 134.255L288.232 131.667C289.665 131.556 291.085 131.325 292.479 130.977L294.095 133.162L298.064 131.679L297.857 128.976C299.133 128.31 300.353 127.54 301.503 126.676L303.811 128.079L306.916 125.203L305.669 122.765C306.605 121.692 307.443 120.537 308.173 119.315L310.874 119.717L312.639 115.876L310.551 114.116C310.997 112.755 311.325 111.358 311.532 109.941L314.186 109.263ZM285.647 122.903C282.331 122.794 279.121 121.707 276.425 119.778C273.729 117.85 271.667 115.168 270.502 112.072C269.336 108.975 269.118 105.604 269.876 102.384C270.634 99.1638 272.334 96.2405 274.76 93.9838C277.186 91.7272 280.229 90.2387 283.504 89.7069C286.779 89.175 290.139 89.6237 293.159 90.9961C296.178 92.3685 298.721 94.603 300.465 97.4165C302.209 100.23 303.077 103.496 302.957 106.801C302.804 111.225 300.894 115.407 297.649 118.429C294.403 121.45 290.086 123.064 285.647 122.915V122.903Z" fill="#801CBA"/>
<path opacity="0.3" d="M331.798 186.62L332.109 183.779L330.39 183.078C330.387 182.114 330.302 181.152 330.136 180.203L331.705 179.213L330.909 176.465H329.051C328.688 175.571 328.243 174.713 327.724 173.9L328.774 172.393L326.985 170.219L325.277 170.932C324.611 170.253 323.889 169.63 323.12 169.069L323.535 167.252L321.019 165.883L319.658 167.172C318.767 166.797 317.843 166.505 316.899 166.297L316.588 164.48L313.737 164.158L313.034 165.86C312.066 165.873 311.102 165.962 310.149 166.125L309.156 164.561L306.398 165.366V167.218C305.505 167.587 304.644 168.029 303.825 168.54L302.301 167.471L300.04 169.265L300.755 170.967C300.075 171.65 299.453 172.389 298.897 173.175L297.097 172.773L295.712 175.28L297.028 176.568C296.658 177.466 296.364 178.393 296.151 179.34L294.327 179.639L294.016 182.48L295.724 183.181C295.727 184.145 295.812 185.107 295.977 186.057L294.408 187.046L295.216 189.795H297.062C297.439 190.684 297.887 191.542 298.401 192.359L297.328 193.866L299.128 196.097L300.847 195.384C301.533 196.062 302.274 196.681 303.063 197.236L302.648 199.042L305.163 200.422L306.467 199.111C307.366 199.471 308.292 199.759 309.237 199.973L309.548 201.791L312.399 202.113L313.091 200.399C314.062 200.391 315.031 200.303 315.988 200.134L316.98 201.71L319.727 200.905V199.053C320.626 198.685 321.491 198.238 322.312 197.719L323.812 198.789L326.051 197.006L325.324 195.304C326.008 194.619 326.637 193.88 327.205 193.096L329.005 193.487L330.39 190.991L329.074 189.691C329.434 188.799 329.723 187.88 329.94 186.942L331.798 186.62ZM317.442 185.47C316.969 186.33 316.252 187.031 315.379 187.485C314.507 187.938 313.52 188.124 312.542 188.018C311.564 187.912 310.639 187.519 309.885 186.889C309.131 186.26 308.581 185.421 308.305 184.48C308.029 183.539 308.039 182.538 308.335 181.602C308.63 180.667 309.196 179.84 309.963 179.226C310.73 178.612 311.662 178.238 312.642 178.152C313.622 178.066 314.606 178.271 315.468 178.742C316.045 179.057 316.554 179.482 316.965 179.993C317.377 180.504 317.683 181.091 317.866 181.721C318.049 182.35 318.106 183.009 318.033 183.661C317.961 184.312 317.76 184.942 317.442 185.516V185.47Z" fill="#6A00B5"/>
<path d="M347.593 138.579L344.27 136.279C343.937 135.088 343.489 133.933 342.931 132.829L343.785 129.505L338.961 124.352L335.569 124.973C334.503 124.344 333.378 123.82 332.211 123.409L330.145 119.959L323.082 119.717L320.809 123.064C319.614 123.395 318.455 123.842 317.347 124.398L314.012 123.547L308.842 128.355L309.465 131.725C308.831 132.789 308.305 133.914 307.896 135.083L304.434 137.142L304.191 144.181L307.515 146.481C307.841 147.674 308.289 148.83 308.854 149.931L308 153.255L312.823 158.396L316.193 157.787C317.269 158.419 318.406 158.943 319.586 159.351L321.651 162.801L328.714 163.043L331.022 159.73C332.218 159.403 333.378 158.956 334.484 158.396L337.807 159.247L342.977 154.44L342.354 151.058C342.978 149.985 343.492 148.852 343.889 147.677L347.351 145.618L347.593 138.579ZM325.587 149.276C324.018 149.22 322.501 148.702 321.227 147.788C319.953 146.873 318.98 145.603 318.431 144.137C317.881 142.671 317.78 141.076 318.14 139.553C318.5 138.03 319.305 136.648 320.453 135.581C321.601 134.514 323.041 133.81 324.59 133.558C326.14 133.306 327.729 133.518 329.158 134.166C330.587 134.815 331.791 135.871 332.617 137.201C333.444 138.531 333.857 140.075 333.803 141.639C333.767 142.678 333.526 143.7 333.094 144.647C332.662 145.593 332.046 146.445 331.283 147.155C330.52 147.864 329.624 148.416 328.647 148.78C327.669 149.144 326.629 149.313 325.587 149.276Z" fill="white"/>
<path d="M371.85 82.4184L372.439 81.0268C372.849 80.8112 373.236 80.5529 373.593 80.2562H374.885L376.408 78.0824L375.912 76.9323C376.063 76.496 376.168 76.0449 376.224 75.5867L377.378 74.563L376.916 71.9637L375.508 71.3772C375.292 70.9704 375.037 70.5853 374.747 70.227V68.9389L372.577 67.4207L371.423 67.9153C370.981 67.7658 370.525 67.6617 370.061 67.6047L369.034 66.4546L366.415 66.9146L365.838 68.3178C365.428 68.5314 365.042 68.7857 364.684 69.0769H363.391L361.88 71.2391L362.376 72.3893C362.224 72.8295 362.12 73.2844 362.064 73.7464L360.91 74.7816L361.383 77.3809L362.78 77.9559C362.994 78.3666 363.253 78.7523 363.553 79.1061L363.507 80.5092L365.688 82.0159L366.842 81.5213C367.283 81.6721 367.74 81.7762 368.203 81.8319L369.23 82.982L371.85 82.4184ZM366.184 75.2071C366.079 74.6269 366.149 74.0286 366.385 73.488C366.621 72.9475 367.013 72.4889 367.511 72.1705C368.009 71.8521 368.59 71.6881 369.182 71.6993C369.773 71.7105 370.348 71.8964 370.834 72.2334C371.319 72.5704 371.693 73.0435 371.909 73.5926C372.124 74.1417 372.171 74.7422 372.044 75.318C371.917 75.8939 371.621 76.4191 371.194 76.8273C370.767 77.2354 370.228 77.5082 369.646 77.6109C368.867 77.7482 368.066 77.5723 367.417 77.1218C366.768 76.6712 366.325 75.9827 366.184 75.2071Z" fill="#56008C"/>
<path d="M341.26 75.0459L340.406 74.3328C342.247 72.0446 344.526 70.1444 347.111 68.7432L347.63 69.7208C345.177 71.0624 343.013 72.8717 341.26 75.0459Z" fill="#56008C"/>
<path d="M350.169 68.7203L349.719 67.6967C353.84 65.9184 358.345 65.2025 362.817 65.615L362.713 66.7651C358.433 66.351 354.117 67.0236 350.169 68.7203Z" fill="#56008C"/>
<path d="M348.056 76.4149L347.133 75.7824C349.828 72.1753 353.736 69.6561 358.142 68.686L358.361 69.8362C354.244 70.723 350.586 73.0586 348.056 76.4149Z" fill="#56008C"/>
<path d="M274.051 183.389C273.899 183.385 273.754 183.324 273.647 183.216L271.339 180.813C270.167 180.698 269.009 180.479 267.877 180.157L264.23 181.767C264.148 181.809 264.057 181.832 263.965 181.832C263.872 181.832 263.781 181.809 263.699 181.767L257.583 177.73C257.508 177.676 257.447 177.605 257.405 177.523C257.363 177.441 257.341 177.351 257.341 177.259L257.398 173.291C256.65 172.364 255.989 171.371 255.425 170.323L252.228 169.07C252.142 169.032 252.066 168.976 252.006 168.904C251.946 168.832 251.903 168.747 251.882 168.656L250.417 161.502C250.399 161.411 250.404 161.317 250.432 161.228C250.461 161.14 250.511 161.06 250.578 160.996L252.99 158.695C253.099 157.528 253.315 156.373 253.636 155.245L252.032 151.611C251.987 151.53 251.963 151.439 251.963 151.346C251.963 151.253 251.987 151.162 252.032 151.082L256.187 144.917C256.235 144.836 256.304 144.769 256.388 144.725C256.471 144.68 256.565 144.659 256.66 144.664L260.63 144.733C261.564 143.988 262.564 143.33 263.618 142.766L264.772 139.649C264.806 139.561 264.862 139.483 264.935 139.423C265.008 139.362 265.095 139.322 265.188 139.304L272.366 137.855C272.457 137.837 272.552 137.843 272.64 137.871C272.729 137.899 272.809 137.949 272.873 138.016L275.181 140.408C276.352 140.527 277.511 140.746 278.643 141.064L282.279 139.465C282.362 139.42 282.455 139.396 282.55 139.396C282.645 139.396 282.738 139.42 282.821 139.465L288.926 143.491C289.002 143.543 289.064 143.614 289.106 143.696C289.148 143.779 289.169 143.87 289.168 143.962V147.93C289.914 148.858 290.574 149.851 291.141 150.898L294.269 152.163C294.354 152.197 294.431 152.252 294.491 152.322C294.551 152.392 294.594 152.475 294.615 152.565L296.069 159.719C296.086 159.812 296.08 159.907 296.052 159.998C296.024 160.088 295.974 160.17 295.907 160.237L293.495 162.537C293.386 163.704 293.169 164.859 292.849 165.987L294.453 169.622C294.499 169.703 294.523 169.794 294.523 169.886C294.523 169.979 294.499 170.07 294.453 170.151L290.403 176.235C290.351 176.313 290.281 176.377 290.198 176.421C290.116 176.465 290.023 176.488 289.93 176.488H285.96C285.026 177.23 284.026 177.885 282.971 178.443L281.817 181.56C281.786 181.648 281.732 181.726 281.661 181.787C281.591 181.847 281.505 181.888 281.413 181.905L274.224 183.366L274.051 183.389ZM267.761 179.018C267.815 179.007 267.87 179.007 267.923 179.018C269.128 179.367 270.365 179.594 271.616 179.697C271.749 179.709 271.872 179.771 271.962 179.869L274.27 182.17L280.859 180.836L282.013 177.799C282.062 177.671 282.156 177.564 282.279 177.5C283.392 176.926 284.444 176.24 285.417 175.453C285.464 175.407 285.52 175.372 285.582 175.35C285.644 175.328 285.71 175.32 285.775 175.326H289.641L293.357 169.748L291.788 166.206C291.747 166.083 291.747 165.95 291.788 165.826C292.142 164.626 292.374 163.393 292.48 162.146C292.492 162.012 292.549 161.887 292.641 161.789L294.949 159.489L293.611 152.922L290.576 151.772C290.447 151.723 290.34 151.629 290.276 151.507C289.7 150.395 289.008 149.346 288.21 148.379C288.128 148.278 288.083 148.152 288.083 148.022L288.141 144.158L282.544 140.466L279.001 142.019C278.878 142.064 278.743 142.064 278.62 142.019C277.411 141.672 276.17 141.445 274.916 141.34C274.783 141.328 274.659 141.266 274.57 141.167L272.262 138.867L265.684 140.19L264.53 143.226C264.485 143.351 264.395 143.454 264.276 143.514C263.159 144.091 262.107 144.785 261.137 145.584C261.034 145.669 260.902 145.714 260.768 145.71L256.902 145.641L253.186 151.231L254.756 154.762C254.79 154.836 254.808 154.916 254.808 154.998C254.808 155.079 254.79 155.16 254.756 155.234C254.431 156.408 254.211 157.609 254.098 158.822C254.093 158.957 254.035 159.085 253.936 159.179L251.628 161.479L252.967 168.035L256.002 169.185C256.136 169.242 256.246 169.344 256.314 169.472C256.89 170.575 257.578 171.615 258.368 172.578C258.448 172.679 258.493 172.805 258.495 172.934L258.437 176.799L264.034 180.502L267.588 178.938C267.639 178.957 267.685 178.984 267.727 179.018H267.761ZM273.243 175.418C270.557 175.416 267.921 174.688 265.617 173.311C263.313 171.935 261.427 169.962 260.158 167.603C258.889 165.243 258.285 162.585 258.411 159.911C258.536 157.237 259.387 154.647 260.872 152.416C262.293 150.28 264.246 148.549 266.539 147.391C268.833 146.232 271.388 145.687 273.957 145.807C276.525 145.928 279.018 146.71 281.192 148.078C283.366 149.446 285.147 151.353 286.361 153.612C287.575 155.871 288.18 158.405 288.117 160.966C288.054 163.528 287.326 166.03 286.003 168.227C284.68 170.424 282.808 172.242 280.569 173.502C278.331 174.763 275.802 175.423 273.231 175.418H273.243ZM261.807 153.048C259.795 156.078 259.072 159.78 259.797 163.34C260.522 166.9 262.635 170.028 265.672 172.037C267.939 173.533 270.599 174.326 273.317 174.315C276.035 174.304 278.689 173.49 280.943 171.976C283.197 170.463 284.95 168.317 285.981 165.81C287.011 163.303 287.272 160.548 286.732 157.893C286.191 155.238 284.873 152.803 282.944 150.894C281.015 148.986 278.561 147.691 275.893 147.172C273.225 146.654 270.463 146.935 267.956 147.981C265.448 149.027 263.308 150.79 261.807 153.048Z" fill="white"/>
<path d="M486.49 207.496L468.984 205.195L480.524 118.717L446.758 114.116L364.824 189.277L360.52 221.481L431.11 230.981L427.59 257.273L461.356 261.816L464.876 235.524L482.382 237.825L486.49 207.496ZM397.921 195.58L441.138 156.315L435.218 200.595L397.921 195.58Z" fill="#6E2D87"/>
<path d="M451.143 260.954H451.04C450.895 260.926 450.768 260.843 450.683 260.723C450.599 260.602 450.566 260.454 450.589 260.31L476.601 118.096C476.614 118.024 476.642 117.955 476.682 117.894C476.722 117.833 476.774 117.781 476.835 117.74C476.895 117.698 476.963 117.67 477.035 117.655C477.107 117.64 477.181 117.639 477.253 117.653C477.325 117.666 477.393 117.694 477.454 117.734C477.516 117.774 477.569 117.826 477.61 117.886C477.651 117.946 477.68 118.014 477.695 118.086C477.71 118.157 477.711 118.231 477.697 118.303L451.686 260.494C451.664 260.622 451.598 260.738 451.499 260.822C451.399 260.906 451.274 260.953 451.143 260.954Z" fill="#263238"/>
<path d="M474.225 120.488C474.218 120.667 474.158 120.841 474.052 120.986C473.946 121.131 473.799 121.242 473.63 121.305C473.461 121.367 473.277 121.378 473.102 121.336C472.927 121.295 472.768 121.202 472.645 121.07C472.523 120.938 472.442 120.773 472.414 120.596C472.385 120.419 472.41 120.237 472.485 120.074C472.561 119.91 472.683 119.773 472.836 119.679C472.99 119.585 473.168 119.538 473.348 119.545C473.468 119.549 473.585 119.577 473.694 119.627C473.803 119.677 473.901 119.747 473.983 119.835C474.064 119.923 474.127 120.025 474.169 120.137C474.211 120.249 474.23 120.368 474.225 120.488Z" fill="#263238"/>
<path d="M470.506 139.718C470.499 139.898 470.439 140.071 470.333 140.217C470.227 140.362 470.081 140.473 469.912 140.535C469.743 140.597 469.559 140.608 469.383 140.567C469.208 140.525 469.049 140.432 468.927 140.301C468.804 140.169 468.723 140.004 468.695 139.826C468.667 139.649 468.692 139.467 468.767 139.304C468.842 139.141 468.964 139.003 469.117 138.909C469.271 138.815 469.449 138.768 469.629 138.775C469.749 138.779 469.867 138.807 469.976 138.857C470.084 138.907 470.182 138.978 470.264 139.065C470.345 139.153 470.409 139.256 470.45 139.368C470.492 139.48 470.511 139.599 470.506 139.718Z" fill="#263238"/>
<path d="M466.791 158.948C466.784 159.128 466.724 159.301 466.618 159.446C466.513 159.592 466.366 159.703 466.197 159.765C466.028 159.827 465.844 159.838 465.669 159.797C465.493 159.755 465.334 159.662 465.212 159.531C465.089 159.399 465.009 159.234 464.98 159.056C464.952 158.879 464.977 158.697 465.052 158.534C465.127 158.371 465.249 158.233 465.403 158.139C465.556 158.045 465.734 157.998 465.914 158.005C466.034 158.009 466.152 158.037 466.261 158.087C466.37 158.137 466.468 158.208 466.549 158.295C466.631 158.383 466.694 158.486 466.735 158.598C466.777 158.71 466.796 158.829 466.791 158.948Z" fill="#263238"/>
<path d="M459.487 178.961C459.482 179.143 459.423 179.32 459.317 179.469C459.211 179.618 459.064 179.732 458.893 179.797C458.722 179.862 458.535 179.875 458.357 179.834C458.178 179.793 458.016 179.7 457.891 179.567C457.766 179.434 457.683 179.267 457.653 179.087C457.623 178.907 457.648 178.722 457.724 178.556C457.799 178.39 457.923 178.25 458.079 178.154C458.234 178.059 458.415 178.011 458.598 178.018C458.841 178.027 459.07 178.131 459.237 178.307C459.403 178.484 459.493 178.719 459.487 178.961Z" fill="#263238"/>
<path d="M459.361 197.409C459.356 197.528 459.328 197.646 459.278 197.754C459.228 197.863 459.157 197.96 459.069 198.041C458.982 198.123 458.878 198.186 458.766 198.227C458.654 198.269 458.534 198.288 458.414 198.283C458.173 198.275 457.944 198.172 457.778 197.997C457.613 197.821 457.524 197.587 457.532 197.346C457.539 197.105 457.643 196.877 457.819 196.712C457.995 196.547 458.23 196.458 458.472 196.466C458.593 196.469 458.712 196.496 458.822 196.545C458.932 196.594 459.032 196.664 459.114 196.752C459.197 196.84 459.261 196.943 459.304 197.056C459.346 197.169 459.365 197.289 459.361 197.409Z" fill="#263238"/>
<path d="M455.642 216.639C455.638 216.758 455.61 216.876 455.56 216.984C455.51 217.093 455.439 217.19 455.351 217.271C455.263 217.353 455.16 217.416 455.047 217.457C454.935 217.499 454.815 217.518 454.696 217.513C454.454 217.505 454.225 217.402 454.06 217.227C453.894 217.051 453.805 216.817 453.813 216.576C453.821 216.335 453.924 216.107 454.1 215.942C454.277 215.777 454.512 215.688 454.753 215.696C454.874 215.699 454.993 215.726 455.103 215.775C455.214 215.824 455.313 215.894 455.396 215.982C455.478 216.07 455.543 216.173 455.585 216.286C455.627 216.399 455.647 216.519 455.642 216.639Z" fill="#263238"/>
<path d="M451.927 235.869C451.923 235.989 451.895 236.106 451.845 236.215C451.795 236.323 451.724 236.421 451.636 236.502C451.548 236.583 451.445 236.646 451.333 236.688C451.22 236.729 451.101 236.748 450.981 236.743C450.739 236.736 450.51 236.633 450.345 236.457C450.179 236.281 450.09 236.047 450.098 235.806C450.106 235.565 450.209 235.337 450.386 235.172C450.562 235.007 450.797 234.919 451.039 234.926C451.159 234.929 451.278 234.956 451.389 235.005C451.499 235.054 451.598 235.125 451.681 235.213C451.763 235.3 451.828 235.404 451.87 235.516C451.912 235.629 451.932 235.749 451.927 235.869Z" fill="#263238"/>
<path d="M448.213 255.1C448.209 255.282 448.15 255.459 448.044 255.608C447.938 255.757 447.79 255.871 447.619 255.936C447.448 256.001 447.262 256.013 447.083 255.973C446.905 255.932 446.743 255.839 446.617 255.706C446.492 255.573 446.409 255.406 446.379 255.226C446.35 255.046 446.374 254.861 446.45 254.695C446.526 254.529 446.65 254.389 446.805 254.293C446.961 254.197 447.142 254.15 447.325 254.156C447.445 254.159 447.564 254.186 447.675 254.235C447.785 254.285 447.884 254.355 447.967 254.443C448.05 254.531 448.114 254.634 448.156 254.746C448.198 254.859 448.218 254.979 448.213 255.1Z" fill="#263238"/>
<path d="M458.574 179.49C458.421 179.506 458.267 179.462 458.147 179.366C458.027 179.27 457.95 179.13 457.933 178.978C457.916 178.825 457.961 178.672 458.057 178.553C458.154 178.433 458.294 178.356 458.447 178.339L461.228 177.753C461.371 177.725 461.52 177.754 461.643 177.834C461.765 177.913 461.852 178.036 461.886 178.178C461.902 178.25 461.905 178.323 461.892 178.395C461.88 178.467 461.853 178.536 461.813 178.597C461.773 178.658 461.721 178.711 461.66 178.752C461.599 178.792 461.531 178.82 461.459 178.834L458.689 179.432L458.574 179.49Z" fill="#263238"/>
<path d="M467.817 169.253C466.504 172.636 465.391 176.092 464.482 179.605C463.64 183.538 463.594 192.256 463.594 192.256" fill="#263238"/>
<path d="M463.597 192.912C463.45 192.906 463.311 192.844 463.208 192.739C463.105 192.635 463.046 192.495 463.043 192.348C463.043 191.992 463.101 183.469 463.955 179.536C464.858 175.974 465.979 172.471 467.313 169.046C467.338 168.978 467.377 168.916 467.427 168.864C467.477 168.811 467.538 168.769 467.604 168.74C467.671 168.711 467.743 168.696 467.816 168.695C467.889 168.694 467.961 168.708 468.028 168.736C468.098 168.76 468.161 168.798 468.215 168.847C468.269 168.897 468.313 168.957 468.343 169.023C468.373 169.09 468.39 169.162 468.391 169.235C468.392 169.308 468.379 169.381 468.351 169.449C467.047 172.832 465.941 176.289 465.039 179.8C464.22 183.63 464.162 192.302 464.162 192.394C464.151 192.535 464.086 192.667 463.981 192.763C463.876 192.859 463.739 192.912 463.597 192.912Z" fill="#263238"/>
<path d="M259.652 288.844C261.199 263.944 258.348 218.686 305.316 224.678C355.654 231.096 341.252 289.764 341.252 289.764L259.652 288.844Z" fill="#263238"/>
<path d="M292.089 273.881C303.408 273.881 312.584 264.736 312.584 253.455C312.584 242.174 303.408 233.028 292.089 233.028C280.77 233.028 271.594 242.174 271.594 253.455C271.594 264.736 280.77 273.881 292.089 273.881Z" fill="white"/>
<path d="M294.779 233.063C285.073 231.407 274.687 238.549 273.672 245.772L312.158 249.291C310.796 241.056 302.476 234.374 294.779 233.063Z" fill="#263238"/>
<path d="M307.775 252.949C307.498 258.285 304.579 262.483 301.255 262.311C297.932 262.138 295.485 257.71 295.727 252.327C295.97 246.945 298.924 242.804 302.248 242.977C305.571 243.149 308.052 247.612 307.775 252.949Z" fill="#263238"/>
<path d="M292.091 274.997C287.815 274.999 283.635 273.737 280.079 271.372C276.523 269.006 273.751 265.642 272.113 261.706C270.476 257.77 270.046 253.439 270.879 249.259C271.711 245.08 273.769 241.24 276.791 238.226C279.814 235.212 283.665 233.16 287.858 232.327C292.051 231.495 296.398 231.921 300.348 233.551C304.298 235.181 307.675 237.943 310.05 241.485C312.426 245.028 313.694 249.194 313.694 253.455C313.688 259.164 311.41 264.638 307.36 268.676C303.311 272.715 297.819 274.987 292.091 274.997ZM292.091 234.144C288.259 234.144 284.513 235.276 281.326 237.398C278.14 239.52 275.657 242.536 274.19 246.065C272.724 249.593 272.34 253.476 273.087 257.222C273.835 260.968 275.68 264.409 278.39 267.109C281.1 269.81 284.552 271.649 288.311 272.394C292.069 273.139 295.965 272.757 299.506 271.295C303.046 269.834 306.072 267.359 308.201 264.183C310.33 261.007 311.466 257.274 311.466 253.455C311.457 248.336 309.413 243.429 305.781 239.81C302.15 236.19 297.227 234.153 292.091 234.144Z" fill="#0099A0"/>
<path opacity="0.3" d="M335.549 288.223H335.422C335.278 288.185 335.155 288.093 335.078 287.967C335 287.841 334.975 287.689 335.007 287.545C335.007 287.395 338.596 272.328 334.903 257.089C334.868 256.946 334.891 256.794 334.968 256.668C335.045 256.542 335.169 256.451 335.312 256.416C335.456 256.381 335.608 256.405 335.735 256.481C335.861 256.558 335.952 256.681 335.987 256.825C339.75 272.328 336.126 287.66 336.091 287.809C336.06 287.929 335.99 288.034 335.892 288.11C335.794 288.185 335.673 288.225 335.549 288.223Z" fill="white"/>
<path opacity="0.3" d="M332.446 248.739C332.339 248.742 332.233 248.712 332.143 248.655C332.053 248.598 331.981 248.515 331.938 248.417C330.54 245.369 328.761 242.509 326.641 239.906C326.552 239.79 326.511 239.645 326.526 239.499C326.541 239.354 326.611 239.22 326.722 239.124C326.779 239.078 326.844 239.043 326.914 239.022C326.984 239.001 327.058 238.993 327.131 239.001C327.204 239.008 327.275 239.03 327.339 239.065C327.404 239.1 327.461 239.148 327.507 239.205C329.689 241.879 331.52 244.82 332.953 247.957C333.013 248.092 333.017 248.244 332.965 248.381C332.913 248.519 332.81 248.631 332.677 248.693C332.603 248.724 332.525 248.74 332.446 248.739Z" fill="white"/>
<path d="M155.156 405.64H154.741C154.009 405.62 153.288 405.456 152.619 405.158C151.951 404.86 151.348 404.434 150.845 403.904C150.342 403.373 149.948 402.75 149.687 402.068C149.426 401.386 149.302 400.66 149.322 399.93C149.343 399.201 149.507 398.482 149.806 397.816C150.105 397.15 150.533 396.549 151.065 396.047C151.597 395.546 152.223 395.154 152.907 394.894C153.591 394.633 154.32 394.51 155.052 394.53H155.156C158.376 394.53 166.13 390.631 182.344 365.156C182.773 364.478 183.343 363.901 184.017 363.464C184.69 363.028 185.451 362.741 186.246 362.625C187.041 362.51 187.852 362.567 188.622 362.793C189.393 363.02 190.106 363.41 190.711 363.937C203.444 374.852 217.336 384.347 232.139 392.253C233.458 392.919 234.458 394.081 234.918 395.482C235.378 396.883 235.26 398.408 234.592 399.723C233.923 401.038 232.757 402.034 231.352 402.492C229.946 402.951 228.415 402.834 227.096 402.167C213.345 394.879 200.346 386.262 188.287 376.439C174.693 396.796 164.607 405.64 155.156 405.64Z" fill="#263238"/>
<path d="M189.662 362.936C189.501 362.947 189.339 362.947 189.178 362.936C188.301 362.808 187.51 362.339 186.978 361.633C186.447 360.926 186.217 360.038 186.339 359.163C187.135 353.631 186.154 332.894 179.126 316.781C178.811 316.073 178.754 315.278 178.965 314.532C179.175 313.787 179.641 313.138 180.28 312.698C195.559 302.347 228.102 301.082 229.475 301.024C229.915 301.009 230.353 301.08 230.765 301.234C231.177 301.388 231.554 301.621 231.875 301.92C232.197 302.219 232.456 302.578 232.638 302.977C232.821 303.376 232.922 303.807 232.937 304.245C232.952 304.683 232.881 305.119 232.727 305.53C232.572 305.94 232.339 306.316 232.039 306.637C231.739 306.957 231.378 307.216 230.978 307.397C230.578 307.579 230.146 307.68 229.706 307.695C229.406 307.695 200.96 308.788 186.339 316.816C192.57 332.86 193.978 352.861 192.94 360.107C192.824 360.891 192.429 361.608 191.828 362.127C191.226 362.646 190.458 362.933 189.662 362.936Z" fill="#263238"/>
<path d="M195.281 358.623C193.054 353.39 183.026 354.022 177.14 358.473C173.99 360.866 169.732 368.077 169.282 370.688C169.148 371.314 169.17 371.962 169.344 372.578C169.518 373.194 169.84 373.758 170.282 374.222C170.724 374.686 171.272 375.036 171.88 375.242C172.488 375.448 173.137 375.503 173.771 375.403C177.613 375.07 182.887 369.503 182.887 369.503C179.425 372.954 183.914 375.357 190.677 370.389C194.427 367.64 197.774 364.477 195.281 358.623Z" fill="#0099A0"/>
<path d="M387.101 290.317H386.951C386.808 290.276 386.686 290.181 386.613 290.052C386.539 289.923 386.52 289.77 386.559 289.627C388.047 284.474 389.675 281.323 391.809 279.574C391.47 278.381 391.527 277.11 391.971 275.951C392.501 274.577 393.444 273.4 394.671 272.582C394.346 272.232 394.115 271.806 394 271.343C393.885 270.881 393.89 270.397 394.014 269.936C394.421 268.565 395.253 267.357 396.391 266.486C395.983 266.021 395.758 265.424 395.756 264.807C395.756 261.494 401.907 256.445 408.877 255.502C408.95 255.489 409.024 255.491 409.095 255.508C409.167 255.525 409.234 255.557 409.293 255.601C409.351 255.646 409.4 255.702 409.436 255.766C409.472 255.83 409.494 255.901 409.5 255.974C409.52 256.119 409.481 256.265 409.393 256.382C409.304 256.498 409.172 256.575 409.027 256.595C402.403 257.503 396.852 262.276 396.876 264.807C396.873 264.992 396.908 265.176 396.977 265.347C397.047 265.519 397.149 265.675 397.279 265.807C398.784 264.789 400.479 264.081 402.262 263.726C404.046 263.37 405.883 263.374 407.665 263.737C411.127 264.381 412.478 265.106 412.281 266.141C411.981 268.096 404.688 268.499 399.807 267.912C398.93 267.836 398.077 267.594 397.291 267.199C396.257 267.955 395.489 269.018 395.098 270.235C395.005 270.559 395.008 270.903 395.106 271.225C395.204 271.548 395.394 271.835 395.652 272.053C397.718 270.983 400.638 270.546 404.48 271.385C409.535 272.536 409.731 273.111 409.847 273.479C409.886 273.607 409.889 273.743 409.857 273.872C409.824 274.002 409.757 274.12 409.662 274.215C408.6 275.365 400.845 274.813 396.968 273.858C396.502 273.748 396.052 273.578 395.629 273.352C394.479 274.055 393.592 275.113 393.102 276.366C392.789 277.182 392.701 278.068 392.848 278.93C393.05 278.808 393.258 278.697 393.471 278.597C395.779 277.447 398.56 277.688 401.999 279.16C404.307 280.126 405.381 280.989 405.461 281.863C405.477 282.095 405.425 282.327 405.313 282.531C405.2 282.734 405.031 282.902 404.827 283.013C403.13 284.163 397.164 283.968 394.071 282.323C393.354 281.943 392.758 281.369 392.352 280.667C390.529 282.335 389.063 285.268 387.736 289.96C387.691 290.086 387.602 290.191 387.486 290.257C387.369 290.323 387.232 290.344 387.101 290.317ZM393.148 279.965C393.459 280.541 393.933 281.012 394.51 281.323C397.026 282.657 401.976 282.956 403.834 282.208C404.215 282.059 404.273 281.932 404.273 281.932C404.273 281.932 404.215 281.311 401.48 280.138C398.353 278.815 395.86 278.62 393.864 279.563C393.621 279.666 393.379 279.793 393.148 279.942V279.965ZM396.864 272.662L397.153 272.743C400.781 273.58 404.517 273.859 408.231 273.571C406.917 273.071 405.561 272.686 404.18 272.421C401.773 271.776 399.228 271.852 396.864 272.639V272.662ZM398.272 266.417C398.791 266.598 399.329 266.718 399.876 266.773C405.438 267.429 410.343 266.658 411.07 265.968C410.885 265.796 410.135 265.324 407.365 264.818C404.243 264.174 400.992 264.737 398.272 266.394V266.417Z" fill="#263238"/>
<path d="M241.917 403.789C242.655 403.559 242.401 402.846 241.582 402.846H226.488C197.73 399.809 177.65 403.881 190.298 404.835C202.946 405.79 189.41 405.594 180.166 409.079C170.923 412.564 248.933 413.45 256.019 409.079C262.562 405.054 231.727 407.043 241.917 403.789Z" fill="#263238"/>
<path d="M350.033 408.228L218.65 403.881L213.203 276.917L368.347 280.379L350.033 408.228Z" fill="#0099A0"/>
<path d="M259.65 405.79C259.511 405.791 259.377 405.739 259.274 405.645C259.172 405.551 259.108 405.422 259.096 405.284L248.56 277.769C248.548 277.616 248.597 277.465 248.697 277.349C248.796 277.232 248.938 277.16 249.091 277.148C249.244 277.135 249.396 277.184 249.513 277.283C249.63 277.383 249.702 277.524 249.714 277.677L260.227 405.192C260.234 405.264 260.226 405.338 260.203 405.407C260.181 405.476 260.146 405.541 260.098 405.596C260.051 405.652 259.993 405.698 259.928 405.731C259.863 405.764 259.792 405.784 259.72 405.79H259.65Z" fill="#263238"/>
<path d="M350.031 408.228L385.344 402.869L396.468 284.807L368.345 280.379L350.031 408.228Z" fill="#407BFF"/>
<path opacity="0.2" d="M350.031 408.228L385.344 402.869L396.468 284.807L368.345 280.379L350.031 408.228Z" fill="black"/>
<path d="M229.88 379.406L226.637 303.98C226.558 302.117 226.863 300.257 227.533 298.515C228.204 296.774 229.226 295.188 230.535 293.856C231.845 292.523 233.415 291.473 235.148 290.769C236.882 290.065 238.741 289.724 240.612 289.765L338.829 291.95C340.763 291.994 342.665 292.446 344.411 293.276C346.156 294.106 347.705 295.296 348.956 296.766C350.207 298.236 351.13 299.954 351.666 301.806C352.202 303.658 352.338 305.603 352.066 307.511L341.172 383.535C340.696 386.861 339.003 389.895 336.42 392.054C333.836 394.213 330.543 395.345 327.174 395.232L243.093 392.46C239.646 392.342 236.371 390.932 233.922 388.512C231.472 386.092 230.029 382.84 229.88 379.406Z" fill="#263238"/>
<path d="M240.483 312.905L255.681 313.388L255.554 317.299L246.046 317L245.953 319.898L254.781 320.185L254.654 323.912L245.838 323.636L245.722 327.236L255.508 327.546L255.37 331.687L239.906 331.192L240.483 312.905Z" fill="white"/>
<path d="M258.496 331.79L259.085 313.503L268.536 313.802C269.892 313.795 271.241 313.989 272.54 314.377C273.442 314.695 274.211 315.307 274.721 316.114C275.215 316.963 275.475 317.927 275.475 318.909C275.475 319.89 275.215 320.854 274.721 321.704C274.261 322.427 273.626 323.024 272.875 323.44C272.24 323.763 271.559 323.984 270.855 324.096C271.371 324.27 271.86 324.514 272.309 324.821C272.64 325.115 272.934 325.447 273.187 325.81C273.474 326.17 273.729 326.555 273.948 326.96L276.522 332.342L270.117 332.147L267.267 326.465C267.041 325.921 266.707 325.429 266.286 325.016C265.888 324.721 265.408 324.557 264.912 324.544H264.405L264.174 331.963L258.496 331.79ZM264.543 321.094L266.932 321.163C267.441 321.143 267.947 321.078 268.444 320.968C268.813 320.905 269.146 320.709 269.378 320.415C269.628 320.123 269.767 319.753 269.771 319.369C269.796 319.115 269.762 318.858 269.672 318.619C269.582 318.379 269.438 318.164 269.251 317.989C268.627 317.589 267.891 317.399 267.151 317.448L264.658 317.368L264.543 321.094Z" fill="white"/>
<path d="M278.438 332.388L279.026 314.101L288.477 314.4C289.83 314.393 291.175 314.587 292.47 314.975C293.377 315.29 294.151 315.902 294.663 316.712C295.229 317.616 295.496 318.674 295.424 319.737C295.426 320.625 295.186 321.497 294.731 322.26C294.276 323.023 293.623 323.65 292.839 324.073C292.205 324.396 291.523 324.617 290.82 324.729C291.335 324.903 291.825 325.147 292.274 325.453C292.604 325.747 292.899 326.079 293.151 326.442C293.438 326.802 293.693 327.187 293.913 327.592L296.486 332.975L290.081 332.779L287.231 327.098C287 326.557 286.667 326.065 286.25 325.649C285.848 325.354 285.364 325.189 284.865 325.177H284.369L284.138 332.595L278.438 332.388ZM284.484 321.692L286.873 321.761C287.382 321.741 287.888 321.676 288.385 321.566C288.753 321.5 289.085 321.304 289.32 321.014C289.565 320.719 289.703 320.35 289.712 319.967C289.732 319.713 289.695 319.458 289.606 319.22C289.516 318.981 289.375 318.765 289.193 318.587C288.569 318.187 287.833 317.998 287.093 318.046L284.6 317.966L284.484 321.692Z" fill="white"/>
<path d="M297.444 323.878C297.353 322.599 297.549 321.316 298.016 320.121C298.483 318.927 299.21 317.851 300.145 316.97C301.08 316.09 302.2 315.428 303.423 315.031C304.646 314.634 305.943 314.513 307.218 314.676C308.493 314.643 309.762 314.863 310.951 315.323C312.139 315.783 313.224 316.474 314.142 317.356C314.978 318.29 315.613 319.383 316.01 320.57C316.407 321.756 316.557 323.011 316.45 324.257C316.464 326.074 316.032 327.866 315.193 329.479C314.451 330.809 313.325 331.887 311.961 332.573C310.362 333.333 308.594 333.67 306.826 333.55C305.061 333.554 303.317 333.161 301.725 332.4C300.359 331.671 299.245 330.549 298.529 329.18C297.698 327.541 297.323 325.71 297.444 323.878ZM303.11 324.085C302.94 325.486 303.258 326.903 304.01 328.098C304.362 328.49 304.789 328.806 305.267 329.029C305.744 329.252 306.261 329.377 306.788 329.396C307.314 329.416 307.84 329.329 308.332 329.142C308.824 328.954 309.274 328.67 309.653 328.306C310.495 327.064 310.901 325.58 310.807 324.085C310.962 322.745 310.63 321.395 309.873 320.278C309.532 319.871 309.104 319.544 308.621 319.321C308.138 319.098 307.612 318.985 307.08 318.989C306.558 318.958 306.035 319.046 305.551 319.245C305.067 319.444 304.635 319.75 304.287 320.14C303.451 321.281 303.036 322.674 303.11 324.085Z" fill="white"/>
<path d="M319.289 333.711L319.878 315.424L329.329 315.723C330.682 315.718 332.028 315.916 333.322 316.309C334.228 316.62 335.001 317.228 335.514 318.035C336.072 318.929 336.338 319.974 336.276 321.025C336.266 321.945 336.012 322.846 335.537 323.636C335.077 324.359 334.442 324.956 333.691 325.372C333.057 325.695 332.375 325.917 331.671 326.028C332.633 326.283 333.459 326.897 333.979 327.742C334.269 328.1 334.524 328.485 334.741 328.892L337.315 334.275L330.91 334.067L328.059 328.386C327.833 327.846 327.499 327.357 327.079 326.948C326.681 326.645 326.194 326.48 325.694 326.477H325.198L324.967 333.895L319.289 333.711ZM325.336 323.015L327.725 323.095C328.234 323.075 328.741 323.006 329.237 322.888C329.605 322.832 329.939 322.639 330.171 322.348C330.447 321.996 330.586 321.557 330.563 321.111C330.54 320.665 330.356 320.242 330.044 319.921C329.42 319.521 328.684 319.332 327.944 319.38L325.451 319.3L325.336 323.015Z" fill="white"/>
<path d="M328.316 364.788C328.113 364.787 327.912 364.745 327.725 364.664C327.538 364.583 327.371 364.464 327.232 364.316L317.688 353.896L307.383 363.281C307.095 363.538 306.717 363.672 306.331 363.655C305.945 363.638 305.581 363.471 305.317 363.189L295.774 352.769L285.468 362.154C285.18 362.411 284.803 362.545 284.417 362.528C284.031 362.511 283.666 362.343 283.403 362.062L273.859 351.642L263.554 361.027C263.413 361.157 263.248 361.258 263.068 361.323C262.887 361.388 262.695 361.416 262.504 361.406C262.311 361.401 262.122 361.357 261.947 361.275C261.772 361.194 261.616 361.078 261.488 360.935L251.933 350.526L241.639 359.9C241.349 360.13 240.982 360.242 240.611 360.212C240.241 360.183 239.896 360.015 239.646 359.742C239.395 359.469 239.258 359.111 239.262 358.741C239.266 358.371 239.41 358.017 239.666 357.749L251.045 347.398C251.186 347.267 251.351 347.167 251.532 347.101C251.713 347.035 251.905 347.005 252.097 347.014C252.289 347.022 252.477 347.069 252.651 347.151C252.825 347.232 252.981 347.347 253.11 347.49L262.665 357.898L272.959 348.513C273.249 348.26 273.624 348.124 274.009 348.134C274.396 348.154 274.76 348.323 275.025 348.605L284.58 359.025L294.874 349.64C295.163 349.383 295.543 349.248 295.931 349.265C296.319 349.282 296.685 349.45 296.951 349.732L306.494 360.153L316.799 350.768C317.086 350.508 317.464 350.371 317.851 350.389C318.239 350.406 318.603 350.575 318.865 350.86L329.401 362.361C329.594 362.57 329.722 362.831 329.769 363.111C329.815 363.392 329.779 363.68 329.664 363.94C329.548 364.2 329.36 364.421 329.12 364.575C328.881 364.73 328.602 364.812 328.316 364.811V364.788Z" fill="white"/>
<path d="M153.114 410.379L146.64 406.848L139.82 376.91L142.751 373.391L153.114 410.379Z" fill="#0099A0"/>
<path d="M153.113 410.379L161.318 405.433L153.148 380.648L142.75 373.391L153.113 410.379Z" fill="#407BFF"/>
<path opacity="0.2" d="M153.113 410.379L161.318 405.433L153.148 380.648L142.75 373.391L153.113 410.379Z" fill="black"/>
<path d="M303.725 416.417H302.951C301.473 416.376 300.072 415.751 299.056 414.68C298.04 413.609 297.492 412.18 297.533 410.707C297.575 409.233 298.202 407.837 299.276 406.824C300.351 405.811 301.785 405.266 303.263 405.307C311.849 405.583 330.036 400.327 340.422 390.275C341.07 389.649 341.863 389.191 342.73 388.94C360.328 383.673 366.883 394.312 367.16 394.772L357.559 400.43C357.596 400.498 357.639 400.564 357.686 400.626C357.582 400.476 355.089 397.244 347.15 399.246C334.086 411.092 314.076 416.417 303.725 416.417Z" fill="#263238"/>
<path d="M303.11 423.801L282.799 422.524L281.195 385.203L308.487 386.226L303.11 423.801Z" fill="#0099A0"/>
<path d="M303.113 423.801L307.856 419.085L310.799 395.818L308.491 386.226L303.113 423.801Z" fill="#407BFF"/>
<path opacity="0.2" d="M303.113 423.801L307.856 419.085L310.799 395.818L308.491 386.226L303.113 423.801Z" fill="black"/>
<path d="M420.785 409.666C420.055 409.668 419.345 409.43 418.766 408.987C407.168 400.246 391.497 384.616 385.438 369.572C385.354 369.353 385.292 369.125 385.254 368.894C382.323 351.515 379.484 314.941 379.403 313.388C379.354 312.943 379.395 312.493 379.524 312.065C379.653 311.636 379.867 311.238 380.154 310.894C380.441 310.549 380.794 310.266 381.193 310.06C381.592 309.855 382.028 309.732 382.475 309.698C382.923 309.664 383.373 309.72 383.798 309.863C384.224 310.006 384.616 310.232 384.952 310.53C385.287 310.827 385.56 311.188 385.752 311.592C385.945 311.996 386.054 312.435 386.073 312.882C386.073 313.262 388.923 350.192 391.843 367.433C397.844 382.051 414.104 397.072 422.828 403.674C423.387 404.096 423.798 404.683 424.004 405.352C424.21 406.02 424.2 406.736 423.975 407.398C423.751 408.06 423.323 408.636 422.753 409.042C422.183 409.449 421.498 409.668 420.797 409.666H420.785Z" fill="#263238"/>
<path d="M436.215 411.357C433.63 411.357 430.699 410.206 427.503 407.906C426.783 407.388 426.3 406.605 426.159 405.732C426.019 404.858 426.232 403.965 426.752 403.248C427.273 402.531 428.057 402.05 428.934 401.91C429.81 401.769 430.707 401.982 431.426 402.5C434.184 404.49 435.696 404.709 436.215 404.709C437.103 404.709 437.954 405.06 438.582 405.686C439.209 406.311 439.562 407.16 439.562 408.044C439.562 408.929 439.209 409.777 438.582 410.403C437.954 411.028 437.103 411.38 436.215 411.38V411.357Z" fill="#263238"/>
<path d="M428.472 407.78C432.049 397.187 446.728 399.28 451.783 400.879C456.107 402.135 460.255 403.928 464.13 406.215C466.865 407.998 466.912 410.977 463.265 412.679C458.764 414.772 447.467 412.921 447.467 412.921C453.317 415.462 447.467 419.557 437.208 415.543C433.907 414.209 427.214 411.667 428.472 407.78Z" fill="#0099A0"/>
<path d="M392.847 317.966C391.52 326.971 384.042 333.607 377.949 332.722C371.855 331.836 371.613 323.785 372.94 314.78C374.267 305.774 376.679 299.218 382.761 300.104C388.842 300.99 394.174 308.96 392.847 317.966Z" fill="#263238"/>
<path d="M245.654 282.013C246.157 282.013 246.566 281.606 246.566 281.104C246.566 280.602 246.157 280.195 245.654 280.195C245.15 280.195 244.742 280.602 244.742 281.104C244.742 281.606 245.15 282.013 245.654 282.013Z" fill="#263238"/>
<path d="M254.944 287.671C254.942 287.851 254.887 288.025 254.785 288.173C254.684 288.321 254.54 288.436 254.374 288.503C254.207 288.57 254.024 288.586 253.848 288.55C253.672 288.513 253.51 288.426 253.384 288.298C253.258 288.171 253.172 288.009 253.138 287.833C253.104 287.657 253.122 287.475 253.192 287.31C253.261 287.144 253.378 287.003 253.527 286.904C253.677 286.804 253.853 286.751 254.033 286.751C254.276 286.754 254.507 286.853 254.678 287.025C254.849 287.197 254.944 287.429 254.944 287.671Z" fill="#263238"/>
<path d="M255.971 395.381C255.974 395.564 255.921 395.743 255.821 395.896C255.721 396.048 255.578 396.168 255.409 396.24C255.241 396.311 255.055 396.331 254.875 396.297C254.695 396.262 254.53 396.176 254.4 396.048C254.269 395.919 254.18 395.755 254.144 395.577C254.107 395.398 254.125 395.212 254.194 395.043C254.264 394.875 254.382 394.73 254.534 394.629C254.686 394.527 254.865 394.473 255.048 394.473C255.169 394.471 255.289 394.494 255.401 394.539C255.513 394.584 255.614 394.65 255.7 394.735C255.786 394.819 255.854 394.92 255.901 395.031C255.947 395.142 255.971 395.261 255.971 395.381Z" fill="#263238"/>
<path d="M264.35 401.937C264.353 402.119 264.3 402.298 264.2 402.451C264.1 402.604 263.957 402.724 263.788 402.795C263.62 402.867 263.434 402.887 263.254 402.852C263.074 402.818 262.909 402.731 262.778 402.603C262.648 402.475 262.559 402.311 262.523 402.132C262.486 401.954 262.504 401.768 262.573 401.599C262.643 401.43 262.761 401.286 262.913 401.184C263.065 401.083 263.244 401.028 263.427 401.028C263.548 401.027 263.668 401.049 263.779 401.094C263.891 401.139 263.993 401.206 264.079 401.29C264.165 401.375 264.233 401.476 264.28 401.587C264.326 401.698 264.35 401.817 264.35 401.937Z" fill="#263238"/>
<path d="M103.606 412.898C102 412.82 100.432 412.384 99.0164 411.624C97.6008 410.864 96.3735 409.798 95.4244 408.504C95.3825 408.445 95.3529 408.378 95.3372 408.307C95.3215 408.236 95.32 408.162 95.3329 408.09C95.3458 408.019 95.3727 407.951 95.4122 407.889C95.4516 407.828 95.5029 407.775 95.5629 407.734C95.6221 407.691 95.6896 407.66 95.7611 407.643C95.8327 407.627 95.9069 407.625 95.9791 407.638C96.0514 407.651 96.1204 407.678 96.1817 407.718C96.2431 407.759 96.2956 407.811 96.3361 407.872C98.4248 410.862 103.006 412.472 105.049 411.518C105.244 411.424 105.42 411.295 105.568 411.138C104.553 410.693 103.663 410.007 102.976 409.138C102.29 408.27 101.829 407.246 101.633 406.158C101.379 404.755 101.183 402.846 102.348 402.581C103.952 402.225 106.041 406.032 106.849 408.999C106.994 409.483 107.041 409.992 106.987 410.494C107.635 410.681 108.314 410.735 108.984 410.655C109.283 410.629 109.574 410.542 109.838 410.4C110.102 410.257 110.333 410.063 110.519 409.827C109.783 409.276 109.174 408.577 108.73 407.774C108.287 406.971 108.019 406.083 107.945 405.169C107.507 402.133 107.841 401.604 108.176 401.339C108.283 401.257 108.41 401.205 108.544 401.189C108.678 401.173 108.814 401.193 108.938 401.247C110.092 401.753 111.58 406.066 111.857 408.504C111.886 408.764 111.886 409.027 111.857 409.287C112.337 409.467 112.845 409.564 113.358 409.574C114.303 409.608 115.238 409.364 116.046 408.873L115.596 408.55C114.442 407.561 113.981 405.986 114.177 403.731C114.327 401.983 114.719 401.04 115.423 400.741C115.649 400.648 115.898 400.624 116.138 400.671C116.378 400.718 116.599 400.834 116.773 401.006C117.526 401.834 118.088 402.815 118.421 403.882C118.754 404.948 118.849 406.075 118.701 407.182C118.607 407.643 118.414 408.079 118.135 408.458C120.635 408.64 123.146 408.359 125.544 407.63C125.616 407.608 125.692 407.6 125.767 407.607C125.843 407.615 125.916 407.638 125.982 407.675C126.048 407.712 126.106 407.762 126.152 407.822C126.198 407.882 126.231 407.951 126.249 408.024C126.267 408.097 126.27 408.174 126.257 408.248C126.245 408.323 126.217 408.394 126.176 408.457C126.135 408.52 126.081 408.575 126.018 408.616C125.955 408.658 125.884 408.687 125.809 408.7C122.797 409.448 119.543 410.057 117.247 409.39C116.123 410.243 114.746 410.696 113.334 410.678C112.712 410.671 112.096 410.558 111.511 410.345C111.256 410.736 110.916 411.066 110.517 411.311C110.118 411.556 109.669 411.709 109.203 411.759C108.366 411.858 107.517 411.784 106.711 411.541C106.431 411.976 106.03 412.32 105.557 412.53C104.94 412.79 104.275 412.916 103.606 412.898ZM102.637 403.697C102.486 404.46 102.517 405.248 102.729 405.997C102.889 406.888 103.261 407.727 103.813 408.446C104.365 409.164 105.082 409.74 105.903 410.126C105.886 409.857 105.84 409.591 105.764 409.333C104.899 406.101 103.225 403.915 102.637 403.697ZM108.857 402.719C108.857 403.49 108.923 404.26 109.053 405.02C109.191 406.371 109.804 407.63 110.784 408.573C110.496 406.516 109.843 404.526 108.857 402.696V402.719ZM115.873 401.753C115.873 401.753 115.458 401.972 115.296 403.823C115.135 405.675 115.469 406.963 116.335 407.699C116.537 407.871 116.762 408.015 117.004 408.125C117.311 407.805 117.523 407.407 117.616 406.975C117.817 405.224 117.338 403.463 116.277 402.052C116.177 401.908 116.037 401.796 115.873 401.73V401.753Z" fill="#263238"/>
<path d="M266.84 421.271L269.852 416.049L266.84 410.828H263.598L265.433 416.049L263.598 421.271H266.84Z" fill="#263238"/>
<path d="M263.817 418.775C263.444 418.799 263.069 418.747 262.717 418.621C262.365 418.496 262.042 418.299 261.769 418.044C261.497 417.789 261.279 417.481 261.13 417.139C260.981 416.797 260.905 416.428 260.905 416.055C260.905 415.682 260.981 415.313 261.13 414.971C261.279 414.629 261.497 414.321 261.769 414.066C262.042 413.811 262.365 413.615 262.717 413.489C263.069 413.363 263.444 413.311 263.817 413.335L258.67 412.312L257.309 416.452L259.617 419.902L263.817 418.775Z" fill="#263238"/>
<path d="M264.266 410.828H258.207L255.184 416.049L258.207 421.271H264.266L267.289 416.049L264.266 410.828ZM261.242 418.775C260.701 418.778 260.171 418.62 259.719 418.322C259.268 418.023 258.916 417.598 258.707 417.101C258.498 416.603 258.442 416.054 258.547 415.525C258.651 414.995 258.911 414.508 259.293 414.126C259.675 413.744 260.162 413.483 260.693 413.377C261.224 413.271 261.774 413.324 262.274 413.53C262.775 413.736 263.203 414.085 263.504 414.534C263.805 414.982 263.966 415.51 263.966 416.049C263.962 416.771 263.673 417.463 263.161 417.974C262.649 418.484 261.955 418.772 261.231 418.775H261.242Z" fill="#407BFF"/>
<path d="M477.641 410.471L475.391 406.595L477.641 402.719H480.041L478.679 406.595L480.041 410.471H477.641Z" fill="#407BFF"/>
<path d="M479.879 408.62C480.158 408.641 480.438 408.604 480.702 408.512C480.966 408.42 481.208 408.275 481.413 408.085C481.618 407.896 481.781 407.666 481.893 407.411C482.005 407.155 482.063 406.88 482.063 406.601C482.063 406.322 482.005 406.047 481.893 405.791C481.781 405.536 481.618 405.306 481.413 405.117C481.208 404.927 480.966 404.782 480.702 404.69C480.438 404.598 480.158 404.562 479.879 404.583L483.699 403.823L484.714 406.894L483.006 409.448L479.879 408.62Z" fill="#407BFF"/>
<path d="M479.555 402.719H484.056L486.294 406.595L484.056 410.471H479.555L477.305 406.595L479.555 402.719ZM481.794 408.619C482.196 408.622 482.59 408.505 482.925 408.284C483.261 408.063 483.523 407.748 483.678 407.378C483.834 407.008 483.876 406.601 483.799 406.207C483.722 405.814 483.529 405.452 483.246 405.168C482.962 404.884 482.6 404.69 482.206 404.611C481.812 404.532 481.403 404.571 481.031 404.724C480.659 404.877 480.341 405.136 480.117 405.469C479.894 405.803 479.774 406.194 479.774 406.595C479.774 407.13 479.987 407.643 480.365 408.022C480.743 408.402 481.257 408.616 481.794 408.619Z" fill="#263238"/>
<path d="M394.057 415.624H399.1C399.732 415.621 400.338 415.369 400.786 414.923C401.233 414.477 401.485 413.874 401.489 413.243C401.482 412.615 401.228 412.014 400.781 411.57C400.334 411.127 399.73 410.877 399.1 410.874H394.057C393.425 410.874 392.819 411.123 392.372 411.567C391.924 412.011 391.671 412.614 391.668 413.243C391.668 413.874 391.92 414.48 392.368 414.927C392.816 415.373 393.423 415.624 394.057 415.624Z" fill="#263238"/>
<path d="M386.012 411.138C386.484 410.295 387.193 409.607 388.052 409.16C388.91 408.713 389.882 408.525 390.846 408.62C391.81 408.716 392.726 409.09 393.48 409.696C394.234 410.303 394.793 411.116 395.09 412.035C395.387 412.955 395.408 413.94 395.15 414.871C394.892 415.803 394.367 416.638 393.64 417.276C392.912 417.914 392.013 418.326 391.054 418.461C390.094 418.597 389.116 418.45 388.239 418.039C387.636 417.734 387.1 417.312 386.662 416.8C386.223 416.287 385.891 415.692 385.684 415.051C385.477 414.409 385.399 413.733 385.455 413.062C385.512 412.39 385.701 411.737 386.012 411.138Z" fill="#407BFF"/>
<path d="M387.384 418.012L388.762 418.659L393.564 408.506L392.187 407.858L387.384 418.012Z" fill="#263238"/>
</svg>
