<svg width="34" height="34" viewBox="0 0 34 34" fill="none" xmlns="http://www.w3.org/2000/svg">
<path d="M10.5102 7.00034C10.2158 6.99387 9.92672 7.07921 9.68312 7.24463C9.43951 7.41005 9.2535 7.64737 9.15094 7.9234C9.04839 8.19942 9.03438 8.5005 9.11087 8.78485C9.18736 9.0692 9.35055 9.32254 9.57774 9.50986L18.2465 16.9363L9.57774 24.3601C9.42058 24.4756 9.28896 24.6222 9.19113 24.791C9.09329 24.9597 9.03135 25.1469 9.00918 25.3407C8.98701 25.5344 9.00509 25.7307 9.06229 25.9171C9.11949 26.1036 9.21457 26.2763 9.34158 26.4243C9.46859 26.5724 9.6248 26.6924 9.80042 26.7773C9.97604 26.8621 10.1673 26.9098 10.3622 26.9173C10.5571 26.9248 10.7514 26.8921 10.9331 26.8211C11.1147 26.75 11.2797 26.6422 11.4178 26.5044L21.3427 18.0126C21.4986 17.8796 21.6237 17.7145 21.7096 17.5284C21.7954 17.3424 21.8398 17.1399 21.8398 16.935C21.8398 16.7301 21.7954 16.5276 21.7096 16.3415C21.6237 16.1554 21.4986 15.9902 21.3427 15.8572L11.4178 7.35721C11.167 7.13451 10.8454 7.00823 10.5102 7.00034Z" fill="white"/>
</svg>
