<svg width="349" height="80" viewBox="0 0 349 80" fill="none" xmlns="http://www.w3.org/2000/svg">
<path d="M0 15C0 6.71573 6.71573 0 15 0H334C342.284 0 349 6.71573 349 15V65C349 73.2843 342.284 80 334 80H15C6.71573 80 0 73.2843 0 65V15Z" fill="#03979B"/>
<path d="M111.326 35.216C109.418 35.216 107.84 34.586 106.592 33.326C105.344 32.066 104.72 30.524 104.72 28.7C104.72 26.876 105.344 25.334 106.592 24.074C107.84 22.814 109.418 22.184 111.326 22.184C112.49 22.184 113.558 22.466 114.53 23.03C115.502 23.582 116.252 24.332 116.78 25.28L115.664 25.928C115.268 25.16 114.68 24.548 113.9 24.092C113.12 23.636 112.262 23.408 111.326 23.408C109.754 23.408 108.47 23.918 107.474 24.938C106.478 25.958 105.98 27.212 105.98 28.7C105.98 30.188 106.478 31.442 107.474 32.462C108.47 33.482 109.754 33.992 111.326 33.992C112.262 33.992 113.12 33.764 113.9 33.308C114.68 32.852 115.268 32.24 115.664 31.472L116.78 32.102C116.264 33.05 115.514 33.806 114.53 34.37C113.558 34.934 112.49 35.216 111.326 35.216ZM126.126 33.866C125.214 34.766 124.098 35.216 122.778 35.216C121.458 35.216 120.336 34.766 119.412 33.866C118.5 32.954 118.044 31.832 118.044 30.5C118.044 29.168 118.5 28.052 119.412 27.152C120.336 26.24 121.458 25.784 122.778 25.784C124.098 25.784 125.214 26.24 126.126 27.152C127.05 28.052 127.512 29.168 127.512 30.5C127.512 31.832 127.05 32.954 126.126 33.866ZM120.258 33.038C120.942 33.722 121.782 34.064 122.778 34.064C123.774 34.064 124.614 33.722 125.298 33.038C125.982 32.342 126.324 31.496 126.324 30.5C126.324 29.504 125.982 28.664 125.298 27.98C124.614 27.284 123.774 26.936 122.778 26.936C121.782 26.936 120.942 27.284 120.258 27.98C119.574 28.664 119.232 29.504 119.232 30.5C119.232 31.496 119.574 32.342 120.258 33.038ZM133.712 25.784C134.804 25.784 135.662 26.12 136.286 26.792C136.922 27.452 137.24 28.346 137.24 29.474V35H136.052V29.474C136.052 28.67 135.836 28.046 135.404 27.602C134.984 27.158 134.384 26.936 133.604 26.936C132.74 26.936 132.038 27.212 131.498 27.764C130.958 28.304 130.688 29.144 130.688 30.284V35H129.5V26H130.688V27.404C131.36 26.324 132.368 25.784 133.712 25.784ZM144.307 27.152H141.715V32.606C141.715 33.098 141.811 33.452 142.003 33.668C142.195 33.872 142.483 33.98 142.867 33.992C143.251 33.992 143.731 33.98 144.307 33.956V35C143.047 35.192 142.099 35.102 141.463 34.73C140.839 34.358 140.527 33.65 140.527 32.606V27.152H138.637V26H140.527V23.84L141.715 23.48V26H144.307V27.152ZM151.952 22.4L150.224 24.74H149.072L150.512 22.4H151.952ZM153.482 26H154.67V35H153.482V33.236C152.654 34.556 151.442 35.216 149.846 35.216C148.562 35.216 147.464 34.76 146.552 33.848C145.652 32.936 145.202 31.82 145.202 30.5C145.202 29.18 145.652 28.064 146.552 27.152C147.464 26.24 148.562 25.784 149.846 25.784C151.442 25.784 152.654 26.444 153.482 27.764V26ZM147.416 33.038C148.1 33.722 148.94 34.064 149.936 34.064C150.932 34.064 151.772 33.722 152.456 33.038C153.14 32.342 153.482 31.496 153.482 30.5C153.482 29.504 153.14 28.664 152.456 27.98C151.772 27.284 150.932 26.936 149.936 26.936C148.94 26.936 148.1 27.284 147.416 27.98C146.732 28.664 146.39 29.504 146.39 30.5C146.39 31.496 146.732 32.342 147.416 33.038ZM161.38 35.216C160.024 35.216 158.896 34.766 157.996 33.866C157.096 32.954 156.646 31.832 156.646 30.5C156.646 29.168 157.096 28.052 157.996 27.152C158.896 26.24 160.024 25.784 161.38 25.784C162.268 25.784 163.066 26 163.774 26.432C164.482 26.852 164.998 27.422 165.322 28.142L164.35 28.7C164.11 28.16 163.72 27.734 163.18 27.422C162.652 27.098 162.052 26.936 161.38 26.936C160.384 26.936 159.544 27.284 158.86 27.98C158.176 28.664 157.834 29.504 157.834 30.5C157.834 31.496 158.176 32.342 158.86 33.038C159.544 33.722 160.384 34.064 161.38 34.064C162.052 34.064 162.652 33.908 163.18 33.596C163.708 33.272 164.122 32.84 164.422 32.3L165.412 32.876C165.04 33.596 164.494 34.166 163.774 34.586C163.054 35.006 162.256 35.216 161.38 35.216ZM171.887 27.152H169.295V32.606C169.295 33.098 169.391 33.452 169.583 33.668C169.775 33.872 170.063 33.98 170.447 33.992C170.831 33.992 171.311 33.98 171.887 33.956V35C170.627 35.192 169.679 35.102 169.043 34.73C168.419 34.358 168.107 33.65 168.107 32.606V27.152H166.217V26H168.107V23.84L169.295 23.48V26H171.887V27.152ZM181.062 26H182.251V35H181.062V33.236C180.235 34.556 179.023 35.216 177.427 35.216C176.143 35.216 175.045 34.76 174.133 33.848C173.233 32.936 172.783 31.82 172.783 30.5C172.783 29.18 173.233 28.064 174.133 27.152C175.045 26.24 176.143 25.784 177.427 25.784C179.023 25.784 180.235 26.444 181.062 27.764V26ZM174.997 33.038C175.681 33.722 176.521 34.064 177.517 34.064C178.513 34.064 179.353 33.722 180.037 33.038C180.721 32.342 181.062 31.496 181.062 30.5C181.062 29.504 180.721 28.664 180.037 27.98C179.353 27.284 178.513 26.936 177.517 26.936C176.521 26.936 175.681 27.284 174.997 27.98C174.313 28.664 173.971 29.504 173.971 30.5C173.971 31.496 174.313 32.342 174.997 33.038ZM188.978 25.784C190.07 25.784 190.928 26.12 191.552 26.792C192.188 27.452 192.506 28.346 192.506 29.474V35H191.318V29.474C191.318 28.67 191.102 28.046 190.67 27.602C190.25 27.158 189.65 26.936 188.87 26.936C188.006 26.936 187.304 27.212 186.764 27.764C186.224 28.304 185.954 29.144 185.954 30.284V35H184.766V26H185.954V27.404C186.626 26.324 187.634 25.784 188.978 25.784ZM202.345 33.866C201.433 34.766 200.317 35.216 198.997 35.216C197.677 35.216 196.555 34.766 195.631 33.866C194.719 32.954 194.263 31.832 194.263 30.5C194.263 29.168 194.719 28.052 195.631 27.152C196.555 26.24 197.677 25.784 198.997 25.784C200.317 25.784 201.433 26.24 202.345 27.152C203.269 28.052 203.731 29.168 203.731 30.5C203.731 31.832 203.269 32.954 202.345 33.866ZM196.477 33.038C197.161 33.722 198.001 34.064 198.997 34.064C199.993 34.064 200.833 33.722 201.517 33.038C202.201 32.342 202.543 31.496 202.543 30.5C202.543 29.504 202.201 28.664 201.517 27.98C200.833 27.284 199.993 26.936 198.997 26.936C198.001 26.936 197.161 27.284 196.477 27.98C195.793 28.664 195.451 29.504 195.451 30.5C195.451 31.496 195.793 32.342 196.477 33.038ZM206.479 28.358C206.479 28.766 206.659 29.09 207.019 29.33C207.379 29.57 207.817 29.756 208.333 29.888C208.849 30.02 209.365 30.17 209.881 30.338C210.397 30.494 210.835 30.764 211.195 31.148C211.555 31.52 211.735 32.012 211.735 32.624C211.735 33.392 211.429 34.016 210.817 34.496C210.217 34.976 209.437 35.216 208.477 35.216C207.613 35.216 206.875 35.024 206.263 34.64C205.663 34.256 205.243 33.758 205.003 33.146L206.011 32.552C206.179 33.02 206.479 33.392 206.911 33.668C207.355 33.932 207.877 34.064 208.477 34.064C209.065 34.064 209.557 33.95 209.953 33.722C210.349 33.482 210.547 33.116 210.547 32.624C210.547 32.216 210.367 31.892 210.007 31.652C209.647 31.412 209.209 31.226 208.693 31.094C208.177 30.962 207.661 30.818 207.145 30.662C206.629 30.494 206.191 30.224 205.831 29.852C205.471 29.468 205.291 28.97 205.291 28.358C205.291 27.626 205.579 27.014 206.155 26.522C206.743 26.03 207.481 25.784 208.369 25.784C209.101 25.784 209.743 25.952 210.295 26.288C210.847 26.612 211.255 27.056 211.519 27.62L210.529 28.196C210.181 27.356 209.461 26.936 208.369 26.936C207.853 26.936 207.409 27.062 207.037 27.314C206.665 27.554 206.479 27.902 206.479 28.358ZM223.041 25.784C224.325 25.784 225.417 26.24 226.317 27.152C227.229 28.064 227.685 29.18 227.685 30.5C227.685 31.82 227.229 32.936 226.317 33.848C225.417 34.76 224.325 35.216 223.041 35.216C221.445 35.216 220.233 34.556 219.405 33.236V38.6H218.217V26H219.405V27.764C220.233 26.444 221.445 25.784 223.041 25.784ZM220.431 33.038C221.115 33.722 221.955 34.064 222.951 34.064C223.947 34.064 224.787 33.722 225.471 33.038C226.155 32.342 226.497 31.496 226.497 30.5C226.497 29.504 226.155 28.664 225.471 27.98C224.787 27.284 223.947 26.936 222.951 26.936C221.955 26.936 221.115 27.284 220.431 27.98C219.747 28.664 219.405 29.504 219.405 30.5C219.405 31.496 219.747 32.342 220.431 33.038ZM237.202 33.866C236.29 34.766 235.174 35.216 233.854 35.216C232.534 35.216 231.412 34.766 230.488 33.866C229.576 32.954 229.12 31.832 229.12 30.5C229.12 29.168 229.576 28.052 230.488 27.152C231.412 26.24 232.534 25.784 233.854 25.784C235.174 25.784 236.29 26.24 237.202 27.152C238.126 28.052 238.588 29.168 238.588 30.5C238.588 31.832 238.126 32.954 237.202 33.866ZM231.334 33.038C232.018 33.722 232.858 34.064 233.854 34.064C234.85 34.064 235.69 33.722 236.374 33.038C237.058 32.342 237.4 31.496 237.4 30.5C237.4 29.504 237.058 28.664 236.374 27.98C235.69 27.284 234.85 26.936 233.854 26.936C232.858 26.936 232.018 27.284 231.334 27.98C230.65 28.664 230.308 29.504 230.308 30.5C230.308 31.496 230.65 32.342 231.334 33.038ZM241.764 27.494C242.316 26.402 243.264 25.856 244.608 25.856V27.008C243.792 27.008 243.114 27.248 242.574 27.728C242.034 28.208 241.764 28.964 241.764 29.996V35H240.576V26H241.764V27.494ZM109.454 54.216C108.098 54.216 106.97 53.766 106.07 52.866C105.17 51.954 104.72 50.832 104.72 49.5C104.72 48.168 105.17 47.052 106.07 46.152C106.97 45.24 108.098 44.784 109.454 44.784C110.342 44.784 111.14 45 111.848 45.432C112.556 45.852 113.072 46.422 113.396 47.142L112.424 47.7C112.184 47.16 111.794 46.734 111.254 46.422C110.726 46.098 110.126 45.936 109.454 45.936C108.458 45.936 107.618 46.284 106.934 46.98C106.25 47.664 105.908 48.504 105.908 49.5C105.908 50.496 106.25 51.342 106.934 52.038C107.618 52.722 108.458 53.064 109.454 53.064C110.126 53.064 110.726 52.908 111.254 52.596C111.782 52.272 112.196 51.84 112.496 51.3L113.486 51.876C113.114 52.596 112.568 53.166 111.848 53.586C111.128 54.006 110.33 54.216 109.454 54.216ZM122.646 52.866C121.734 53.766 120.618 54.216 119.298 54.216C117.978 54.216 116.856 53.766 115.932 52.866C115.02 51.954 114.564 50.832 114.564 49.5C114.564 48.168 115.02 47.052 115.932 46.152C116.856 45.24 117.978 44.784 119.298 44.784C120.618 44.784 121.734 45.24 122.646 46.152C123.57 47.052 124.032 48.168 124.032 49.5C124.032 50.832 123.57 51.954 122.646 52.866ZM116.778 52.038C117.462 52.722 118.302 53.064 119.298 53.064C120.294 53.064 121.134 52.722 121.818 52.038C122.502 51.342 122.844 50.496 122.844 49.5C122.844 48.504 122.502 47.664 121.818 46.98C121.134 46.284 120.294 45.936 119.298 45.936C118.302 45.936 117.462 46.284 116.778 46.98C116.094 47.664 115.752 48.504 115.752 49.5C115.752 50.496 116.094 51.342 116.778 52.038ZM127.208 46.494C127.76 45.402 128.708 44.856 130.052 44.856V46.008C129.236 46.008 128.558 46.248 128.018 46.728C127.478 47.208 127.208 47.964 127.208 48.996V54H126.02V45H127.208V46.494ZM132.868 46.494C133.42 45.402 134.368 44.856 135.712 44.856V46.008C134.896 46.008 134.218 46.248 133.678 46.728C133.138 47.208 132.868 47.964 132.868 48.996V54H131.68V45H132.868V46.494ZM140.953 44.784C142.285 44.784 143.359 45.258 144.175 46.206C145.003 47.142 145.417 48.252 145.417 49.536C145.417 49.668 145.405 49.854 145.381 50.094H137.479C137.599 51.006 137.983 51.732 138.631 52.272C139.291 52.8 140.101 53.064 141.061 53.064C141.745 53.064 142.333 52.926 142.825 52.65C143.329 52.362 143.707 51.99 143.959 51.534L145.003 52.146C144.607 52.782 144.067 53.286 143.383 53.658C142.699 54.03 141.919 54.216 141.043 54.216C139.627 54.216 138.475 53.772 137.587 52.884C136.699 51.996 136.255 50.868 136.255 49.5C136.255 48.156 136.693 47.034 137.569 46.134C138.445 45.234 139.573 44.784 140.953 44.784ZM140.953 45.936C140.017 45.936 139.231 46.218 138.595 46.782C137.971 47.334 137.599 48.054 137.479 48.942H144.193C144.073 47.994 143.707 47.256 143.095 46.728C142.483 46.2 141.769 45.936 140.953 45.936ZM154.849 52.866C153.937 53.766 152.821 54.216 151.501 54.216C150.181 54.216 149.059 53.766 148.135 52.866C147.223 51.954 146.767 50.832 146.767 49.5C146.767 48.168 147.223 47.052 148.135 46.152C149.059 45.24 150.181 44.784 151.501 44.784C152.821 44.784 153.937 45.24 154.849 46.152C155.773 47.052 156.235 48.168 156.235 49.5C156.235 50.832 155.773 51.954 154.849 52.866ZM148.981 52.038C149.665 52.722 150.505 53.064 151.501 53.064C152.497 53.064 153.337 52.722 154.021 52.038C154.705 51.342 155.047 50.496 155.047 49.5C155.047 48.504 154.705 47.664 154.021 46.98C153.337 46.284 152.497 45.936 151.501 45.936C150.505 45.936 149.665 46.284 148.981 46.98C148.297 47.664 147.955 48.504 147.955 49.5C147.955 50.496 148.297 51.342 148.981 52.038ZM166.881 44.784C168.213 44.784 169.287 45.258 170.103 46.206C170.931 47.142 171.345 48.252 171.345 49.536C171.345 49.668 171.333 49.854 171.309 50.094H163.407C163.527 51.006 163.911 51.732 164.559 52.272C165.219 52.8 166.029 53.064 166.989 53.064C167.673 53.064 168.261 52.926 168.753 52.65C169.257 52.362 169.635 51.99 169.887 51.534L170.931 52.146C170.535 52.782 169.995 53.286 169.311 53.658C168.627 54.03 167.847 54.216 166.971 54.216C165.555 54.216 164.403 53.772 163.515 52.884C162.627 51.996 162.183 50.868 162.183 49.5C162.183 48.156 162.621 47.034 163.497 46.134C164.373 45.234 165.501 44.784 166.881 44.784ZM166.881 45.936C165.945 45.936 165.159 46.218 164.523 46.782C163.899 47.334 163.527 48.054 163.407 48.942H170.121C170.001 47.994 169.635 47.256 169.023 46.728C168.411 46.2 167.697 45.936 166.881 45.936ZM173.235 54V40.86H174.423V54H173.235ZM181.102 44.784C182.434 44.784 183.508 45.258 184.324 46.206C185.152 47.142 185.566 48.252 185.566 49.536C185.566 49.668 185.554 49.854 185.53 50.094H177.628C177.748 51.006 178.132 51.732 178.78 52.272C179.44 52.8 180.25 53.064 181.21 53.064C181.894 53.064 182.482 52.926 182.974 52.65C183.478 52.362 183.856 51.99 184.108 51.534L185.152 52.146C184.756 52.782 184.216 53.286 183.532 53.658C182.848 54.03 182.068 54.216 181.192 54.216C179.776 54.216 178.624 53.772 177.736 52.884C176.848 51.996 176.404 50.868 176.404 49.5C176.404 48.156 176.842 47.034 177.718 46.134C178.594 45.234 179.722 44.784 181.102 44.784ZM181.102 45.936C180.166 45.936 179.38 46.218 178.744 46.782C178.12 47.334 177.748 48.054 177.628 48.942H184.342C184.222 47.994 183.856 47.256 183.244 46.728C182.632 46.2 181.918 45.936 181.102 45.936ZM191.649 54.216C190.293 54.216 189.165 53.766 188.265 52.866C187.365 51.954 186.915 50.832 186.915 49.5C186.915 48.168 187.365 47.052 188.265 46.152C189.165 45.24 190.293 44.784 191.649 44.784C192.537 44.784 193.335 45 194.043 45.432C194.751 45.852 195.267 46.422 195.591 47.142L194.619 47.7C194.379 47.16 193.989 46.734 193.449 46.422C192.921 46.098 192.321 45.936 191.649 45.936C190.653 45.936 189.813 46.284 189.129 46.98C188.445 47.664 188.103 48.504 188.103 49.5C188.103 50.496 188.445 51.342 189.129 52.038C189.813 52.722 190.653 53.064 191.649 53.064C192.321 53.064 192.921 52.908 193.449 52.596C193.977 52.272 194.391 51.84 194.691 51.3L195.681 51.876C195.309 52.596 194.763 53.166 194.043 53.586C193.323 54.006 192.525 54.216 191.649 54.216ZM202.157 46.152H199.565V51.606C199.565 52.098 199.661 52.452 199.853 52.668C200.045 52.872 200.333 52.98 200.717 52.992C201.101 52.992 201.581 52.98 202.157 52.956V54C200.897 54.192 199.949 54.102 199.313 53.73C198.689 53.358 198.377 52.65 198.377 51.606V46.152H196.487V45H198.377V42.84L199.565 42.48V45H202.157V46.152ZM205.325 46.494C205.877 45.402 206.825 44.856 208.169 44.856V46.008C207.353 46.008 206.675 46.248 206.135 46.728C205.595 47.208 205.325 47.964 205.325 48.996V54H204.137V45H205.325V46.494ZM212.546 43.74H213.698L215.426 41.4H213.986L212.546 43.74ZM216.794 52.866C215.882 53.766 214.766 54.216 213.446 54.216C212.126 54.216 211.004 53.766 210.08 52.866C209.168 51.954 208.712 50.832 208.712 49.5C208.712 48.168 209.168 47.052 210.08 46.152C211.004 45.24 212.126 44.784 213.446 44.784C214.766 44.784 215.882 45.24 216.794 46.152C217.718 47.052 218.18 48.168 218.18 49.5C218.18 50.832 217.718 51.954 216.794 52.866ZM210.926 52.038C211.61 52.722 212.45 53.064 213.446 53.064C214.442 53.064 215.282 52.722 215.966 52.038C216.65 51.342 216.992 50.496 216.992 49.5C216.992 48.504 216.65 47.664 215.966 46.98C215.282 46.284 214.442 45.936 213.446 45.936C212.45 45.936 211.61 46.284 210.926 46.98C210.242 47.664 209.9 48.504 209.9 49.5C209.9 50.496 210.242 51.342 210.926 52.038ZM224.38 44.784C225.472 44.784 226.33 45.12 226.954 45.792C227.59 46.452 227.908 47.346 227.908 48.474V54H226.72V48.474C226.72 47.67 226.504 47.046 226.072 46.602C225.652 46.158 225.052 45.936 224.272 45.936C223.408 45.936 222.706 46.212 222.166 46.764C221.626 47.304 221.356 48.144 221.356 49.284V54H220.168V45H221.356V46.404C222.028 45.324 223.036 44.784 224.38 44.784ZM231.411 42.84C231.243 43.008 231.039 43.092 230.799 43.092C230.559 43.092 230.355 43.008 230.187 42.84C230.019 42.672 229.935 42.468 229.935 42.228C229.935 41.988 230.019 41.784 230.187 41.616C230.355 41.448 230.559 41.364 230.799 41.364C231.039 41.364 231.243 41.448 231.411 41.616C231.579 41.784 231.663 41.988 231.663 42.228C231.663 42.468 231.579 42.672 231.411 42.84ZM230.205 54V45H231.393V54H230.205ZM238.108 54.216C236.752 54.216 235.624 53.766 234.724 52.866C233.824 51.954 233.374 50.832 233.374 49.5C233.374 48.168 233.824 47.052 234.724 46.152C235.624 45.24 236.752 44.784 238.108 44.784C238.996 44.784 239.794 45 240.502 45.432C241.21 45.852 241.726 46.422 242.05 47.142L241.078 47.7C240.838 47.16 240.448 46.734 239.908 46.422C239.38 46.098 238.78 45.936 238.108 45.936C237.112 45.936 236.272 46.284 235.588 46.98C234.904 47.664 234.562 48.504 234.562 49.5C234.562 50.496 234.904 51.342 235.588 52.038C236.272 52.722 237.112 53.064 238.108 53.064C238.78 53.064 239.38 52.908 239.908 52.596C240.436 52.272 240.85 51.84 241.15 51.3L242.14 51.876C241.768 52.596 241.222 53.166 240.502 53.586C239.782 54.006 238.984 54.216 238.108 54.216ZM251.3 52.866C250.388 53.766 249.272 54.216 247.952 54.216C246.632 54.216 245.51 53.766 244.586 52.866C243.674 51.954 243.218 50.832 243.218 49.5C243.218 48.168 243.674 47.052 244.586 46.152C245.51 45.24 246.632 44.784 247.952 44.784C249.272 44.784 250.388 45.24 251.3 46.152C252.224 47.052 252.686 48.168 252.686 49.5C252.686 50.832 252.224 51.954 251.3 52.866ZM245.432 52.038C246.116 52.722 246.956 53.064 247.952 53.064C248.948 53.064 249.788 52.722 250.472 52.038C251.156 51.342 251.498 50.496 251.498 49.5C251.498 48.504 251.156 47.664 250.472 46.98C249.788 46.284 248.948 45.936 247.952 45.936C246.956 45.936 246.116 46.284 245.432 46.98C244.748 47.664 244.406 48.504 244.406 49.5C244.406 50.496 244.748 51.342 245.432 52.038Z" fill="white"/>
<path d="M78.6055 22.4219H37.3945C34.9764 22.4219 33 24.3896 33 26.8164V53.1836C33 55.6113 34.9776 57.5781 37.3945 57.5781H78.6055C81.0236 57.5781 83 55.6104 83 53.1836V26.8164C83 24.389 81.0227 22.4219 78.6055 22.4219ZM77.9307 25.3516C76.5099 26.7771 59.8208 43.5205 59.1352 44.2084C58.5625 44.7828 57.4378 44.7832 56.8648 44.2084L38.0693 25.3516H77.9307ZM35.9297 52.645V27.355L48.5337 40L35.9297 52.645ZM38.0693 54.6484L50.602 42.075L54.7899 46.2767C56.5062 47.9984 59.4945 47.9978 61.2102 46.2767L65.3981 42.0751L77.9307 54.6484H38.0693ZM80.0703 52.645L67.4663 40L80.0703 27.355V52.645Z" fill="white"/>
</svg>
