<svg width="349" height="89" viewBox="0 0 349 89" fill="none" xmlns="http://www.w3.org/2000/svg">
<path d="M0 15C0 6.71573 6.71573 0 15 0H334C342.284 0 349 6.71573 349 15V74C349 82.2843 342.284 89 334 89H15C6.71573 89 0 82.2843 0 74V15Z" fill="#03979B"/>
<path d="M111.326 31.216C109.418 31.216 107.84 30.586 106.592 29.326C105.344 28.066 104.72 26.524 104.72 24.7C104.72 22.876 105.344 21.334 106.592 20.074C107.84 18.814 109.418 18.184 111.326 18.184C112.49 18.184 113.558 18.466 114.53 19.03C115.502 19.582 116.252 20.332 116.78 21.28L115.664 21.928C115.268 21.16 114.68 20.548 113.9 20.092C113.12 19.636 112.262 19.408 111.326 19.408C109.754 19.408 108.47 19.918 107.474 20.938C106.478 21.958 105.98 23.212 105.98 24.7C105.98 26.188 106.478 27.442 107.474 28.462C108.47 29.482 109.754 29.992 111.326 29.992C112.262 29.992 113.12 29.764 113.9 29.308C114.68 28.852 115.268 28.24 115.664 27.472L116.78 28.102C116.264 29.05 115.514 29.806 114.53 30.37C113.558 30.934 112.49 31.216 111.326 31.216ZM126.324 22H127.512V31H126.324V29.236C125.496 30.556 124.284 31.216 122.688 31.216C121.404 31.216 120.306 30.76 119.394 29.848C118.494 28.936 118.044 27.82 118.044 26.5C118.044 25.18 118.494 24.064 119.394 23.152C120.306 22.24 121.404 21.784 122.688 21.784C124.284 21.784 125.496 22.444 126.324 23.764V22ZM120.258 29.038C120.942 29.722 121.782 30.064 122.778 30.064C123.774 30.064 124.614 29.722 125.298 29.038C125.982 28.342 126.324 27.496 126.324 26.5C126.324 25.504 125.982 24.664 125.298 23.98C124.614 23.284 123.774 22.936 122.778 22.936C121.782 22.936 120.942 23.284 120.258 23.98C119.574 24.664 119.232 25.504 119.232 26.5C119.232 27.496 119.574 28.342 120.258 29.038ZM130.028 31V17.86H131.216V31H130.028ZM133.737 31V17.86H134.925V31H133.737ZM141.604 21.784C142.936 21.784 144.01 22.258 144.826 23.206C145.654 24.142 146.068 25.252 146.068 26.536C146.068 26.668 146.056 26.854 146.032 27.094H138.13C138.25 28.006 138.634 28.732 139.282 29.272C139.942 29.8 140.752 30.064 141.712 30.064C142.396 30.064 142.984 29.926 143.476 29.65C143.98 29.362 144.358 28.99 144.61 28.534L145.654 29.146C145.258 29.782 144.718 30.286 144.034 30.658C143.35 31.03 142.57 31.216 141.694 31.216C140.278 31.216 139.126 30.772 138.238 29.884C137.35 28.996 136.906 27.868 136.906 26.5C136.906 25.156 137.344 24.034 138.22 23.134C139.096 22.234 140.224 21.784 141.604 21.784ZM141.604 22.936C140.668 22.936 139.882 23.218 139.246 23.782C138.622 24.334 138.25 25.054 138.13 25.942H144.844C144.724 24.994 144.358 24.256 143.746 23.728C143.134 23.2 142.42 22.936 141.604 22.936ZM157.281 21.784C158.565 21.784 159.657 22.24 160.557 23.152C161.469 24.064 161.925 25.18 161.925 26.5C161.925 27.82 161.469 28.936 160.557 29.848C159.657 30.76 158.565 31.216 157.281 31.216C155.685 31.216 154.473 30.556 153.645 29.236V34.6H152.457V22H153.645V23.764C154.473 22.444 155.685 21.784 157.281 21.784ZM154.671 29.038C155.355 29.722 156.195 30.064 157.191 30.064C158.187 30.064 159.027 29.722 159.711 29.038C160.395 28.342 160.737 27.496 160.737 26.5C160.737 25.504 160.395 24.664 159.711 23.98C159.027 23.284 158.187 22.936 157.191 22.936C156.195 22.936 155.355 23.284 154.671 23.98C153.987 24.664 153.645 25.504 153.645 26.5C153.645 27.496 153.987 28.342 154.671 29.038ZM165.089 23.494C165.641 22.402 166.589 21.856 167.933 21.856V23.008C167.117 23.008 166.439 23.248 165.899 23.728C165.359 24.208 165.089 24.964 165.089 25.996V31H163.901V22H165.089V23.494ZM170.767 19.84C170.599 20.008 170.395 20.092 170.155 20.092C169.915 20.092 169.711 20.008 169.543 19.84C169.375 19.672 169.291 19.468 169.291 19.228C169.291 18.988 169.375 18.784 169.543 18.616C169.711 18.448 169.915 18.364 170.155 18.364C170.395 18.364 170.599 18.448 170.767 18.616C170.935 18.784 171.019 18.988 171.019 19.228C171.019 19.468 170.935 19.672 170.767 19.84ZM169.561 31V22H170.749V31H169.561ZM177.482 21.784C178.574 21.784 179.432 22.12 180.056 22.792C180.692 23.452 181.01 24.346 181.01 25.474V31H179.822V25.474C179.822 24.67 179.606 24.046 179.174 23.602C178.754 23.158 178.154 22.936 177.374 22.936C176.51 22.936 175.808 23.212 175.268 23.764C174.728 24.304 174.458 25.144 174.458 26.284V31H173.27V22H174.458V23.404C175.13 22.324 176.138 21.784 177.482 21.784ZM187.501 31.216C186.145 31.216 185.017 30.766 184.117 29.866C183.217 28.954 182.767 27.832 182.767 26.5C182.767 25.168 183.217 24.052 184.117 23.152C185.017 22.24 186.145 21.784 187.501 21.784C188.389 21.784 189.187 22 189.895 22.432C190.603 22.852 191.119 23.422 191.443 24.142L190.471 24.7C190.231 24.16 189.841 23.734 189.301 23.422C188.773 23.098 188.173 22.936 187.501 22.936C186.505 22.936 185.665 23.284 184.981 23.98C184.297 24.664 183.955 25.504 183.955 26.5C183.955 27.496 184.297 28.342 184.981 29.038C185.665 29.722 186.505 30.064 187.501 30.064C188.173 30.064 188.773 29.908 189.301 29.596C189.829 29.272 190.243 28.84 190.543 28.3L191.533 28.876C191.161 29.596 190.615 30.166 189.895 30.586C189.175 31.006 188.377 31.216 187.501 31.216ZM194.445 19.84C194.277 20.008 194.073 20.092 193.833 20.092C193.593 20.092 193.389 20.008 193.221 19.84C193.053 19.672 192.969 19.468 192.969 19.228C192.969 18.988 193.053 18.784 193.221 18.616C193.389 18.448 193.593 18.364 193.833 18.364C194.073 18.364 194.277 18.448 194.445 18.616C194.613 18.784 194.697 18.988 194.697 19.228C194.697 19.468 194.613 19.672 194.445 19.84ZM193.239 31V22H194.427V31H193.239ZM201.772 21.784C203.056 21.784 204.148 22.24 205.048 23.152C205.96 24.064 206.416 25.18 206.416 26.5C206.416 27.82 205.96 28.936 205.048 29.848C204.148 30.76 203.056 31.216 201.772 31.216C200.176 31.216 198.964 30.556 198.136 29.236V34.6H196.948V22H198.136V23.764C198.964 22.444 200.176 21.784 201.772 21.784ZM199.162 29.038C199.846 29.722 200.686 30.064 201.682 30.064C202.678 30.064 203.518 29.722 204.202 29.038C204.886 28.342 205.228 27.496 205.228 26.5C205.228 25.504 204.886 24.664 204.202 23.98C203.518 23.284 202.678 22.936 201.682 22.936C200.686 22.936 199.846 23.284 199.162 23.98C198.478 24.664 198.136 25.504 198.136 26.5C198.136 27.496 198.478 28.342 199.162 29.038ZM216.131 22H217.319V31H216.131V29.236C215.303 30.556 214.091 31.216 212.495 31.216C211.211 31.216 210.113 30.76 209.201 29.848C208.301 28.936 207.851 27.82 207.851 26.5C207.851 25.18 208.301 24.064 209.201 23.152C210.113 22.24 211.211 21.784 212.495 21.784C214.091 21.784 215.303 22.444 216.131 23.764V22ZM210.065 29.038C210.749 29.722 211.589 30.064 212.585 30.064C213.581 30.064 214.421 29.722 215.105 29.038C215.789 28.342 216.131 27.496 216.131 26.5C216.131 25.504 215.789 24.664 215.105 23.98C214.421 23.284 213.581 22.936 212.585 22.936C211.589 22.936 210.749 23.284 210.065 23.98C209.381 24.664 209.039 25.504 209.039 26.5C209.039 27.496 209.381 28.342 210.065 29.038ZM219.834 31V17.86H221.022V31H219.834ZM235.783 18.4H236.971V31H235.783V29.236C234.955 30.556 233.743 31.216 232.147 31.216C230.863 31.216 229.765 30.76 228.853 29.848C227.953 28.936 227.503 27.82 227.503 26.5C227.503 25.18 227.953 24.064 228.853 23.152C229.765 22.24 230.863 21.784 232.147 21.784C233.743 21.784 234.955 22.444 235.783 23.764V18.4ZM229.717 29.038C230.401 29.722 231.241 30.064 232.237 30.064C233.233 30.064 234.073 29.722 234.757 29.038C235.441 28.342 235.783 27.496 235.783 26.5C235.783 25.504 235.441 24.664 234.757 23.98C234.073 23.284 233.233 22.936 232.237 22.936C231.241 22.936 230.401 23.284 229.717 23.98C229.033 24.664 228.691 25.504 228.691 26.5C228.691 27.496 229.033 28.342 229.717 29.038ZM243.645 21.784C244.977 21.784 246.051 22.258 246.867 23.206C247.695 24.142 248.109 25.252 248.109 26.536C248.109 26.668 248.097 26.854 248.073 27.094H240.171C240.291 28.006 240.675 28.732 241.323 29.272C241.983 29.8 242.793 30.064 243.753 30.064C244.437 30.064 245.025 29.926 245.517 29.65C246.021 29.362 246.399 28.99 246.651 28.534L247.695 29.146C247.299 29.782 246.759 30.286 246.075 30.658C245.391 31.03 244.611 31.216 243.735 31.216C242.319 31.216 241.167 30.772 240.279 29.884C239.391 28.996 238.947 27.868 238.947 26.5C238.947 25.156 239.385 24.034 240.261 23.134C241.137 22.234 242.265 21.784 243.645 21.784ZM243.645 22.936C242.709 22.936 241.923 23.218 241.287 23.782C240.663 24.334 240.291 25.054 240.171 25.942H246.885C246.765 24.994 246.399 24.256 245.787 23.728C245.175 23.2 244.461 22.936 243.645 22.936ZM109.94 37.4C111.068 37.4 112.01 37.778 112.766 38.534C113.522 39.29 113.9 40.232 113.9 41.36C113.9 42.488 113.522 43.43 112.766 44.186C112.01 44.942 111.068 45.32 109.94 45.32H106.7V50H105.44V37.4H109.94ZM109.94 44.132C110.72 44.132 111.362 43.874 111.866 43.358C112.382 42.83 112.64 42.164 112.64 41.36C112.64 40.556 112.382 39.896 111.866 39.38C111.362 38.852 110.72 38.588 109.94 38.588H106.7V44.132H109.94ZM122.896 41H124.084V50H122.896V48.236C122.068 49.556 120.856 50.216 119.26 50.216C117.976 50.216 116.878 49.76 115.966 48.848C115.066 47.936 114.616 46.82 114.616 45.5C114.616 44.18 115.066 43.064 115.966 42.152C116.878 41.24 117.976 40.784 119.26 40.784C120.856 40.784 122.068 41.444 122.896 42.764V41ZM116.83 48.038C117.514 48.722 118.354 49.064 119.35 49.064C120.346 49.064 121.186 48.722 121.87 48.038C122.554 47.342 122.896 46.496 122.896 45.5C122.896 44.504 122.554 43.664 121.87 42.98C121.186 42.284 120.346 41.936 119.35 41.936C118.354 41.936 117.514 42.284 116.83 42.98C116.146 43.664 115.804 44.504 115.804 45.5C115.804 46.496 116.146 47.342 116.83 48.038ZM130.812 40.784C131.904 40.784 132.762 41.12 133.386 41.792C134.022 42.452 134.34 43.346 134.34 44.474V50H133.152V44.474C133.152 43.67 132.936 43.046 132.504 42.602C132.084 42.158 131.484 41.936 130.704 41.936C129.84 41.936 129.138 42.212 128.598 42.764C128.058 43.304 127.788 44.144 127.788 45.284V50H126.6V41H127.788V42.404C128.46 41.324 129.468 40.784 130.812 40.784ZM144.377 41H145.565V50H144.377V48.236C143.549 49.556 142.337 50.216 140.741 50.216C139.457 50.216 138.359 49.76 137.447 48.848C136.547 47.936 136.097 46.82 136.097 45.5C136.097 44.18 136.547 43.064 137.447 42.152C138.359 41.24 139.457 40.784 140.741 40.784C142.337 40.784 143.549 41.444 144.377 42.764V41ZM138.311 48.038C138.995 48.722 139.835 49.064 140.831 49.064C141.827 49.064 142.667 48.722 143.351 48.038C144.035 47.342 144.377 46.496 144.377 45.5C144.377 44.504 144.035 43.664 143.351 42.98C142.667 42.284 141.827 41.936 140.831 41.936C139.835 41.936 138.995 42.284 138.311 42.98C137.627 43.664 137.285 44.504 137.285 45.5C137.285 46.496 137.627 47.342 138.311 48.038ZM148.319 37.616C148.487 37.448 148.691 37.364 148.931 37.364C149.171 37.364 149.375 37.448 149.543 37.616C149.711 37.784 149.795 37.988 149.795 38.228C149.795 38.468 149.711 38.672 149.543 38.84C149.375 39.008 149.171 39.092 148.931 39.092C148.691 39.092 148.487 39.008 148.319 38.84C148.151 38.672 148.067 38.468 148.067 38.228C148.067 37.988 148.151 37.784 148.319 37.616ZM148.337 50.72V41H149.525V50.72C149.525 51.8 149.243 52.61 148.679 53.15C148.115 53.69 147.317 53.912 146.285 53.816V52.664C146.993 52.736 147.509 52.622 147.833 52.322C148.169 52.022 148.337 51.488 148.337 50.72ZM159.793 41H160.981V50H159.793V48.236C158.965 49.556 157.753 50.216 156.157 50.216C154.873 50.216 153.775 49.76 152.863 48.848C151.963 47.936 151.513 46.82 151.513 45.5C151.513 44.18 151.963 43.064 152.863 42.152C153.775 41.24 154.873 40.784 156.157 40.784C157.753 40.784 158.965 41.444 159.793 42.764V41ZM153.727 48.038C154.411 48.722 155.251 49.064 156.247 49.064C157.243 49.064 158.083 48.722 158.767 48.038C159.451 47.342 159.793 46.496 159.793 45.5C159.793 44.504 159.451 43.664 158.767 42.98C158.083 42.284 157.243 41.936 156.247 41.936C155.251 41.936 154.411 42.284 153.727 42.98C153.043 43.664 152.701 44.504 152.701 45.5C152.701 46.496 153.043 47.342 153.727 48.038ZM167.69 50.216C166.334 50.216 165.206 49.766 164.306 48.866C163.406 47.954 162.956 46.832 162.956 45.5C162.956 44.168 163.406 43.052 164.306 42.152C165.206 41.24 166.334 40.784 167.69 40.784C168.578 40.784 169.376 41 170.084 41.432C170.792 41.852 171.308 42.422 171.632 43.142L170.66 43.7C170.42 43.16 170.03 42.734 169.49 42.422C168.962 42.098 168.362 41.936 167.69 41.936C166.694 41.936 165.854 42.284 165.17 42.98C164.486 43.664 164.144 44.504 164.144 45.5C164.144 46.496 164.486 47.342 165.17 48.038C165.854 48.722 166.694 49.064 167.69 49.064C168.362 49.064 168.962 48.908 169.49 48.596C170.018 48.272 170.432 47.84 170.732 47.3L171.722 47.876C171.35 48.596 170.804 49.166 170.084 49.586C169.364 50.006 168.566 50.216 167.69 50.216ZM177.64 40.784C178.732 40.784 179.59 41.12 180.214 41.792C180.85 42.452 181.168 43.346 181.168 44.474V50H179.98V44.474C179.98 43.67 179.764 43.046 179.332 42.602C178.912 42.158 178.312 41.936 177.532 41.936C176.668 41.936 175.966 42.212 175.426 42.764C174.886 43.304 174.616 44.144 174.616 45.284V50H173.428V37.4H174.616V42.404C175.288 41.324 176.296 40.784 177.64 40.784ZM187.623 40.784C188.955 40.784 190.029 41.258 190.845 42.206C191.673 43.142 192.087 44.252 192.087 45.536C192.087 45.668 192.075 45.854 192.051 46.094H184.149C184.269 47.006 184.653 47.732 185.301 48.272C185.961 48.8 186.771 49.064 187.731 49.064C188.415 49.064 189.003 48.926 189.495 48.65C189.999 48.362 190.377 47.99 190.629 47.534L191.673 48.146C191.277 48.782 190.737 49.286 190.053 49.658C189.369 50.03 188.589 50.216 187.713 50.216C186.297 50.216 185.145 49.772 184.257 48.884C183.369 47.996 182.925 46.868 182.925 45.5C182.925 44.156 183.363 43.034 184.239 42.134C185.115 41.234 186.243 40.784 187.623 40.784ZM187.623 41.936C186.687 41.936 185.901 42.218 185.265 42.782C184.641 43.334 184.269 44.054 184.149 44.942H190.863C190.743 43.994 190.377 43.256 189.765 42.728C189.153 42.2 188.439 41.936 187.623 41.936ZM193.977 50V36.86H195.165V50H193.977ZM206.272 42.638C207.28 42.77 208.108 43.16 208.756 43.808C209.416 44.444 209.746 45.29 209.746 46.346C209.746 47.546 209.332 48.494 208.504 49.19C207.688 49.874 206.692 50.216 205.516 50.216C204.58 50.216 203.746 50 203.014 49.568C202.282 49.136 201.766 48.518 201.466 47.714L202.51 47.102C202.714 47.726 203.08 48.2 203.608 48.524C204.136 48.836 204.772 48.992 205.516 48.992C206.38 48.992 207.088 48.764 207.64 48.308C208.204 47.84 208.486 47.186 208.486 46.346C208.486 45.506 208.204 44.858 207.64 44.402C207.088 43.934 206.38 43.7 205.516 43.7V43.682L205.498 43.7H205.156L204.616 42.872L207.748 38.588H201.826V37.4H209.206V38.588L206.272 42.638ZM216.411 45.014V43.862H225.411V45.014H216.411ZM232.074 50V48.866L236.61 44.294C237.906 42.998 238.554 41.888 238.554 40.964C238.554 40.16 238.302 39.536 237.798 39.092C237.306 38.636 236.712 38.408 236.016 38.408C234.72 38.408 233.778 39.002 233.19 40.19L232.128 39.56C232.524 38.78 233.064 38.192 233.748 37.796C234.432 37.388 235.188 37.184 236.016 37.184C237.024 37.184 237.906 37.526 238.662 38.21C239.43 38.882 239.814 39.8 239.814 40.964C239.814 41.696 239.61 42.398 239.202 43.07C238.794 43.742 238.218 44.45 237.474 45.194L233.874 48.776H240.084V50H232.074ZM250.449 46.292V47.48H248.829V50H247.569V47.48H240.909V46.292L245.589 37.4H246.975L242.295 46.292H247.569V42.44H248.829V46.292H250.449ZM257.956 48.848H263.14V50H256.3V49.208L261.304 42.152H256.48V41H262.96V41.792L257.956 48.848ZM272.113 48.866C271.201 49.766 270.085 50.216 268.765 50.216C267.445 50.216 266.323 49.766 265.399 48.866C264.487 47.954 264.031 46.832 264.031 45.5C264.031 44.168 264.487 43.052 265.399 42.152C266.323 41.24 267.445 40.784 268.765 40.784C270.085 40.784 271.201 41.24 272.113 42.152C273.037 43.052 273.499 44.168 273.499 45.5C273.499 46.832 273.037 47.954 272.113 48.866ZM266.245 48.038C266.929 48.722 267.769 49.064 268.765 49.064C269.761 49.064 270.601 48.722 271.285 48.038C271.969 47.342 272.311 46.496 272.311 45.5C272.311 44.504 271.969 43.664 271.285 42.98C270.601 42.284 269.761 41.936 268.765 41.936C267.769 41.936 266.929 42.284 266.245 42.98C265.561 43.664 265.219 44.504 265.219 45.5C265.219 46.496 265.561 47.342 266.245 48.038ZM279.699 40.784C280.791 40.784 281.649 41.12 282.273 41.792C282.909 42.452 283.227 43.346 283.227 44.474V50H282.039V44.474C282.039 43.67 281.823 43.046 281.391 42.602C280.971 42.158 280.371 41.936 279.591 41.936C278.727 41.936 278.025 42.212 277.485 42.764C276.945 43.304 276.675 44.144 276.675 45.284V50H275.487V41H276.675V42.404C277.347 41.324 278.355 40.784 279.699 40.784ZM293.264 41H294.452V50H293.264V48.236C292.436 49.556 291.224 50.216 289.628 50.216C288.344 50.216 287.246 49.76 286.334 48.848C285.434 47.936 284.984 46.82 284.984 45.5C284.984 44.18 285.434 43.064 286.334 42.152C287.246 41.24 288.344 40.784 289.628 40.784C291.224 40.784 292.436 41.444 293.264 42.764V41ZM287.198 48.038C287.882 48.722 288.722 49.064 289.718 49.064C290.714 49.064 291.554 48.722 292.238 48.038C292.922 47.342 293.264 46.496 293.264 45.5C293.264 44.504 292.922 43.664 292.238 42.98C291.554 42.284 290.714 41.936 289.718 41.936C288.722 41.936 287.882 42.284 287.198 42.98C286.514 43.664 286.172 44.504 286.172 45.5C286.172 46.496 286.514 47.342 287.198 48.038ZM300.927 50V48.866L305.463 44.294C306.759 42.998 307.407 41.888 307.407 40.964C307.407 40.16 307.155 39.536 306.651 39.092C306.159 38.636 305.565 38.408 304.869 38.408C303.573 38.408 302.631 39.002 302.043 40.19L300.981 39.56C301.377 38.78 301.917 38.192 302.601 37.796C303.285 37.388 304.041 37.184 304.869 37.184C305.877 37.184 306.759 37.526 307.515 38.21C308.283 38.882 308.667 39.8 308.667 40.964C308.667 41.696 308.463 42.398 308.055 43.07C307.647 43.742 307.071 44.45 306.327 45.194L302.727 48.776H308.937V50H300.927ZM312.904 48.47L311.824 52.52H310.744L311.464 48.47H312.904ZM109.94 56.4C111.068 56.4 112.01 56.778 112.766 57.534C113.522 58.29 113.9 59.232 113.9 60.36C113.9 61.488 113.522 62.43 112.766 63.186C112.01 63.942 111.068 64.32 109.94 64.32H106.7V69H105.44V56.4H109.94ZM109.94 63.132C110.72 63.132 111.362 62.874 111.866 62.358C112.382 61.83 112.64 61.164 112.64 60.36C112.64 59.556 112.382 58.896 111.866 58.38C111.362 57.852 110.72 57.588 109.94 57.588H106.7V63.132H109.94ZM122.896 60H124.084V69H122.896V67.236C122.068 68.556 120.856 69.216 119.26 69.216C117.976 69.216 116.878 68.76 115.966 67.848C115.066 66.936 114.616 65.82 114.616 64.5C114.616 63.18 115.066 62.064 115.966 61.152C116.878 60.24 117.976 59.784 119.26 59.784C120.856 59.784 122.068 60.444 122.896 61.764V60ZM116.83 67.038C117.514 67.722 118.354 68.064 119.35 68.064C120.346 68.064 121.186 67.722 121.87 67.038C122.554 66.342 122.896 65.496 122.896 64.5C122.896 63.504 122.554 62.664 121.87 61.98C121.186 61.284 120.346 60.936 119.35 60.936C118.354 60.936 117.514 61.284 116.83 61.98C116.146 62.664 115.804 63.504 115.804 64.5C115.804 65.496 116.146 66.342 116.83 67.038ZM130.812 59.784C131.904 59.784 132.762 60.12 133.386 60.792C134.022 61.452 134.34 62.346 134.34 63.474V69H133.152V63.474C133.152 62.67 132.936 62.046 132.504 61.602C132.084 61.158 131.484 60.936 130.704 60.936C129.84 60.936 129.138 61.212 128.598 61.764C128.058 62.304 127.788 63.144 127.788 64.284V69H126.6V60H127.788V61.404C128.46 60.324 129.468 59.784 130.812 59.784ZM144.377 60H145.565V69H144.377V67.236C143.549 68.556 142.337 69.216 140.741 69.216C139.457 69.216 138.359 68.76 137.447 67.848C136.547 66.936 136.097 65.82 136.097 64.5C136.097 63.18 136.547 62.064 137.447 61.152C138.359 60.24 139.457 59.784 140.741 59.784C142.337 59.784 143.549 60.444 144.377 61.764V60ZM138.311 67.038C138.995 67.722 139.835 68.064 140.831 68.064C141.827 68.064 142.667 67.722 143.351 67.038C144.035 66.342 144.377 65.496 144.377 64.5C144.377 63.504 144.035 62.664 143.351 61.98C142.667 61.284 141.827 60.936 140.831 60.936C139.835 60.936 138.995 61.284 138.311 61.98C137.627 62.664 137.285 63.504 137.285 64.5C137.285 65.496 137.627 66.342 138.311 67.038ZM148.319 56.616C148.487 56.448 148.691 56.364 148.931 56.364C149.171 56.364 149.375 56.448 149.543 56.616C149.711 56.784 149.795 56.988 149.795 57.228C149.795 57.468 149.711 57.672 149.543 57.84C149.375 58.008 149.171 58.092 148.931 58.092C148.691 58.092 148.487 58.008 148.319 57.84C148.151 57.672 148.067 57.468 148.067 57.228C148.067 56.988 148.151 56.784 148.319 56.616ZM148.337 69.72V60H149.525V69.72C149.525 70.8 149.243 71.61 148.679 72.15C148.115 72.69 147.317 72.912 146.285 72.816V71.664C146.993 71.736 147.509 71.622 147.833 71.322C148.169 71.022 148.337 70.488 148.337 69.72ZM159.793 60H160.981V69H159.793V67.236C158.965 68.556 157.753 69.216 156.157 69.216C154.873 69.216 153.775 68.76 152.863 67.848C151.963 66.936 151.513 65.82 151.513 64.5C151.513 63.18 151.963 62.064 152.863 61.152C153.775 60.24 154.873 59.784 156.157 59.784C157.753 59.784 158.965 60.444 159.793 61.764V60ZM153.727 67.038C154.411 67.722 155.251 68.064 156.247 68.064C157.243 68.064 158.083 67.722 158.767 67.038C159.451 66.342 159.793 65.496 159.793 64.5C159.793 63.504 159.451 62.664 158.767 61.98C158.083 61.284 157.243 60.936 156.247 60.936C155.251 60.936 154.411 61.284 153.727 61.98C153.043 62.664 152.701 63.504 152.701 64.5C152.701 65.496 153.043 66.342 153.727 67.038ZM167.69 69.216C166.334 69.216 165.206 68.766 164.306 67.866C163.406 66.954 162.956 65.832 162.956 64.5C162.956 63.168 163.406 62.052 164.306 61.152C165.206 60.24 166.334 59.784 167.69 59.784C168.578 59.784 169.376 60 170.084 60.432C170.792 60.852 171.308 61.422 171.632 62.142L170.66 62.7C170.42 62.16 170.03 61.734 169.49 61.422C168.962 61.098 168.362 60.936 167.69 60.936C166.694 60.936 165.854 61.284 165.17 61.98C164.486 62.664 164.144 63.504 164.144 64.5C164.144 65.496 164.486 66.342 165.17 67.038C165.854 67.722 166.694 68.064 167.69 68.064C168.362 68.064 168.962 67.908 169.49 67.596C170.018 67.272 170.432 66.84 170.732 66.3L171.722 66.876C171.35 67.596 170.804 68.166 170.084 68.586C169.364 69.006 168.566 69.216 167.69 69.216ZM177.64 59.784C178.732 59.784 179.59 60.12 180.214 60.792C180.85 61.452 181.168 62.346 181.168 63.474V69H179.98V63.474C179.98 62.67 179.764 62.046 179.332 61.602C178.912 61.158 178.312 60.936 177.532 60.936C176.668 60.936 175.966 61.212 175.426 61.764C174.886 62.304 174.616 63.144 174.616 64.284V69H173.428V56.4H174.616V61.404C175.288 60.324 176.296 59.784 177.64 59.784ZM187.623 59.784C188.955 59.784 190.029 60.258 190.845 61.206C191.673 62.142 192.087 63.252 192.087 64.536C192.087 64.668 192.075 64.854 192.051 65.094H184.149C184.269 66.006 184.653 66.732 185.301 67.272C185.961 67.8 186.771 68.064 187.731 68.064C188.415 68.064 189.003 67.926 189.495 67.65C189.999 67.362 190.377 66.99 190.629 66.534L191.673 67.146C191.277 67.782 190.737 68.286 190.053 68.658C189.369 69.03 188.589 69.216 187.713 69.216C186.297 69.216 185.145 68.772 184.257 67.884C183.369 66.996 182.925 65.868 182.925 64.5C182.925 63.156 183.363 62.034 184.239 61.134C185.115 60.234 186.243 59.784 187.623 59.784ZM187.623 60.936C186.687 60.936 185.901 61.218 185.265 61.782C184.641 62.334 184.269 63.054 184.149 63.942H190.863C190.743 62.994 190.377 62.256 189.765 61.728C189.153 61.2 188.439 60.936 187.623 60.936ZM193.977 69V55.86H195.165V69H193.977ZM199.666 67.47L198.586 71.52H197.506L198.226 67.47H199.666ZM210.65 69.216C209.498 69.216 208.508 68.946 207.68 68.406C206.864 67.854 206.294 67.098 205.97 66.138L207.05 65.508C207.278 66.288 207.698 66.9 208.31 67.344C208.922 67.776 209.708 67.992 210.668 67.992C211.604 67.992 212.33 67.788 212.846 67.38C213.374 66.96 213.638 66.408 213.638 65.724C213.638 65.064 213.398 64.566 212.918 64.23C212.438 63.894 211.646 63.546 210.542 63.186C209.234 62.754 208.37 62.406 207.95 62.142C206.99 61.566 206.51 60.732 206.51 59.64C206.51 58.572 206.882 57.732 207.626 57.12C208.37 56.496 209.288 56.184 210.38 56.184C211.364 56.184 212.216 56.442 212.936 56.958C213.656 57.462 214.19 58.11 214.538 58.902L213.476 59.496C212.9 58.104 211.868 57.408 210.38 57.408C209.6 57.408 208.97 57.6 208.49 57.984C208.01 58.368 207.77 58.902 207.77 59.586C207.77 60.21 207.986 60.678 208.418 60.99C208.85 61.302 209.564 61.62 210.56 61.944C211.016 62.1 211.34 62.214 211.532 62.286C211.736 62.346 212.024 62.454 212.396 62.61C212.78 62.754 213.062 62.886 213.242 63.006C213.422 63.114 213.638 63.27 213.89 63.474C214.154 63.666 214.34 63.864 214.448 64.068C214.568 64.26 214.67 64.5 214.754 64.788C214.85 65.064 214.898 65.364 214.898 65.688C214.898 66.756 214.508 67.614 213.728 68.262C212.948 68.898 211.922 69.216 210.65 69.216ZM224.599 67.866C223.687 68.766 222.571 69.216 221.251 69.216C219.931 69.216 218.809 68.766 217.885 67.866C216.973 66.954 216.517 65.832 216.517 64.5C216.517 63.168 216.973 62.052 217.885 61.152C218.809 60.24 219.931 59.784 221.251 59.784C222.571 59.784 223.687 60.24 224.599 61.152C225.523 62.052 225.985 63.168 225.985 64.5C225.985 65.832 225.523 66.954 224.599 67.866ZM218.731 67.038C219.415 67.722 220.255 68.064 221.251 68.064C222.247 68.064 223.087 67.722 223.771 67.038C224.455 66.342 224.797 65.496 224.797 64.5C224.797 63.504 224.455 62.664 223.771 61.98C223.087 61.284 222.247 60.936 221.251 60.936C220.255 60.936 219.415 61.284 218.731 61.98C218.047 62.664 217.705 63.504 217.705 64.5C217.705 65.496 218.047 66.342 218.731 67.038ZM227.973 69V55.86H229.161V69H227.973ZM239.224 67.866C238.312 68.766 237.196 69.216 235.876 69.216C234.556 69.216 233.434 68.766 232.51 67.866C231.598 66.954 231.142 65.832 231.142 64.5C231.142 63.168 231.598 62.052 232.51 61.152C233.434 60.24 234.556 59.784 235.876 59.784C237.196 59.784 238.312 60.24 239.224 61.152C240.148 62.052 240.61 63.168 240.61 64.5C240.61 65.832 240.148 66.954 239.224 67.866ZM233.356 67.038C234.04 67.722 234.88 68.064 235.876 68.064C236.872 68.064 237.712 67.722 238.396 67.038C239.08 66.342 239.422 65.496 239.422 64.5C239.422 63.504 239.08 62.664 238.396 61.98C237.712 61.284 236.872 60.936 235.876 60.936C234.88 60.936 234.04 61.284 233.356 61.98C232.672 62.664 232.33 63.504 232.33 64.5C232.33 65.496 232.672 66.342 233.356 67.038ZM242.598 69V55.86H243.786V69H242.598ZM252.517 56.4L250.789 58.74H249.637L251.077 56.4H252.517ZM254.047 60H255.235V69H254.047V67.236C253.219 68.556 252.007 69.216 250.411 69.216C249.127 69.216 248.029 68.76 247.117 67.848C246.217 66.936 245.767 65.82 245.767 64.5C245.767 63.18 246.217 62.064 247.117 61.152C248.029 60.24 249.127 59.784 250.411 59.784C252.007 59.784 253.219 60.444 254.047 61.764V60ZM247.981 67.038C248.665 67.722 249.505 68.064 250.501 68.064C251.497 68.064 252.337 67.722 253.021 67.038C253.705 66.342 254.047 65.496 254.047 64.5C254.047 63.504 253.705 62.664 253.021 61.98C252.337 61.284 251.497 60.936 250.501 60.936C249.505 60.936 248.665 61.284 247.981 61.98C247.297 62.664 246.955 63.504 246.955 64.5C246.955 65.496 247.297 66.342 247.981 67.038Z" fill="white"/>
<g clip-path="url(#clip0_812_979)">
<path d="M80.5284 41.5612C79.7177 41.5612 79.0597 42.2192 79.0597 43.0299V59.661L67.3105 64.3607V48.9045C67.3105 48.0938 66.6525 47.4358 65.8418 47.4358C65.0311 47.4358 64.3732 48.0938 64.3732 48.9045V64.3577L52.6239 59.658V36.3886L59.4297 39.1115C60.1728 39.4111 61.0364 39.0469 61.3389 38.292C61.6415 37.54 61.2743 36.6853 60.5194 36.3827L51.728 32.8638C51.728 32.8638 51.728 32.8638 51.7251 32.8638L51.7016 32.855C51.352 32.714 50.9614 32.714 50.6118 32.855L50.5854 32.8638C50.5854 32.8638 50.5854 32.8638 50.5825 32.8638L35.9223 38.7296C35.3672 38.9529 35 39.4904 35 40.0926V66.5284C35 67.016 35.2438 67.4713 35.6462 67.7445C35.8929 67.9119 36.1779 67.9971 36.4687 67.9971C36.6537 67.9971 36.8388 67.9618 37.015 67.8913L51.1552 62.237L65.269 67.8825C65.269 67.8825 65.2691 67.8825 65.272 67.8825L65.2984 67.8943C65.648 68.0353 66.0386 68.0353 66.3882 67.8943L66.4146 67.8825C66.4146 67.8825 66.4146 67.8825 66.4175 67.8825L81.0777 62.0196C81.6299 61.7935 81.9971 61.2559 81.9971 60.6538V43.0299C81.9971 42.2192 81.3391 41.5612 80.5284 41.5612ZM49.6866 59.658L37.9373 64.3577V41.0854L49.6866 36.3857V59.658Z" fill="white"/>
<path d="M71.7185 26.8745C69.2893 26.8745 67.3125 28.8513 67.3125 31.2805C67.3125 33.7096 69.2893 35.6865 71.7185 35.6865C74.1476 35.6865 76.1244 33.7096 76.1244 31.2805C76.1244 28.8513 74.1476 26.8745 71.7185 26.8745ZM71.7185 32.7491C70.9078 32.7491 70.2498 32.0912 70.2498 31.2805C70.2498 30.4698 70.9078 29.8118 71.7185 29.8118C72.5292 29.8118 73.1871 30.4698 73.1871 31.2805C73.1871 32.0912 72.5292 32.7491 71.7185 32.7491Z" fill="white"/>
<path d="M71.7181 21C66.0491 21 61.4375 25.6116 61.4375 31.2806C61.4375 36.556 69.6855 45.8996 70.6254 46.9483C70.9045 47.2567 71.301 47.4358 71.7181 47.4358C72.1352 47.4358 72.5317 47.2567 72.8108 46.9483C73.7507 45.8996 81.9987 36.556 81.9987 31.2806C81.9987 25.6116 77.3871 21 71.7181 21ZM71.7181 43.726C68.5106 39.9222 64.3748 34.0828 64.3748 31.2806C64.3748 27.233 67.6705 23.9373 71.7181 23.9373C75.7657 23.9373 79.0614 27.233 79.0614 31.2806C79.0614 34.0799 74.9257 39.9222 71.7181 43.726Z" fill="white"/>
</g>
<defs>
<clipPath id="clip0_812_979">
<rect width="47" height="47" fill="white" transform="translate(35 21)"/>
</clipPath>
</defs>
</svg>
