<svg width="348" height="83" viewBox="0 0 348 83" fill="none" xmlns="http://www.w3.org/2000/svg">
<rect width="348" height="83" rx="15" fill="#FF0100"/>
<g clip-path="url(#clip0_812_981)">
<path d="M67.3892 50.5373C64.6341 50.5373 61.929 50.1064 59.3655 49.2593C58.0862 48.8235 56.6348 49.1617 55.7986 50.0113L50.7387 53.8309C44.8708 50.6986 41.2563 47.0852 38.1668 41.2614L41.874 36.3334C42.8371 35.3715 43.1826 33.9664 42.7687 32.6481C41.9179 30.0711 41.4857 27.3673 41.4857 24.611C41.4859 22.6199 39.866 21 37.875 21H29.6108C27.6199 21 26 22.6199 26 24.6108C26 47.4332 44.567 66 67.3892 66C69.3802 66 71.0001 64.3801 71.0001 62.3891V54.1481C71 52.1572 69.3801 50.5373 67.3892 50.5373Z" fill="white"/>
<path d="M49.75 31H47.25C46.5591 31 46 31.5591 46 32.25C46 32.9409 46.5591 33.5 47.25 33.5H49.75C51.8179 33.5 53.5 31.8179 53.5 29.75C53.5 27.6821 51.8179 26 49.75 26C49.0602 26 48.5 25.4396 48.5 24.75C48.5 24.0604 49.0602 23.5 49.75 23.5H52.25C52.9409 23.5 53.5 22.9409 53.5 22.2499C53.5 21.5591 52.9409 21 52.25 21H49.75C47.6821 21 46 22.6821 46 24.75C46 26.8179 47.6821 28.5 49.75 28.5C50.4396 28.5 51 29.0603 51 29.75C50.9999 30.4397 50.4396 31 49.75 31Z" fill="white"/>
<path d="M67.25 26C66.5604 26 66 25.4398 66 24.75C66 24.0602 66.5604 23.5 67.25 23.5H69.75C70.4409 23.5 71 22.9409 71 22.2499C71 21.5591 70.4409 21 69.75 21H67.25C65.1821 21 63.5 22.6821 63.5 24.75C63.5 26.8179 65.1821 28.5 67.25 28.5C67.9396 28.5 68.5 29.0603 68.5 29.75C68.5 30.4397 67.9398 31.0001 67.25 31.0001H64.75C64.0591 31 63.5 31.5591 63.5 32.25C63.5 32.9409 64.0591 33.5 64.75 33.5H67.25C69.3179 33.5 71 31.8179 71 29.75C71 27.6821 69.3179 26 67.25 26Z" fill="white"/>
<path d="M58.5 33.5C60.5679 33.5 62.25 31.8179 62.25 29.75V24.75C62.25 22.6821 60.5679 21 58.5 21C56.4321 21 54.75 22.6821 54.75 24.75V29.75C54.75 31.8179 56.4322 33.5 58.5 33.5ZM57.2501 24.75C57.2501 24.0604 57.8104 23.5 58.5001 23.5C59.1898 23.5 59.75 24.0604 59.75 24.75V29.75C59.75 30.4397 59.1898 31.0001 58.5 31.0001C57.8104 31.0001 57.25 30.4398 57.25 29.75V24.75H57.2501Z" fill="white"/>
</g>
<path d="M98.056 66H120.904V58.608H109.624L115.192 52.992C118.264 49.92 120.424 46.464 120.424 42.432C120.424 35.664 115.048 31.728 109.048 31.728C104.392 31.728 99.88 34.08 97.72 39.072L104.2 42.864C105.112 40.752 106.792 39.216 109.144 39.216C111.4 39.216 112.744 40.656 112.744 42.768C112.744 44.736 111.304 46.704 109.336 48.72L98.056 60.432V66ZM149.485 53.52H146.125V46.32H138.349V53.52H131.341L142.045 32.4H133.789L123.085 53.52V60.624H138.349V66H146.125V60.624H149.485V53.52ZM183.089 32.4V45.264H172.529V32.4H164.849V66H172.529V52.656H183.089V66H190.769V32.4H183.089ZM212.568 66.672C222.216 66.672 230.04 59.088 230.04 49.2C230.04 39.312 222.216 31.728 212.568 31.728C202.92 31.728 195.096 39.312 195.096 49.2C195.096 59.088 202.92 66.672 212.568 66.672ZM212.568 59.184C207.096 59.184 202.776 55.2 202.776 49.2C202.776 43.2 207.096 39.216 212.568 39.216C218.04 39.216 222.36 43.2 222.36 49.2C222.36 55.2 218.04 59.184 212.568 59.184ZM252.028 66H260.284L253.132 53.664C256.828 51.792 259.324 48.048 259.324 43.92C259.324 37.536 254.188 32.4 247.804 32.4H234.364V66H242.044V54.96H245.692L252.028 66ZM242.044 39.6H247.804C249.916 39.6 251.644 41.472 251.644 43.92C251.644 46.368 249.916 48.24 247.804 48.24H242.044V39.6ZM285.256 66H293.656L282.232 32.4H272.44L261.016 66H269.416L271.096 60.72H283.576L285.256 66ZM273.4 53.52L277.336 41.184L281.272 53.52H273.4ZM307.578 66.672C314.874 66.672 320.057 62.832 320.057 56.352C320.057 49.248 314.346 47.472 309.258 45.936C304.026 44.352 303.21 43.296 303.21 41.76C303.21 40.416 304.41 39.216 306.81 39.216C309.882 39.216 311.466 40.704 312.618 43.104L319.098 39.312C316.65 34.368 312.33 31.728 306.81 31.728C301.002 31.728 295.53 35.472 295.53 41.952C295.53 48.384 300.426 50.784 305.418 52.176C310.458 53.568 312.378 54.384 312.378 56.448C312.378 57.744 311.466 59.184 307.818 59.184C304.026 59.184 301.962 57.312 300.762 54.528L294.138 58.368C296.01 63.312 300.522 66.672 307.578 66.672Z" fill="white"/>
<path d="M101.4 25.92V23.44H106.4V20.4H101.4V18.08H106.9V15H98.2V29H107V25.92H101.4ZM122.805 15H119.605L115.805 21.22L112.005 15H108.805V29H112.005V20.86L115.625 26.8H115.985L119.605 20.86V29H122.805V15ZM128.412 25.92V23.44H133.412V20.4H128.412V18.08H133.912V15H125.212V29H134.012V25.92H128.412ZM143.177 29H146.617L143.637 23.86C145.177 23.08 146.217 21.52 146.217 19.8C146.217 17.14 144.077 15 141.417 15H135.817V29H139.017V24.4H140.537L143.177 29ZM139.017 18H141.417C142.297 18 143.017 18.78 143.017 19.8C143.017 20.82 142.297 21.6 141.417 21.6H139.017V18ZM161.787 21.2H154.767V24H158.507C158.007 25.34 156.787 26.16 154.927 26.16C152.207 26.16 150.527 24.42 150.527 22.04C150.527 19.58 152.287 17.84 154.647 17.84C156.227 17.84 157.487 18.56 158.067 19.48L160.787 17.92C159.607 16.04 157.347 14.72 154.667 14.72C150.547 14.72 147.327 17.96 147.327 22.02C147.327 26.04 150.487 29.28 154.887 29.28C158.807 29.28 161.787 26.68 161.787 22.4V21.2ZM166.791 25.92V23.44H171.791V20.4H166.791V18.08H172.291V15H163.591V29H172.391V25.92H166.791ZM181.996 15V22.6L176.596 15H174.196V29H177.396V21.4L182.796 29H185.196V15H181.996ZM194.275 29.28C196.835 29.28 199.075 28.02 200.275 26.04L197.515 24.44C196.915 25.52 195.695 26.16 194.275 26.16C191.795 26.16 190.195 24.5 190.195 22C190.195 19.5 191.795 17.84 194.275 17.84C195.695 17.84 196.895 18.48 197.515 19.56L200.275 17.96C199.055 15.98 196.815 14.72 194.275 14.72C190.055 14.72 186.995 17.88 186.995 22C186.995 26.12 190.055 29.28 194.275 29.28ZM201.774 15V29H204.974V15H201.774ZM216.28 29H219.78L215.02 15H210.94L206.18 29H209.68L210.38 26.8H215.58L216.28 29ZM211.34 23.8L212.98 18.66L214.62 23.8H211.34ZM225.58 29.28C228.62 29.28 230.78 27.68 230.78 24.98C230.78 22.02 228.4 21.28 226.28 20.64C224.1 19.98 223.76 19.54 223.76 18.9C223.76 18.34 224.26 17.84 225.26 17.84C226.54 17.84 227.2 18.46 227.68 19.46L230.38 17.88C229.36 15.82 227.56 14.72 225.26 14.72C222.84 14.72 220.56 16.28 220.56 18.98C220.56 21.66 222.6 22.66 224.68 23.24C226.78 23.82 227.58 24.16 227.58 25.02C227.58 25.56 227.2 26.16 225.68 26.16C224.1 26.16 223.24 25.38 222.74 24.22L219.98 25.82C220.76 27.88 222.64 29.28 225.58 29.28Z" fill="white"/>
<defs>
<clipPath id="clip0_812_981">
<rect width="45" height="45" fill="white" transform="translate(26 21)"/>
</clipPath>
</defs>
</svg>
