<svg width="349" height="80" viewBox="0 0 349 80" fill="none" xmlns="http://www.w3.org/2000/svg">
<path d="M0 15C0 6.71573 6.71573 0 15 0H334C342.284 0 349 6.71573 349 15V65C349 73.2843 342.284 80 334 80H15C6.71573 80 0 73.2843 0 65V15Z" fill="#03979B"/>
<path d="M106.7 34.812H112.46V36H105.44V23.4H106.7V34.812ZM114.084 36V22.86H115.272V36H114.084ZM124.003 23.4L122.275 25.74H121.123L122.563 23.4H124.003ZM125.533 27H126.721V36H125.533V34.236C124.705 35.556 123.493 36.216 121.897 36.216C120.613 36.216 119.515 35.76 118.603 34.848C117.703 33.936 117.253 32.82 117.253 31.5C117.253 30.18 117.703 29.064 118.603 28.152C119.515 27.24 120.613 26.784 121.897 26.784C123.493 26.784 124.705 27.444 125.533 28.764V27ZM119.467 34.038C120.151 34.722 120.991 35.064 121.987 35.064C122.983 35.064 123.823 34.722 124.507 34.038C125.191 33.342 125.533 32.496 125.533 31.5C125.533 30.504 125.191 29.664 124.507 28.98C123.823 28.284 122.983 27.936 121.987 27.936C120.991 27.936 120.151 28.284 119.467 28.98C118.783 29.664 118.441 30.504 118.441 31.5C118.441 32.496 118.783 33.342 119.467 34.038ZM138.831 26.784C139.839 26.784 140.649 27.108 141.261 27.756C141.885 28.404 142.197 29.28 142.197 30.384V36H141.009V30.384C141.009 29.604 140.805 29.004 140.397 28.584C140.001 28.152 139.473 27.936 138.813 27.936C138.069 27.936 137.463 28.188 136.995 28.692C136.539 29.184 136.311 29.958 136.311 31.014V36H135.123V30.384C135.123 29.592 134.931 28.986 134.547 28.566C134.175 28.146 133.665 27.936 133.017 27.936C132.297 27.936 131.685 28.188 131.181 28.692C130.677 29.196 130.425 29.97 130.425 31.014V36H129.237V27H130.425V28.314C131.073 27.294 131.991 26.784 133.179 26.784C134.475 26.784 135.387 27.33 135.915 28.422C136.563 27.33 137.535 26.784 138.831 26.784ZM152.234 27H153.422V36H152.234V34.236C151.406 35.556 150.194 36.216 148.598 36.216C147.314 36.216 146.216 35.76 145.304 34.848C144.404 33.936 143.954 32.82 143.954 31.5C143.954 30.18 144.404 29.064 145.304 28.152C146.216 27.24 147.314 26.784 148.598 26.784C150.194 26.784 151.406 27.444 152.234 28.764V27ZM146.168 34.038C146.852 34.722 147.692 35.064 148.688 35.064C149.684 35.064 150.524 34.722 151.208 34.038C151.892 33.342 152.234 32.496 152.234 31.5C152.234 30.504 151.892 29.664 151.208 28.98C150.524 28.284 149.684 27.936 148.688 27.936C147.692 27.936 146.852 28.284 146.168 28.98C145.484 29.664 145.142 30.504 145.142 31.5C145.142 32.496 145.484 33.342 146.168 34.038ZM160.15 26.784C161.242 26.784 162.1 27.12 162.724 27.792C163.36 28.452 163.678 29.346 163.678 30.474V36H162.49V30.474C162.49 29.67 162.274 29.046 161.842 28.602C161.422 28.158 160.822 27.936 160.042 27.936C159.178 27.936 158.476 28.212 157.936 28.764C157.396 29.304 157.126 30.144 157.126 31.284V36H155.938V27H157.126V28.404C157.798 27.324 158.806 26.784 160.15 26.784ZM173.517 34.866C172.605 35.766 171.489 36.216 170.169 36.216C168.849 36.216 167.727 35.766 166.803 34.866C165.891 33.954 165.435 32.832 165.435 31.5C165.435 30.168 165.891 29.052 166.803 28.152C167.727 27.24 168.849 26.784 170.169 26.784C171.489 26.784 172.605 27.24 173.517 28.152C174.441 29.052 174.903 30.168 174.903 31.5C174.903 32.832 174.441 33.954 173.517 34.866ZM167.649 34.038C168.333 34.722 169.173 35.064 170.169 35.064C171.165 35.064 172.005 34.722 172.689 34.038C173.373 33.342 173.715 32.496 173.715 31.5C173.715 30.504 173.373 29.664 172.689 28.98C172.005 28.284 171.165 27.936 170.169 27.936C169.173 27.936 168.333 28.284 167.649 28.98C166.965 29.664 166.623 30.504 166.623 31.5C166.623 32.496 166.965 33.342 167.649 34.038ZM177.651 29.358C177.651 29.766 177.831 30.09 178.191 30.33C178.551 30.57 178.989 30.756 179.505 30.888C180.021 31.02 180.537 31.17 181.053 31.338C181.569 31.494 182.007 31.764 182.367 32.148C182.727 32.52 182.907 33.012 182.907 33.624C182.907 34.392 182.601 35.016 181.989 35.496C181.389 35.976 180.609 36.216 179.649 36.216C178.785 36.216 178.047 36.024 177.435 35.64C176.835 35.256 176.415 34.758 176.175 34.146L177.183 33.552C177.351 34.02 177.651 34.392 178.083 34.668C178.527 34.932 179.049 35.064 179.649 35.064C180.237 35.064 180.729 34.95 181.125 34.722C181.521 34.482 181.719 34.116 181.719 33.624C181.719 33.216 181.539 32.892 181.179 32.652C180.819 32.412 180.381 32.226 179.865 32.094C179.349 31.962 178.833 31.818 178.317 31.662C177.801 31.494 177.363 31.224 177.003 30.852C176.643 30.468 176.463 29.97 176.463 29.358C176.463 28.626 176.751 28.014 177.327 27.522C177.915 27.03 178.653 26.784 179.541 26.784C180.273 26.784 180.915 26.952 181.467 27.288C182.019 27.612 182.427 28.056 182.691 28.62L181.701 29.196C181.353 28.356 180.633 27.936 179.541 27.936C179.025 27.936 178.581 28.062 178.209 28.314C177.837 28.554 177.651 28.902 177.651 29.358ZM197.129 27H198.317V36H197.129V34.236C196.301 35.556 195.089 36.216 193.493 36.216C192.209 36.216 191.111 35.76 190.199 34.848C189.299 33.936 188.849 32.82 188.849 31.5C188.849 30.18 189.299 29.064 190.199 28.152C191.111 27.24 192.209 26.784 193.493 26.784C195.089 26.784 196.301 27.444 197.129 28.764V27ZM191.063 34.038C191.747 34.722 192.587 35.064 193.583 35.064C194.579 35.064 195.419 34.722 196.103 34.038C196.787 33.342 197.129 32.496 197.129 31.5C197.129 30.504 196.787 29.664 196.103 28.98C195.419 28.284 194.579 27.936 193.583 27.936C192.587 27.936 191.747 28.284 191.063 28.98C190.379 29.664 190.037 30.504 190.037 31.5C190.037 32.496 190.379 33.342 191.063 34.038ZM200.832 36V22.86H202.02V36H200.832ZM213.721 23.4C214.849 23.4 215.791 23.778 216.547 24.534C217.303 25.29 217.681 26.232 217.681 27.36C217.681 28.488 217.303 29.43 216.547 30.186C215.791 30.942 214.849 31.32 213.721 31.32H210.481V36H209.221V23.4H213.721ZM213.721 30.132C214.501 30.132 215.143 29.874 215.647 29.358C216.163 28.83 216.421 28.164 216.421 27.36C216.421 26.556 216.163 25.896 215.647 25.38C215.143 24.852 214.501 24.588 213.721 24.588H210.481V30.132H213.721ZM226.822 29.466C227.434 29.73 227.92 30.132 228.28 30.672C228.652 31.2 228.838 31.806 228.838 32.49C228.838 33.462 228.496 34.29 227.812 34.974C227.128 35.658 226.3 36 225.328 36H219.838V23.4H224.914C225.85 23.4 226.648 23.736 227.308 24.408C227.968 25.068 228.298 25.86 228.298 26.784C228.298 27.96 227.806 28.854 226.822 29.466ZM224.914 24.588H221.098V28.98H224.914C225.502 28.98 226 28.77 226.408 28.35C226.828 27.918 227.038 27.396 227.038 26.784C227.038 26.184 226.828 25.668 226.408 25.236C226 24.804 225.502 24.588 224.914 24.588ZM225.328 34.812C225.952 34.812 226.48 34.59 226.912 34.146C227.356 33.69 227.578 33.138 227.578 32.49C227.578 31.854 227.356 31.308 226.912 30.852C226.48 30.396 225.952 30.168 225.328 30.168H221.098V34.812H225.328ZM239.465 36H238.025L234.605 30.618L231.185 36H229.745L233.885 29.502L230.015 23.4H231.437L234.605 28.368L237.773 23.4H239.195L235.325 29.502L239.465 36ZM242.598 28.512C242.406 28.704 242.172 28.8 241.896 28.8C241.62 28.8 241.386 28.704 241.194 28.512C241.002 28.32 240.906 28.086 240.906 27.81C240.906 27.534 241.002 27.3 241.194 27.108C241.386 26.916 241.62 26.82 241.896 26.82C242.172 26.82 242.406 26.916 242.598 27.108C242.79 27.3 242.886 27.534 242.886 27.81C242.886 28.086 242.79 28.32 242.598 28.512ZM242.598 35.892C242.406 36.084 242.172 36.18 241.896 36.18C241.62 36.18 241.386 36.084 241.194 35.892C241.002 35.7 240.906 35.466 240.906 35.19C240.906 34.914 241.002 34.68 241.194 34.488C241.386 34.296 241.62 34.2 241.896 34.2C242.172 34.2 242.406 34.296 242.598 34.488C242.79 34.68 242.886 34.914 242.886 35.19C242.886 35.466 242.79 35.7 242.598 35.892ZM112.64 48.124V49.276H109.436V52.48H108.284V49.276H105.08V48.124H108.284V44.92H109.436V48.124H112.64ZM118.491 47.476C119.667 47.476 120.663 47.824 121.479 48.52C122.307 49.204 122.721 50.146 122.721 51.346C122.721 52.546 122.307 53.494 121.479 54.19C120.663 54.874 119.667 55.216 118.491 55.216C117.543 55.216 116.697 54.988 115.953 54.532C115.209 54.064 114.705 53.398 114.441 52.534L115.503 51.922C115.683 52.594 116.037 53.11 116.565 53.47C117.105 53.818 117.747 53.992 118.491 53.992C119.355 53.992 120.063 53.764 120.615 53.308C121.179 52.84 121.461 52.186 121.461 51.346C121.461 50.506 121.179 49.858 120.615 49.402C120.063 48.934 119.355 48.7 118.491 48.7H115.071L115.521 42.4H122.271V43.588H116.637L116.367 47.476H118.491ZM132.27 53.452C131.442 54.628 130.272 55.216 128.76 55.216C127.248 55.216 126.072 54.628 125.232 53.452C124.404 52.264 123.99 50.68 123.99 48.7C123.99 46.72 124.404 45.142 125.232 43.966C126.072 42.778 127.248 42.184 128.76 42.184C130.272 42.184 131.442 42.778 132.27 43.966C133.11 45.142 133.53 46.72 133.53 48.7C133.53 50.68 133.11 52.264 132.27 53.452ZM126.168 52.606C126.792 53.53 127.656 53.992 128.76 53.992C129.864 53.992 130.722 53.53 131.334 52.606C131.958 51.682 132.27 50.38 132.27 48.7C132.27 47.02 131.958 45.718 131.334 44.794C130.722 43.87 129.864 43.408 128.76 43.408C127.656 43.408 126.792 43.87 126.168 44.794C125.556 45.718 125.25 47.02 125.25 48.7C125.25 50.38 125.556 51.682 126.168 52.606ZM134.972 55V53.866L139.508 49.294C140.804 47.998 141.452 46.888 141.452 45.964C141.452 45.16 141.2 44.536 140.696 44.092C140.204 43.636 139.61 43.408 138.914 43.408C137.618 43.408 136.676 44.002 136.088 45.19L135.026 44.56C135.422 43.78 135.962 43.192 136.646 42.796C137.33 42.388 138.086 42.184 138.914 42.184C139.922 42.184 140.804 42.526 141.56 43.21C142.328 43.882 142.712 44.8 142.712 45.964C142.712 46.696 142.508 47.398 142.1 48.07C141.692 48.742 141.116 49.45 140.372 50.194L136.772 53.776H142.982V55H134.972ZM148.569 42.4H156.309V43.588L151.557 55H150.243L154.995 43.588H148.569V42.4ZM157.393 42.4H165.133V43.588L160.381 55H159.067L163.819 43.588H157.393V42.4ZM169.186 46.9C170.422 46.9 171.436 47.29 172.228 48.07C173.02 48.838 173.416 49.834 173.416 51.058C173.416 52.282 173.02 53.284 172.228 54.064C171.436 54.832 170.422 55.216 169.186 55.216C167.95 55.216 166.936 54.832 166.144 54.064C165.352 53.284 164.956 52.282 164.956 51.058C164.956 50.11 165.214 49.27 165.73 48.538L169.852 42.4H171.274L168.178 47.008C168.502 46.936 168.838 46.9 169.186 46.9ZM167.026 53.182C167.578 53.722 168.298 53.992 169.186 53.992C170.074 53.992 170.788 53.722 171.328 53.182C171.88 52.642 172.156 51.934 172.156 51.058C172.156 50.182 171.88 49.474 171.328 48.934C170.788 48.394 170.074 48.124 169.186 48.124C168.298 48.124 167.578 48.394 167.026 48.934C166.486 49.474 166.216 50.182 166.216 51.058C166.216 51.934 166.486 52.642 167.026 53.182ZM174.154 55V53.866L178.69 49.294C179.986 47.998 180.634 46.888 180.634 45.964C180.634 45.16 180.382 44.536 179.878 44.092C179.386 43.636 178.792 43.408 178.096 43.408C176.8 43.408 175.858 44.002 175.27 45.19L174.208 44.56C174.604 43.78 175.144 43.192 175.828 42.796C176.512 42.388 177.268 42.184 178.096 42.184C179.104 42.184 179.986 42.526 180.742 43.21C181.51 43.882 181.894 44.8 181.894 45.964C181.894 46.696 181.69 47.398 181.282 48.07C180.874 48.742 180.298 49.45 179.554 50.194L175.954 53.776H182.164V55H174.154ZM196.571 53.452C195.743 54.628 194.573 55.216 193.061 55.216C191.549 55.216 190.373 54.628 189.533 53.452C188.705 52.264 188.291 50.68 188.291 48.7C188.291 46.72 188.705 45.142 189.533 43.966C190.373 42.778 191.549 42.184 193.061 42.184C194.573 42.184 195.743 42.778 196.571 43.966C197.411 45.142 197.831 46.72 197.831 48.7C197.831 50.68 197.411 52.264 196.571 53.452ZM190.469 52.606C191.093 53.53 191.957 53.992 193.061 53.992C194.165 53.992 195.023 53.53 195.635 52.606C196.259 51.682 196.571 50.38 196.571 48.7C196.571 47.02 196.259 45.718 195.635 44.794C195.023 43.87 194.165 43.408 193.061 43.408C191.957 43.408 191.093 43.87 190.469 44.794C189.857 45.718 189.551 47.02 189.551 48.7C189.551 50.38 189.857 51.682 190.469 52.606ZM203.723 47.638C204.731 47.77 205.559 48.16 206.207 48.808C206.867 49.444 207.197 50.29 207.197 51.346C207.197 52.546 206.783 53.494 205.955 54.19C205.139 54.874 204.143 55.216 202.967 55.216C202.031 55.216 201.197 55 200.465 54.568C199.733 54.136 199.217 53.518 198.917 52.714L199.961 52.102C200.165 52.726 200.531 53.2 201.059 53.524C201.587 53.836 202.223 53.992 202.967 53.992C203.831 53.992 204.539 53.764 205.091 53.308C205.655 52.84 205.937 52.186 205.937 51.346C205.937 50.506 205.655 49.858 205.091 49.402C204.539 48.934 203.831 48.7 202.967 48.7V48.682L202.949 48.7H202.607L202.067 47.872L205.199 43.588H199.277V42.4H206.657V43.588L203.723 47.638ZM212.516 47.476C213.692 47.476 214.688 47.824 215.504 48.52C216.332 49.204 216.746 50.146 216.746 51.346C216.746 52.546 216.332 53.494 215.504 54.19C214.688 54.874 213.692 55.216 212.516 55.216C211.568 55.216 210.722 54.988 209.978 54.532C209.234 54.064 208.73 53.398 208.466 52.534L209.528 51.922C209.708 52.594 210.062 53.11 210.59 53.47C211.13 53.818 211.772 53.992 212.516 53.992C213.38 53.992 214.088 53.764 214.64 53.308C215.204 52.84 215.486 52.186 215.486 51.346C215.486 50.506 215.204 49.858 214.64 49.402C214.088 48.934 213.38 48.7 212.516 48.7H209.096L209.546 42.4H216.296V43.588H210.662L210.392 47.476H212.516ZM217.484 55V53.866L222.02 49.294C223.316 47.998 223.964 46.888 223.964 45.964C223.964 45.16 223.712 44.536 223.208 44.092C222.716 43.636 222.122 43.408 221.426 43.408C220.13 43.408 219.188 44.002 218.6 45.19L217.538 44.56C217.934 43.78 218.474 43.192 219.158 42.796C219.842 42.388 220.598 42.184 221.426 42.184C222.434 42.184 223.316 42.526 224.072 43.21C224.84 43.882 225.224 44.8 225.224 45.964C225.224 46.696 225.02 47.398 224.612 48.07C224.204 48.742 223.628 49.45 222.884 50.194L219.284 53.776H225.494V55H217.484Z" fill="white"/>
<g clip-path="url(#clip0_812_977)">
<path d="M57.9878 26.274C66.6508 26.359 72.0778 25.82 72.8108 35.422H83.3748C83.3748 20.547 70.4018 18.542 57.7128 18.542C45.0228 18.542 32.0508 20.547 32.0508 35.422H42.5328C43.3438 25.637 49.3968 26.19 57.9878 26.274Z" fill="white"/>
<path d="M37.291 40.2041C39.864 40.2041 42.005 40.3581 42.481 37.8271C42.545 37.4831 42.582 37.0931 42.582 36.6421H42.46H32C32 40.4071 34.369 40.2041 37.291 40.2041Z" fill="white"/>
<path d="M72.8803 36.6421H72.7812C72.7812 37.0961 72.8203 37.4871 72.8933 37.8271C73.3953 40.1611 75.5333 40.0161 78.0973 40.0161C81.0333 40.0161 83.4132 40.2091 83.4132 36.6421H72.8803Z" fill="white"/>
<path d="M67.7188 34.0781V32.5821C67.7188 31.9131 66.9478 31.8711 65.9958 31.8711H64.4408C63.4898 31.8711 62.7188 31.9131 62.7188 32.5821V33.8711V34.8711H51.7188V33.8711V32.5821C51.7188 31.9131 50.9478 31.8711 49.9968 31.8711H48.4408C47.4898 31.8711 46.7188 31.9131 46.7188 32.5821V34.0781V35.3841C44.2128 37.9881 36.0128 49.0731 35.7148 50.4151L35.7188 59.3701C35.7188 60.1971 36.3918 60.8701 37.2188 60.8701H77.2188C78.0458 60.8701 78.7188 60.1971 78.7188 59.3701V50.3701C78.4238 49.0671 70.2258 37.9871 67.7188 35.3831V34.0781ZM51.1768 51.6201C50.3718 51.6201 49.7188 50.9681 49.7188 50.1621C49.7188 49.3561 50.3718 48.7041 51.1768 48.7041C51.9818 48.7041 52.6348 49.3561 52.6348 50.1621C52.6348 50.9681 51.9818 51.6201 51.1768 51.6201ZM51.1768 46.6201C50.3718 46.6201 49.7188 45.9681 49.7188 45.1621C49.7188 44.3561 50.3718 43.7041 51.1768 43.7041C51.9818 43.7041 52.6348 44.3561 52.6348 45.1621C52.6348 45.9681 51.9818 46.6201 51.1768 46.6201ZM51.1768 41.6211C50.3718 41.6211 49.7188 40.9691 49.7188 40.1631C49.7188 39.3581 50.3718 38.7051 51.1768 38.7051C51.9818 38.7051 52.6348 39.3581 52.6348 40.1631C52.6348 40.9691 51.9818 41.6211 51.1768 41.6211ZM57.1768 51.6201C56.3718 51.6201 55.7188 50.9681 55.7188 50.1621C55.7188 49.3561 56.3718 48.7041 57.1768 48.7041C57.9828 48.7041 58.6348 49.3561 58.6348 50.1621C58.6348 50.9681 57.9828 51.6201 57.1768 51.6201ZM57.1768 46.6201C56.3718 46.6201 55.7188 45.9681 55.7188 45.1621C55.7188 44.3561 56.3718 43.7041 57.1768 43.7041C57.9828 43.7041 58.6348 44.3561 58.6348 45.1621C58.6348 45.9681 57.9828 46.6201 57.1768 46.6201ZM57.1768 41.6211C56.3718 41.6211 55.7188 40.9691 55.7188 40.1631C55.7188 39.3581 56.3718 38.7051 57.1768 38.7051C57.9828 38.7051 58.6348 39.3581 58.6348 40.1631C58.6348 40.9691 57.9828 41.6211 57.1768 41.6211ZM63.1768 51.6201C62.3708 51.6201 61.7188 50.9681 61.7188 50.1621C61.7188 49.3561 62.3708 48.7041 63.1768 48.7041C63.9828 48.7041 64.6348 49.3561 64.6348 50.1621C64.6348 50.9681 63.9828 51.6201 63.1768 51.6201ZM63.1768 46.6201C62.3708 46.6201 61.7188 45.9681 61.7188 45.1621C61.7188 44.3561 62.3708 43.7041 63.1768 43.7041C63.9828 43.7041 64.6348 44.3561 64.6348 45.1621C64.6348 45.9681 63.9828 46.6201 63.1768 46.6201ZM63.1768 41.6211C62.3708 41.6211 61.7188 40.9691 61.7188 40.1631C61.7188 39.3581 62.3708 38.7051 63.1768 38.7051C63.9828 38.7051 64.6348 39.3581 64.6348 40.1631C64.6348 40.9691 63.9828 41.6211 63.1768 41.6211Z" fill="white"/>
</g>
<defs>
<clipPath id="clip0_812_977">
<rect width="51.413" height="51.413" fill="white" transform="translate(32 14)"/>
</clipPath>
</defs>
</svg>
