<svg width="349" height="80" viewBox="0 0 349 80" fill="none" xmlns="http://www.w3.org/2000/svg">
<path d="M0 15C0 6.71573 6.71573 0 15 0H334C342.284 0 349 6.71573 349 15V65C349 73.2843 342.284 80 334 80H15C6.71573 80 0 73.2843 0 65V15Z" fill="#33CCFF"/>
<g clip-path="url(#clip0_812_980)">
<path d="M291.018 12.9927C286.096 13.6568 281.261 15.7043 277.397 18.7545C273.1 22.1487 270.33 26.4904 269.391 31.3125C269.107 32.7694 268.986 34.3602 268.858 36.0454C268.362 42.6158 267.674 46.6058 262.303 46.6058C261.678 46.6058 261.106 46.9602 260.825 47.5193C260.547 48.081 260.607 48.7504 260.985 49.2492C268.293 58.9459 280.101 59.9828 292.268 59.9907C296.349 59.9907 300.654 59.7938 304.497 58.3605C311.32 55.8169 317.069 50.097 319.142 43.7892C321.484 36.6702 320.394 29.4672 316.082 23.5032C311.28 16.8698 303.038 12.7485 294.57 12.7485C293.383 12.7538 292.189 12.8325 291.018 12.9927V12.9927Z" fill="white"/>
<path d="M294.566 11.1028C282.535 11.1028 270.085 19.109 267.764 30.9977C267.061 34.6097 267.318 40.1195 265.982 42.9572C264.328 46.4694 261.005 43.4533 259.343 46.7844C258.784 47.9053 258.908 49.2467 259.661 50.2468C267.371 60.4764 279.608 61.6472 292.261 61.6472C300.965 61.6472 307.693 60.4475 314.442 53.969C331.176 37.9119 318.351 11.1028 294.566 11.1028V11.1028ZM294.566 14.405C309.449 14.405 322.695 27.6928 317.571 43.2748C315.508 49.5512 309.756 54.6358 303.916 56.8145C300.107 58.2347 295.66 58.3397 292.263 58.3397C281.241 58.3397 269.476 57.7753 262.299 48.2544C271.641 48.2544 269.796 37.8148 271.006 31.625C273.009 21.3692 284.063 14.405 294.566 14.405V14.405Z" fill="black"/>
<path d="M285.101 60.7021C285.414 64.3509 282.712 67.5612 279.064 67.8736C275.415 68.186 272.205 65.4849 271.892 61.8361C271.577 58.1874 274.281 54.977 277.93 54.6646C281.576 54.3496 284.786 57.0534 285.101 60.7021Z" fill="black"/>
<path d="M281.109 61.0434C281.232 62.4871 280.164 63.7603 278.717 63.8836C277.273 64.007 276 62.9386 275.877 61.4923C275.754 60.0485 276.822 58.7754 278.268 58.652C279.712 58.5286 280.985 59.5996 281.109 61.0434V61.0434Z" fill="white"/>
<path d="M307.832 60.7021C308.147 64.3509 305.443 67.5612 301.794 67.8736C293.064 68.6244 291.911 55.4154 300.66 54.6646C304.307 54.3496 307.517 57.0534 307.832 60.7021Z" fill="black"/>
<path d="M303.843 61.0434C303.966 62.4871 302.898 63.7603 301.452 63.8836C300.008 64.007 298.735 62.9386 298.611 61.4923C298.488 60.0485 299.556 58.7754 301.003 58.652C302.446 58.5286 303.72 59.5996 303.843 61.0434Z" fill="white"/>
<path d="M288.997 30.8585C288.997 32.612 287.577 34.0295 285.826 34.0295C284.075 34.0295 282.652 32.612 282.652 30.8585C282.652 29.1076 284.072 27.6875 285.823 27.6875C287.574 27.6875 288.997 29.1076 288.997 30.8585Z" fill="black"/>
<path d="M304.143 30.3624C304.143 32.1159 302.723 33.5334 300.972 33.5334C299.221 33.5334 297.801 32.1133 297.801 30.3624C297.801 28.6115 299.221 27.1914 300.972 27.1914C302.725 27.1914 304.143 28.6115 304.143 30.3624Z" fill="black"/>
<path d="M293.445 47.8659C287.441 47.8659 282.771 43.6317 282.26 39.164C282.01 36.9879 285.294 36.623 285.541 38.786C285.945 42.3035 290.15 44.6529 293.686 44.5584C298.193 44.4402 301.173 41.7444 301.784 39.143C302.286 37.0167 305.499 37.7701 305 39.899C304.016 44.0911 299.519 47.8659 293.445 47.8659Z" fill="black"/>
</g>
<path d="M28.2 22V36H31.4V22H28.2ZM36.7055 27.78V26H33.7055V36H36.7055V31.48C36.7055 29.5 38.4655 29 39.7055 29.2V25.8C38.4455 25.8 37.1055 26.44 36.7055 27.78ZM53.3678 26V26.94C52.7078 26.18 51.7278 25.72 50.3878 25.72C47.7678 25.72 45.6078 28.02 45.6078 31C45.6078 33.98 47.7678 36.28 50.3878 36.28C51.7278 36.28 52.7078 35.82 53.3678 35.06V36H56.3678V26H53.3678ZM50.9878 33.44C49.6078 33.44 48.6078 32.5 48.6078 31C48.6078 29.5 49.6078 28.56 50.9878 28.56C52.3678 28.56 53.3678 29.5 53.3678 31C53.3678 32.5 52.3678 33.44 50.9878 33.44ZM70.3488 36.28C72.9088 36.28 75.1488 35.02 76.3488 33.04L73.5888 31.44C72.9888 32.52 71.7688 33.16 70.3488 33.16C67.8688 33.16 66.2688 31.5 66.2688 29C66.2688 26.5 67.8688 24.84 70.3488 24.84C71.7688 24.84 72.9688 25.48 73.5888 26.56L76.3488 24.96C75.1288 22.98 72.8888 21.72 70.3488 21.72C66.1288 21.72 63.0688 24.88 63.0688 29C63.0688 33.12 66.1288 36.28 70.3488 36.28ZM80.5261 32.2H87.6261C87.7061 31.82 87.7461 31.42 87.7461 31C87.7461 27.98 85.5861 25.72 82.6661 25.72C79.5061 25.72 77.3461 28.02 77.3461 31C77.3461 33.98 79.4661 36.28 82.8861 36.28C84.7861 36.28 86.2661 35.58 87.2461 34.22L84.8461 32.84C84.4461 33.28 83.7461 33.6 82.9261 33.6C81.8261 33.6 80.9061 33.24 80.5261 32.2ZM80.4661 29.96C80.7461 28.94 81.5061 28.38 82.6461 28.38C83.5461 28.38 84.4461 28.8 84.7661 29.96H80.4661ZM95.3077 25.72C93.9877 25.72 92.9877 26.2 92.4477 26.94V26H89.4477V36H92.4477V30.54C92.4477 29.12 93.2077 28.48 94.3077 28.48C95.2677 28.48 96.0477 29.06 96.0477 30.3V36H99.0477V29.86C99.0477 27.16 97.3277 25.72 95.3077 25.72ZM106.968 28.88V26H104.908V23.2L101.908 24.1V26H100.308V28.88H101.908V32.42C101.908 35.22 103.048 36.4 106.968 36V33.28C105.648 33.36 104.908 33.28 104.908 32.42V28.88H106.968ZM111.862 27.78V26H108.862V36H111.862V31.48C111.862 29.5 113.622 29 114.862 29.2V25.8C113.602 25.8 112.262 26.44 111.862 27.78ZM120.771 36.28C123.711 36.28 126.071 33.98 126.071 31C126.071 28.02 123.711 25.72 120.771 25.72C117.831 25.72 115.471 28.02 115.471 31C115.471 33.98 117.831 36.28 120.771 36.28ZM120.771 33.36C119.471 33.36 118.471 32.42 118.471 31C118.471 29.58 119.471 28.64 120.771 28.64C122.071 28.64 123.071 29.58 123.071 31C123.071 32.42 122.071 33.36 120.771 33.36ZM146.868 22H143.668L139.868 28.22L136.068 22H132.868V36H136.068V27.86L139.688 33.8H140.048L143.668 27.86V36H146.868V22ZM151.854 32.2H158.954C159.034 31.82 159.074 31.42 159.074 31C159.074 27.98 156.914 25.72 153.994 25.72C150.834 25.72 148.674 28.02 148.674 31C148.674 33.98 150.794 36.28 154.214 36.28C156.114 36.28 157.594 35.58 158.574 34.22L156.174 32.84C155.774 33.28 155.074 33.6 154.254 33.6C153.154 33.6 152.234 33.24 151.854 32.2ZM151.794 29.96C152.074 28.94 152.834 28.38 153.974 28.38C154.874 28.38 155.774 28.8 156.094 29.96H151.794ZM167.938 22V26.94C167.278 26.18 166.298 25.72 164.958 25.72C162.338 25.72 160.178 28.02 160.178 31C160.178 33.98 162.338 36.28 164.958 36.28C166.298 36.28 167.278 35.82 167.938 35.06V36H170.938V22H167.938ZM165.558 33.44C164.178 33.44 163.178 32.5 163.178 31C163.178 29.5 164.178 28.56 165.558 28.56C166.938 28.56 167.938 29.5 167.938 31C167.938 32.5 166.938 33.44 165.558 33.44ZM174.639 25.12C175.619 25.12 176.439 24.3 176.439 23.32C176.439 22.34 175.619 21.52 174.639 21.52C173.659 21.52 172.839 22.34 172.839 23.32C172.839 24.3 173.659 25.12 174.639 25.12ZM173.139 36H176.139V26H173.139V36ZM183.134 36.28C185.094 36.28 186.794 35.26 187.654 33.7L185.034 32.2C184.714 32.9 183.974 33.32 183.094 33.32C181.794 33.32 180.834 32.38 180.834 31C180.834 29.62 181.794 28.68 183.094 28.68C183.974 28.68 184.694 29.1 185.034 29.8L187.654 28.28C186.794 26.74 185.074 25.72 183.134 25.72C180.094 25.72 177.834 28.02 177.834 31C177.834 33.98 180.094 36.28 183.134 36.28ZM193.466 36.28C196.406 36.28 198.766 33.98 198.766 31C198.766 28.02 196.406 25.72 193.466 25.72C190.526 25.72 188.166 28.02 188.166 31C188.166 33.98 190.526 36.28 193.466 36.28ZM193.466 33.36C192.166 33.36 191.166 32.42 191.166 31C191.166 29.58 192.166 28.64 193.466 28.64C194.766 28.64 195.766 29.58 195.766 31C195.766 32.42 194.766 33.36 193.466 33.36ZM210.463 36.28C213.503 36.28 215.663 34.68 215.663 31.98C215.663 29.02 213.283 28.28 211.163 27.64C208.983 26.98 208.643 26.54 208.643 25.9C208.643 25.34 209.143 24.84 210.143 24.84C211.423 24.84 212.083 25.46 212.563 26.46L215.263 24.88C214.243 22.82 212.443 21.72 210.143 21.72C207.723 21.72 205.443 23.28 205.443 25.98C205.443 28.66 207.483 29.66 209.563 30.24C211.663 30.82 212.463 31.16 212.463 32.02C212.463 32.56 212.083 33.16 210.563 33.16C208.983 33.16 208.123 32.38 207.623 31.22L204.863 32.82C205.643 34.88 207.523 36.28 210.463 36.28ZM224.715 26V26.94C224.055 26.18 223.075 25.72 221.735 25.72C219.115 25.72 216.955 28.02 216.955 31C216.955 33.98 219.115 36.28 221.735 36.28C223.075 36.28 224.055 35.82 224.715 35.06V36H227.715V26H224.715ZM222.335 33.44C220.955 33.44 219.955 32.5 219.955 31C219.955 29.5 220.955 28.56 222.335 28.56C223.715 28.56 224.715 29.5 224.715 31C224.715 32.5 223.715 33.44 222.335 33.44ZM235.776 25.72C234.456 25.72 233.456 26.2 232.916 26.94V26H229.916V36H232.916V30.54C232.916 29.12 233.676 28.48 234.776 28.48C235.736 28.48 236.516 29.06 236.516 30.3V36H239.516V29.86C239.516 27.16 237.796 25.72 235.776 25.72ZM36.7 44.08V41H28.2V55H31.4V49.86H36.6V46.78H31.4V44.08H36.7ZM41.4906 46.78V45H38.4906V55H41.4906V50.48C41.4906 48.5 43.2506 48 44.4906 48.2V44.8C43.2306 44.8 41.8906 45.44 41.4906 46.78ZM52.86 45V45.94C52.2 45.18 51.22 44.72 49.88 44.72C47.26 44.72 45.1 47.02 45.1 50C45.1 52.98 47.26 55.28 49.88 55.28C51.22 55.28 52.2 54.82 52.86 54.06V55H55.86V45H52.86ZM50.48 52.44C49.1 52.44 48.1 51.5 48.1 50C48.1 48.5 49.1 47.56 50.48 47.56C51.86 47.56 52.86 48.5 52.86 50C52.86 51.5 51.86 52.44 50.48 52.44ZM63.9209 44.72C62.6009 44.72 61.6009 45.2 61.0609 45.94V45H58.0609V55H61.0609V49.54C61.0609 48.12 61.8209 47.48 62.9209 47.48C63.8809 47.48 64.6609 48.06 64.6609 49.3V55H67.6609V48.86C67.6609 46.16 65.9409 44.72 63.9209 44.72ZM74.5211 55.28C76.4811 55.28 78.1811 54.26 79.0411 52.7L76.4211 51.2C76.1011 51.9 75.3611 52.32 74.4811 52.32C73.1811 52.32 72.2211 51.38 72.2211 50C72.2211 48.62 73.1811 47.68 74.4811 47.68C75.3611 47.68 76.0811 48.1 76.4211 48.8L79.0411 47.28C78.1811 45.74 76.4611 44.72 74.5211 44.72C71.4811 44.72 69.2211 47.02 69.2211 50C69.2211 52.98 71.4811 55.28 74.5211 55.28ZM81.7484 44.12C82.7284 44.12 83.5484 43.3 83.5484 42.32C83.5484 41.34 82.7284 40.52 81.7484 40.52C80.7684 40.52 79.9484 41.34 79.9484 42.32C79.9484 43.3 80.7684 44.12 81.7484 44.12ZM80.2484 55H83.2484V45H80.2484V55ZM88.1861 47.92C88.1861 47.56 88.5061 47.36 89.0261 47.36C89.6861 47.36 90.0861 47.72 90.3661 48.24L92.9261 46.86C92.0861 45.44 90.6461 44.72 89.0261 44.72C86.9461 44.72 85.1061 45.82 85.1061 48C85.1061 51.46 90.0261 50.88 90.0261 51.98C90.0261 52.38 89.6661 52.6 88.9461 52.6C88.0661 52.6 87.5061 52.18 87.2461 51.42L84.6461 52.9C85.4261 54.52 86.9461 55.28 88.9461 55.28C91.1061 55.28 93.1061 54.3 93.1061 52C93.1061 48.3 88.1861 49.06 88.1861 47.92ZM99.3063 55.28C101.266 55.28 102.966 54.26 103.826 52.7L101.206 51.2C100.886 51.9 100.146 52.32 99.2663 52.32C97.9663 52.32 97.0063 51.38 97.0063 50C97.0063 48.62 97.9663 47.68 99.2663 47.68C100.146 47.68 100.866 48.1 101.206 48.8L103.826 47.28C102.966 45.74 101.246 44.72 99.3063 44.72C96.2663 44.72 94.0063 47.02 94.0063 50C94.0063 52.98 96.2663 55.28 99.3063 55.28ZM109.638 55.28C112.578 55.28 114.938 52.98 114.938 50C114.938 47.02 112.578 44.72 109.638 44.72C106.698 44.72 104.338 47.02 104.338 50C104.338 52.98 106.698 55.28 109.638 55.28ZM109.638 52.36C108.338 52.36 107.338 51.42 107.338 50C107.338 48.58 108.338 47.64 109.638 47.64C110.938 47.64 111.938 48.58 111.938 50C111.938 51.42 110.938 52.36 109.638 52.36ZM127.615 44.72C126.275 44.72 125.295 45.18 124.635 45.94V45H121.635V59H124.635V54.06C125.295 54.82 126.275 55.28 127.615 55.28C130.235 55.28 132.395 52.98 132.395 50C132.395 47.02 130.235 44.72 127.615 44.72ZM127.015 52.44C125.635 52.44 124.635 51.5 124.635 50C124.635 48.5 125.635 47.56 127.015 47.56C128.395 47.56 129.395 48.5 129.395 50C129.395 51.5 128.395 52.44 127.015 52.44ZM138.896 55.28C141.836 55.28 144.196 52.98 144.196 50C144.196 47.02 141.836 44.72 138.896 44.72C135.956 44.72 133.596 47.02 133.596 50C133.596 52.98 135.956 55.28 138.896 55.28ZM138.896 52.36C137.596 52.36 136.596 51.42 136.596 50C136.596 48.58 137.596 47.64 138.896 47.64C140.196 47.64 141.196 48.58 141.196 50C141.196 51.42 140.196 52.36 138.896 52.36ZM148.893 46.78V45H145.893V55H148.893V50.48C148.893 48.5 150.653 48 151.893 48.2V44.8C150.633 44.8 149.293 45.44 148.893 46.78ZM161.255 55H164.895L167.175 46.74L169.455 55H173.095L176.955 41H173.595L171.175 50.8L168.475 41H165.875L163.175 50.8L160.755 41H157.395L161.255 55ZM184.325 45V45.94C183.665 45.18 182.685 44.72 181.345 44.72C178.725 44.72 176.565 47.02 176.565 50C176.565 52.98 178.725 55.28 181.345 55.28C182.685 55.28 183.665 54.82 184.325 54.06V55H187.325V45H184.325ZM181.945 52.44C180.565 52.44 179.565 51.5 179.565 50C179.565 48.5 180.565 47.56 181.945 47.56C183.325 47.56 184.325 48.5 184.325 50C184.325 51.5 183.325 52.44 181.945 52.44ZM193.246 52.2L197.026 47V45H189.426V47.8H193.006L189.226 53V55H197.226V52.2H193.246ZM201.093 51.2H208.193C208.273 50.82 208.313 50.42 208.313 50C208.313 46.98 206.153 44.72 203.233 44.72C200.073 44.72 197.913 47.02 197.913 50C197.913 52.98 200.033 55.28 203.453 55.28C205.353 55.28 206.833 54.58 207.813 53.22L205.413 51.84C205.013 52.28 204.313 52.6 203.493 52.6C202.393 52.6 201.473 52.24 201.093 51.2ZM201.033 48.96C201.313 47.94 202.073 47.38 203.213 47.38C204.113 47.38 205.013 47.8 205.333 48.96H201.033Z" fill="white"/>
<defs>
<clipPath id="clip0_812_980">
<rect width="63" height="63" fill="white" transform="translate(259 8)"/>
</clipPath>
</defs>
</svg>
