<svg width="170" height="41" viewBox="0 0 170 41" fill="none" xmlns="http://www.w3.org/2000/svg">
<path d="M161.179 41H8.2793C6.15757 41 4.12273 40.1572 2.62244 38.6569C1.12215 37.1566 0.279297 35.1217 0.279297 33V8.38C0.279297 6.25827 1.12215 4.22344 2.62244 2.72314C4.12273 1.22285 6.15757 0.380005 8.2793 0.380005H161.179C163.301 0.380005 165.336 1.22285 166.836 2.72314C168.336 4.22344 169.179 6.25827 169.179 8.38V33C169.179 35.1217 168.336 37.1566 166.836 38.6569C165.336 40.1572 163.301 41 161.179 41Z" fill="#000738"/>
<path d="M36.8287 24C36.6926 23.8398 36.5233 23.7111 36.3325 23.6228C36.1417 23.5346 35.9339 23.4889 35.7237 23.4889C35.5135 23.4889 35.3058 23.5346 35.115 23.6228C34.9242 23.7111 34.7548 23.8398 34.6187 24C34.0987 24.51 33.6187 25 33.0687 25.54C33.0476 25.5742 33.0196 25.6036 32.9864 25.6264C32.9533 25.6492 32.9158 25.6649 32.8763 25.6724C32.8368 25.6799 32.7962 25.6791 32.757 25.6701C32.7178 25.6611 32.681 25.644 32.6487 25.62C32.3087 25.44 31.9587 25.29 31.6487 25.09C30.1744 24.1369 28.8669 22.9477 27.7787 21.57C27.2141 20.9004 26.7493 20.1527 26.3987 19.35C26.3596 19.2845 26.3452 19.2073 26.358 19.1321C26.3709 19.0569 26.4101 18.9888 26.4687 18.94C26.9887 18.44 27.4687 17.94 28.0087 17.41C28.1745 17.2721 28.3079 17.0993 28.3995 16.904C28.491 16.7087 28.5385 16.4957 28.5385 16.28C28.5385 16.0643 28.491 15.8513 28.3995 15.656C28.3079 15.4607 28.1745 15.2879 28.0087 15.15L26.7987 13.93C26.3787 13.51 25.9687 13.09 25.5387 12.68C25.4007 12.5227 25.2308 12.3967 25.0403 12.3104C24.8497 12.2241 24.6429 12.1795 24.4337 12.1795C24.2245 12.1795 24.0178 12.2241 23.8272 12.3104C23.6366 12.3967 23.4667 12.5227 23.3287 12.68C22.8087 13.19 22.3287 13.68 21.7787 14.23C21.304 14.6721 21.0205 15.2821 20.9887 15.93C20.9447 16.991 21.1324 18.0489 21.5387 19.03C22.3244 21.0666 23.458 22.9513 24.8887 24.6C26.7688 26.8494 29.1032 28.676 31.7387 29.96C32.9186 30.5783 34.211 30.9524 35.5387 31.06C35.9795 31.1133 36.4266 31.0583 36.8414 30.8997C37.2561 30.7411 37.6259 30.4838 37.9187 30.15C38.3687 29.66 38.9187 29.21 39.3387 28.73C39.5013 28.5911 39.6318 28.4185 39.7212 28.2243C39.8107 28.0301 39.8571 27.8188 39.8571 27.605C39.8571 27.3912 39.8107 27.1799 39.7212 26.9857C39.6318 26.7914 39.5013 26.619 39.3387 26.48L36.8287 24Z" fill="white"/>
<path d="M35.9991 20.54L37.5991 20.27C37.3422 18.7662 36.6138 17.3831 35.519 16.3207C34.4242 15.2583 33.0199 14.5716 31.5091 14.36L31.2891 15.97C32.4877 16.1341 33.5986 16.6895 34.4491 17.55C35.2648 18.3647 35.8066 19.4133 35.9991 20.55" fill="white"/>
<path d="M38.51 13.57C36.6822 11.7225 34.2951 10.5307 31.72 10.18L31.5 11.8C33.6639 12.1031 35.6754 13.0859 37.2445 14.6064C38.8136 16.127 39.859 18.1067 40.23 20.26L41.84 19.99C41.4261 17.5553 40.2619 15.3107 38.51 13.57Z" fill="white"/>
<path d="M58.8566 21.9976H63.7037V23.41H57.3639V12.175H58.8566V21.9976ZM65.0564 23.41V11.6935H66.4527V23.41H65.0564ZM75.2277 15.385H76.624V23.41H75.2277V22.0297C74.5322 23.089 73.521 23.6187 72.1942 23.6187C71.0707 23.6187 70.1131 23.2121 69.3213 22.3989C68.5295 21.575 68.1336 20.5745 68.1336 19.3975C68.1336 18.2205 68.5295 17.2254 69.3213 16.4122C70.1131 15.5883 71.0707 15.1764 72.1942 15.1764C73.521 15.1764 74.5322 15.706 75.2277 16.7653V15.385ZM72.3708 22.2705C73.184 22.2705 73.8634 21.9976 74.4091 21.4519C74.9548 20.8955 75.2277 20.2107 75.2277 19.3975C75.2277 18.5843 74.9548 17.9049 74.4091 17.3592C73.8634 16.8028 73.184 16.5246 72.3708 16.5246C71.5683 16.5246 70.8942 16.8028 70.3485 17.3592C69.8028 17.9049 69.5299 18.5843 69.5299 19.3975C69.5299 20.2107 69.8028 20.8955 70.3485 21.4519C70.8942 21.9976 71.5683 22.2705 72.3708 22.2705ZM87.4066 15.1764C88.3054 15.1764 89.033 15.4706 89.5894 16.0591C90.1458 16.6369 90.424 17.4234 90.424 18.4185V23.41H89.0277V18.4666C89.0277 17.846 88.8672 17.3645 88.5462 17.0221C88.2252 16.6797 87.7972 16.5085 87.2622 16.5085C86.663 16.5085 86.1815 16.7118 85.8177 17.1184C85.4646 17.5143 85.288 18.1242 85.288 18.9481V23.41H83.8917V18.4666C83.8917 17.846 83.7365 17.3645 83.4262 17.0221C83.1266 16.6797 82.7147 16.5085 82.1904 16.5085C81.6019 16.5085 81.1097 16.7118 80.7138 17.1184C80.3286 17.525 80.136 18.1349 80.136 18.9481V23.41H78.7396V15.385H80.136V16.4604C80.6817 15.6044 81.4788 15.1764 82.5274 15.1764C83.6081 15.1764 84.3946 15.6311 84.8868 16.5406C85.4432 15.6311 86.2831 15.1764 87.4066 15.1764ZM99.0049 15.385H100.401V23.41H99.0049V22.0297C98.3094 23.089 97.2982 23.6187 95.9714 23.6187C94.8479 23.6187 93.8903 23.2121 93.0985 22.3989C92.3067 21.575 91.9108 20.5745 91.9108 19.3975C91.9108 18.2205 92.3067 17.2254 93.0985 16.4122C93.8903 15.5883 94.8479 15.1764 95.9714 15.1764C97.2982 15.1764 98.3094 15.706 99.0049 16.7653V15.385ZM96.148 22.2705C96.9612 22.2705 97.6406 21.9976 98.1863 21.4519C98.732 20.8955 99.0049 20.2107 99.0049 19.3975C99.0049 18.5843 98.732 17.9049 98.1863 17.3592C97.6406 16.8028 96.9612 16.5246 96.148 16.5246C95.3455 16.5246 94.6714 16.8028 94.1257 17.3592C93.58 17.9049 93.3071 18.5843 93.3071 19.3975C93.3071 20.2107 93.58 20.8955 94.1257 21.4519C94.6714 21.9976 95.3455 22.2705 96.148 22.2705ZM103.913 16.7332C104.373 15.7381 105.208 15.2406 106.417 15.2406V16.7011C105.732 16.669 105.144 16.8509 104.651 17.2468C104.159 17.6427 103.913 18.2794 103.913 19.1568V23.41H102.517V15.385H103.913V16.7332ZM118.44 15.385H119.837V23.41H118.44V22.0297C117.745 23.089 116.734 23.6187 115.407 23.6187C114.283 23.6187 113.326 23.2121 112.534 22.3989C111.742 21.575 111.346 20.5745 111.346 19.3975C111.346 18.2205 111.742 17.2254 112.534 16.4122C113.326 15.5883 114.283 15.1764 115.407 15.1764C116.734 15.1764 117.745 15.706 118.44 16.7653V15.385ZM115.584 22.2705C116.397 22.2705 117.076 21.9976 117.622 21.4519C118.168 20.8955 118.44 20.2107 118.44 19.3975C118.44 18.5843 118.168 17.9049 117.622 17.3592C117.076 16.8028 116.397 16.5246 115.584 16.5246C114.781 16.5246 114.107 16.8028 113.561 17.3592C113.016 17.9049 112.743 18.5843 112.743 19.3975C112.743 20.2107 113.016 20.8955 113.561 21.4519C114.107 21.9976 114.781 22.2705 115.584 22.2705ZM125.949 15.1764C126.89 15.1764 127.645 15.476 128.212 16.0752C128.779 16.6637 129.063 17.4662 129.063 18.4827V23.41H127.666V18.5629C127.666 17.9102 127.49 17.4073 127.137 17.0542C126.783 16.6904 126.297 16.5085 125.676 16.5085C124.98 16.5085 124.419 16.7279 123.991 17.1666C123.563 17.5946 123.349 18.258 123.349 19.1568V23.41H121.952V12.175H123.349V16.5406C123.916 15.6311 124.783 15.1764 125.949 15.1764ZM137.785 22.3989C136.961 23.2121 135.961 23.6187 134.784 23.6187C133.607 23.6187 132.606 23.2121 131.782 22.3989C130.969 21.5857 130.562 20.5852 130.562 19.3975C130.562 18.2098 130.969 17.2094 131.782 16.3962C132.606 15.583 133.607 15.1764 134.784 15.1764C135.961 15.1764 136.961 15.583 137.785 16.3962C138.609 17.2094 139.021 18.2098 139.021 19.3975C139.021 20.5852 138.609 21.5857 137.785 22.3989ZM134.784 22.2544C135.586 22.2544 136.26 21.9816 136.806 21.4359C137.352 20.8902 137.624 20.2107 137.624 19.3975C137.624 18.5843 137.352 17.9049 136.806 17.3592C136.26 16.8135 135.586 16.5406 134.784 16.5406C133.992 16.5406 133.323 16.8135 132.777 17.3592C132.232 17.9049 131.959 18.5843 131.959 19.3975C131.959 20.2107 132.232 20.8902 132.777 21.4359C133.323 21.9816 133.992 22.2544 134.784 22.2544ZM142.063 16.7332C142.523 15.7381 143.358 15.2406 144.567 15.2406V16.7011C143.882 16.669 143.294 16.8509 142.802 17.2468C142.309 17.6427 142.063 18.2794 142.063 19.1568V23.41H140.667V15.385H142.063V16.7332ZM152.139 15.385H153.536V23.41H152.139V22.0297C151.444 23.089 150.433 23.6187 149.106 23.6187C147.982 23.6187 147.025 23.2121 146.233 22.3989C145.441 21.575 145.045 20.5745 145.045 19.3975C145.045 18.2205 145.441 17.2254 146.233 16.4122C147.025 15.5883 147.982 15.1764 149.106 15.1764C150.433 15.1764 151.444 15.706 152.139 16.7653V15.385ZM149.282 22.2705C150.095 22.2705 150.775 21.9976 151.321 21.4519C151.866 20.8955 152.139 20.2107 152.139 19.3975C152.139 18.5843 151.866 17.9049 151.321 17.3592C150.775 16.8028 150.095 16.5246 149.282 16.5246C148.48 16.5246 147.806 16.8028 147.26 17.3592C146.714 17.9049 146.441 18.5843 146.441 19.3975C146.441 20.2107 146.714 20.8955 147.26 21.4519C147.806 21.9976 148.48 22.2705 149.282 22.2705Z" fill="white"/>
</svg>
