<svg width="170" height="41" viewBox="0 0 170 41" fill="none" xmlns="http://www.w3.org/2000/svg">
<path d="M161.179 40.9H8.2793C6.15757 40.9 4.12273 40.0571 2.62244 38.5569C1.12215 37.0566 0.279297 35.0217 0.279297 32.9V8.28C0.279297 6.15827 1.12215 4.12343 2.62244 2.62314C4.12273 1.12285 6.15757 0.279999 8.2793 0.279999H161.179C163.301 0.279999 165.336 1.12285 166.836 2.62314C168.336 4.12343 169.179 6.15827 169.179 8.28V32.92C169.179 35.0417 168.336 37.0766 166.836 38.5768C165.336 40.0771 163.301 40.92 161.179 40.92" fill="#26D367"/>
<path d="M30.2289 9C27.1532 9.00265 24.2043 10.2256 22.0294 12.4005C19.8546 14.5753 18.6316 17.5243 18.629 20.6C18.6209 23.0445 19.3953 25.4273 20.839 27.4L19.389 31.71L23.8489 30.29C25.3591 31.2838 27.0806 31.9109 28.8761 32.1212C30.6716 32.3316 32.4914 32.1193 34.1904 31.5015C35.8893 30.8836 37.4203 29.8773 38.6612 28.5627C39.9021 27.248 40.8186 25.6616 41.3376 23.9299C41.8565 22.1982 41.9635 20.3692 41.6501 18.5887C41.3366 16.8083 40.6114 15.1258 39.5323 13.6755C38.4531 12.2251 37.05 11.0471 35.4347 10.2353C33.8194 9.42352 32.0367 9.00049 30.2289 9ZM36.999 25.39C36.7651 25.813 36.4401 26.1787 36.0475 26.4606C35.6549 26.7425 35.2045 26.9336 34.7289 27.02C34.1189 27.15 33.3289 27.26 30.6589 26.15C28.3111 25.0011 26.3175 23.239 24.889 21.05C24.0997 20.0416 23.6202 18.8257 23.509 17.55C23.4933 17.0215 23.5904 16.4958 23.7938 16.0078C23.9973 15.5198 24.3025 15.0808 24.689 14.72C25.0196 14.4379 25.4447 14.2914 25.879 14.31H26.269C26.609 14.31 26.779 14.31 27.009 14.88C27.289 15.56 28.009 17.22 28.009 17.39C28.064 17.4846 28.097 17.5903 28.1057 17.6993C28.1143 17.8084 28.0984 17.9179 28.059 18.02C27.9621 18.2163 27.8338 18.3953 27.679 18.55C27.509 18.75 27.349 18.9 27.179 19.11C27.009 19.32 26.8389 19.5 27.0389 19.84C27.5524 20.7045 28.1853 21.4923 28.9189 22.18C29.7132 22.9069 30.6402 23.4739 31.649 23.85C31.7802 23.9147 31.928 23.9378 32.0727 23.9164C32.2174 23.8949 32.3521 23.8299 32.459 23.73C32.7832 23.3428 33.0869 22.9389 33.369 22.52C33.4538 22.3852 33.5846 22.2856 33.7372 22.2397C33.8897 22.1937 34.0538 22.2045 34.199 22.27C34.519 22.38 36.199 23.2 36.509 23.37C36.819 23.54 37.0789 23.62 37.1589 23.77C37.2462 24.3148 37.1769 24.8731 36.959 25.38" fill="white"/>
<path d="M55.0631 12.155H56.5558V23.39H55.0631V12.155ZM60.2178 16.7132C60.6779 15.7181 61.5125 15.2206 62.7216 15.2206V16.6811C62.0368 16.649 61.4483 16.8309 60.9561 17.2268C60.4639 17.6227 60.2178 18.2594 60.2178 19.1368V23.39H58.8215V15.365H60.2178V16.7132ZM74.7451 15.365H76.1414V23.39H74.7451V22.0097C74.0496 23.069 73.0384 23.5987 71.7116 23.5987C70.5881 23.5987 69.6305 23.1921 68.8387 22.3789C68.0469 21.555 67.651 20.5545 67.651 19.3775C67.651 18.2005 68.0469 17.2054 68.8387 16.3922C69.6305 15.5683 70.5881 15.1564 71.7116 15.1564C73.0384 15.1564 74.0496 15.686 74.7451 16.7453V15.365ZM71.8882 22.2505C72.7014 22.2505 73.3808 21.9776 73.9265 21.4319C74.4722 20.8755 74.7451 20.1907 74.7451 19.3775C74.7451 18.5643 74.4722 17.8849 73.9265 17.3392C73.3808 16.7828 72.7014 16.5046 71.8882 16.5046C71.0857 16.5046 70.4116 16.7828 69.8659 17.3392C69.3202 17.8849 69.0473 18.5643 69.0473 19.3775C69.0473 20.1907 69.3202 20.8755 69.8659 21.4319C70.4116 21.9776 71.0857 22.2505 71.8882 22.2505ZM84.8375 23.39L81.6115 12.155H83.1844L85.7524 21.3998L88.4809 12.155H89.9896L92.7181 21.3998L95.2861 12.155H96.859L93.6329 23.39H91.8995L89.2352 14.4181L86.5709 23.39H84.8375ZM102.002 15.1564C102.944 15.1564 103.698 15.456 104.266 16.0552C104.833 16.6437 105.116 17.4462 105.116 18.4627V23.39H103.72V18.5429C103.72 17.8902 103.543 17.3873 103.19 17.0342C102.837 16.6704 102.35 16.4885 101.73 16.4885C101.034 16.4885 100.472 16.7079 100.044 17.1466C99.6164 17.5746 99.4024 18.238 99.4024 19.1368V23.39H98.006V12.155H99.4024V16.5206C99.9695 15.6111 100.836 15.1564 102.002 15.1564ZM113.71 15.365H115.107V23.39H113.71V22.0097C113.015 23.069 112.004 23.5987 110.677 23.5987C109.553 23.5987 108.596 23.1921 107.804 22.3789C107.012 21.555 106.616 20.5545 106.616 19.3775C106.616 18.2005 107.012 17.2054 107.804 16.3922C108.596 15.5683 109.553 15.1564 110.677 15.1564C112.004 15.1564 113.015 15.686 113.71 16.7453V15.365ZM110.853 22.2505C111.666 22.2505 112.346 21.9776 112.892 21.4319C113.437 20.8755 113.71 20.1907 113.71 19.3775C113.71 18.5643 113.437 17.8849 112.892 17.3392C112.346 16.7828 111.666 16.5046 110.853 16.5046C110.051 16.5046 109.377 16.7828 108.831 17.3392C108.285 17.8849 108.012 18.5643 108.012 19.3775C108.012 20.1907 108.285 20.8755 108.831 21.4319C109.377 21.9776 110.051 22.2505 110.853 22.2505ZM121.588 16.7132H119.453V21.0628C119.453 21.4587 119.528 21.7422 119.678 21.9134C119.838 22.0739 120.079 22.1595 120.4 22.1702C120.721 22.1702 121.117 22.1595 121.588 22.1381V23.39C120.368 23.5505 119.474 23.4542 118.907 23.1011C118.34 22.7373 118.057 22.0579 118.057 21.0628V16.7132H116.468V15.365H118.057V13.5353L119.453 13.118V15.365H121.588V16.7132ZM124.053 17.5318C124.053 17.8421 124.208 18.0935 124.518 18.2861C124.829 18.468 125.203 18.6178 125.642 18.7355C126.08 18.8425 126.519 18.9709 126.958 19.1207C127.397 19.2598 127.771 19.5059 128.081 19.859C128.392 20.2014 128.547 20.6455 128.547 21.1912C128.547 21.9188 128.263 22.5019 127.696 22.9406C127.14 23.3793 126.423 23.5987 125.545 23.5987C124.764 23.5987 124.096 23.4275 123.539 23.0851C122.983 22.7427 122.587 22.2879 122.351 21.7208L123.555 21.0307C123.684 21.4159 123.924 21.7208 124.277 21.9455C124.631 22.1702 125.053 22.2826 125.545 22.2826C126.006 22.2826 126.385 22.197 126.685 22.0258C126.985 21.8439 127.134 21.5657 127.134 21.1912C127.134 20.8809 126.979 20.6348 126.669 20.4529C126.359 20.2603 125.984 20.1105 125.545 20.0035C125.107 19.8858 124.668 19.752 124.229 19.6022C123.791 19.4524 123.416 19.2063 123.106 18.8639C122.796 18.5215 122.64 18.0828 122.64 17.5478C122.64 16.8523 122.908 16.2799 123.443 15.8305C123.989 15.3811 124.668 15.1564 125.481 15.1564C126.134 15.1564 126.712 15.3062 127.215 15.6058C127.728 15.8947 128.113 16.3013 128.37 16.8256L127.199 17.4836C126.91 16.7988 126.337 16.4564 125.481 16.4564C125.085 16.4564 124.748 16.5527 124.47 16.7453C124.192 16.9272 124.053 17.1894 124.053 17.5318ZM137.744 23.39L136.829 20.8702H131.773L130.858 23.39H129.269L133.458 12.155H135.143L139.333 23.39H137.744ZM132.287 19.4738H136.315L134.293 13.9366L132.287 19.4738ZM144.943 15.1564C146.067 15.1564 147.024 15.5683 147.816 16.3922C148.608 17.2054 149.004 18.2005 149.004 19.3775C149.004 20.5545 148.608 21.555 147.816 22.3789C147.024 23.1921 146.067 23.5987 144.943 23.5987C143.616 23.5987 142.605 23.069 141.91 22.0097V26.6H140.513V15.365H141.91V16.7453C142.605 15.686 143.616 15.1564 144.943 15.1564ZM144.767 22.2505C145.569 22.2505 146.243 21.9776 146.789 21.4319C147.335 20.8755 147.608 20.1907 147.608 19.3775C147.608 18.5643 147.335 17.8849 146.789 17.3392C146.243 16.7828 145.569 16.5046 144.767 16.5046C143.953 16.5046 143.274 16.7828 142.728 17.3392C142.183 17.8849 141.91 18.5643 141.91 19.3775C141.91 20.1907 142.183 20.8755 142.728 21.4319C143.274 21.9776 143.953 22.2505 144.767 22.2505ZM155.1 15.1564C156.223 15.1564 157.181 15.5683 157.973 16.3922C158.765 17.2054 159.161 18.2005 159.161 19.3775C159.161 20.5545 158.765 21.555 157.973 22.3789C157.181 23.1921 156.223 23.5987 155.1 23.5987C153.773 23.5987 152.762 23.069 152.066 22.0097V26.6H150.67V15.365H152.066V16.7453C152.762 15.686 153.773 15.1564 155.1 15.1564ZM154.923 22.2505C155.726 22.2505 156.4 21.9776 156.946 21.4319C157.491 20.8755 157.764 20.1907 157.764 19.3775C157.764 18.5643 157.491 17.8849 156.946 17.3392C156.4 16.7828 155.726 16.5046 154.923 16.5046C154.11 16.5046 153.431 16.7828 152.885 17.3392C152.339 17.8849 152.066 18.5643 152.066 19.3775C152.066 20.1907 152.339 20.8755 152.885 21.4319C153.431 21.9776 154.11 22.2505 154.923 22.2505Z" fill="white"/>
</svg>
