<svg width="170" height="42" viewBox="0 0 170 42" fill="none" xmlns="http://www.w3.org/2000/svg">
<path d="M161.669 41.08H8.76953C6.6478 41.08 4.61284 40.2371 3.11255 38.7368C1.61226 37.2366 0.769531 35.2017 0.769531 33.08V8.45999C0.769531 6.33826 1.61226 4.30342 3.11255 2.80313C4.61284 1.30284 6.6478 0.459991 8.76953 0.459991H161.669C163.791 0.459991 165.826 1.30284 167.326 2.80313C168.827 4.30342 169.669 6.33826 169.669 8.45999V33.1C169.669 35.2217 168.827 37.2566 167.326 38.7569C165.826 40.2572 163.791 41.1 161.669 41.1" fill="#712492"/>
<path d="M37.3288 24.08C37.1899 23.9225 37.0189 23.7964 36.8275 23.71C36.6362 23.6236 36.4286 23.5789 36.2187 23.5789C36.0087 23.5789 35.8012 23.6236 35.6098 23.71C35.4184 23.7964 35.2477 23.9225 35.1088 24.08L33.5688 25.63C33.5466 25.6645 33.5176 25.6941 33.4836 25.717C33.4496 25.7399 33.4113 25.7555 33.371 25.763C33.3307 25.7705 33.2894 25.7697 33.2494 25.7606C33.2095 25.7514 33.1716 25.7342 33.1386 25.71C32.8086 25.53 32.4486 25.38 32.1386 25.18C30.6642 24.2269 29.3569 23.0377 28.2687 21.66C27.7064 20.9868 27.2386 20.2399 26.8786 19.44C26.8384 19.374 26.8245 19.2954 26.8393 19.2195C26.8541 19.1437 26.8966 19.0761 26.9586 19.03C27.4786 18.53 27.9587 18.03 28.4887 17.5C28.6545 17.362 28.788 17.1893 28.8795 16.994C28.9711 16.7987 29.0185 16.5857 29.0185 16.37C29.0185 16.1543 28.9711 15.9413 28.8795 15.746C28.788 15.5507 28.6545 15.3779 28.4887 15.24L27.2687 14.02L26.0187 12.77C25.8807 12.6127 25.7107 12.4868 25.5202 12.4005C25.3296 12.3141 25.1229 12.2695 24.9137 12.2695C24.7045 12.2695 24.4976 12.3141 24.307 12.4005C24.1165 12.4868 23.9467 12.6127 23.8087 12.77C23.2887 13.28 22.8087 13.77 22.2487 14.31C21.7815 14.7576 21.4995 15.3643 21.4586 16.01C21.4173 17.075 21.6085 18.1363 22.0187 19.12C22.8041 21.1546 23.934 23.0388 25.3588 24.69C27.2403 26.9421 29.5784 28.769 32.2187 30.05C33.3951 30.6681 34.6842 31.0422 36.0087 31.15C36.4508 31.1998 36.8984 31.1433 37.3141 30.985C37.7299 30.8267 38.1016 30.5712 38.3986 30.24C38.8386 29.75 39.3387 29.3 39.8087 28.82C39.9728 28.682 40.1047 28.5098 40.1952 28.3155C40.2857 28.1212 40.3324 27.9094 40.3324 27.695C40.3324 27.4806 40.2857 27.2689 40.1952 27.0745C40.1047 26.8802 39.9728 26.708 39.8087 26.57L37.3288 24.08Z" fill="white"/>
<path d="M36.4893 20.62L38.0994 20.35C37.8382 18.8481 37.1081 17.4675 36.0142 16.4058C34.9202 15.3442 33.5183 14.656 32.0093 14.44L31.7793 16.05C32.9483 16.212 34.0351 16.7424 34.8821 17.5642C35.7291 18.386 36.292 19.4564 36.4893 20.62Z" fill="white"/>
<path d="M39.0002 13.64C37.1727 11.7994 34.7901 10.6116 32.2202 10.26L31.9902 11.87C34.1561 12.1747 36.1693 13.159 37.74 14.6812C39.3107 16.2033 40.3577 18.1847 40.7302 20.34L42.3303 20.07C41.9146 17.633 40.7507 15.3858 39.0002 13.64Z" fill="white"/>
<path d="M63.7532 23.49L62.8383 20.9701H57.7826L56.8677 23.49H55.2788L59.4678 12.255H61.1531L65.3421 23.49H63.7532ZM58.2962 19.5738H62.3247L60.3024 14.0365L58.2962 19.5738ZM72.9957 15.465H74.376V23.1529C74.376 24.3406 73.9748 25.2608 73.1723 25.9135C72.3698 26.5769 71.4068 26.9086 70.2833 26.9086C69.3845 26.9086 68.6087 26.7374 67.956 26.395C67.3033 26.0633 66.8111 25.5818 66.4794 24.9505L67.6992 24.2604C68.1379 25.1592 69.01 25.6086 70.3154 25.6086C71.15 25.6086 71.8027 25.3892 72.2735 24.9505C72.755 24.5118 72.9957 23.9126 72.9957 23.1529V22.0134C72.2895 23.0834 71.2837 23.6184 69.9783 23.6184C68.8334 23.6184 67.8651 23.2118 67.0733 22.3986C66.2815 21.5854 65.8856 20.5956 65.8856 19.4293C65.8856 18.263 66.2815 17.2786 67.0733 16.4761C67.8651 15.6629 68.8334 15.2563 69.9783 15.2563C71.2944 15.2563 72.3002 15.786 72.9957 16.8453V15.465ZM68.1005 21.4677C68.6462 22.0134 69.3256 22.2862 70.1388 22.2862C70.952 22.2862 71.6315 22.0134 72.1772 21.4677C72.7229 20.922 72.9957 20.2425 72.9957 19.4293C72.9957 18.6268 72.7229 17.9527 72.1772 17.407C71.6315 16.8613 70.952 16.5885 70.1388 16.5885C69.3256 16.5885 68.6462 16.8613 68.1005 17.407C67.5548 17.9527 67.2819 18.6268 67.2819 19.4293C67.2819 20.2425 67.5548 20.922 68.1005 21.4677ZM77.4707 20.1195C77.6098 20.8364 77.9361 21.3928 78.4497 21.7887C78.974 22.1846 79.616 22.3825 80.3757 22.3825C81.435 22.3825 82.2054 21.992 82.6869 21.2109L83.8746 21.885C83.0935 23.0941 81.9165 23.6986 80.3436 23.6986C79.0703 23.6986 78.0324 23.3027 77.2299 22.5109C76.4381 21.7084 76.0422 20.6973 76.0422 19.4775C76.0422 18.2684 76.4328 17.2626 77.2139 16.4601C77.995 15.6576 79.0061 15.2563 80.2473 15.2563C81.4243 15.2563 82.382 15.6736 83.1203 16.5082C83.8693 17.3321 84.2438 18.3272 84.2438 19.4935C84.2438 19.6968 84.2277 19.9055 84.1956 20.1195H77.4707ZM80.2473 16.5724C79.4983 16.5724 78.8777 16.7864 78.3855 17.2144C77.8933 17.6317 77.5884 18.1935 77.4707 18.8997H82.8314C82.7137 18.14 82.4141 17.5622 81.9326 17.1663C81.4511 16.7704 80.8893 16.5724 80.2473 16.5724ZM89.8453 15.2563C90.7869 15.2563 91.5413 15.5559 92.1084 16.1551C92.6755 16.7436 92.959 17.5461 92.959 18.5626V23.49H91.5627V18.6429C91.5627 17.9902 91.3861 17.4873 91.033 17.1342C90.6799 16.7704 90.1931 16.5885 89.5725 16.5885C88.877 16.5885 88.3152 16.8078 87.8872 17.2465C87.4592 17.6745 87.2452 18.3379 87.2452 19.2367V23.49H85.8489V15.465H87.2452V16.6206C87.8123 15.7111 88.679 15.2563 89.8453 15.2563ZM101.553 12.255H102.949V23.49H101.553V22.1097C100.858 23.169 99.8464 23.6986 98.5196 23.6986C97.3961 23.6986 96.4385 23.292 95.6467 22.4788C94.8549 21.6549 94.459 20.6545 94.459 19.4775C94.459 18.3005 94.8549 17.3054 95.6467 16.4922C96.4385 15.6683 97.3961 15.2563 98.5196 15.2563C99.8464 15.2563 100.858 15.786 101.553 16.8453V12.255ZM98.6962 22.3504C99.5094 22.3504 100.189 22.0776 100.735 21.5319C101.28 20.9755 101.553 20.2907 101.553 19.4775C101.553 18.6643 101.28 17.9848 100.735 17.4391C100.189 16.8827 99.5094 16.6045 98.6962 16.6045C97.8937 16.6045 97.2196 16.8827 96.6739 17.4391C96.1282 17.9848 95.8553 18.6643 95.8553 19.4775C95.8553 20.2907 96.1282 20.9755 96.6739 21.5319C97.2196 22.0776 97.8937 22.3504 98.6962 22.3504ZM111.71 15.465H113.106V23.49H111.71V22.1097C111.014 23.169 110.003 23.6986 108.676 23.6986C107.553 23.6986 106.595 23.292 105.803 22.4788C105.012 21.6549 104.616 20.6545 104.616 19.4775C104.616 18.3005 105.012 17.3054 105.803 16.4922C106.595 15.6683 107.553 15.2563 108.676 15.2563C110.003 15.2563 111.014 15.786 111.71 16.8453V15.465ZM108.853 22.3504C109.666 22.3504 110.345 22.0776 110.891 21.5319C111.437 20.9755 111.71 20.2907 111.71 19.4775C111.71 18.6643 111.437 17.9848 110.891 17.4391C110.345 16.8827 109.666 16.6045 108.853 16.6045C108.05 16.6045 107.376 16.8827 106.831 17.4391C106.285 17.9848 106.012 18.6643 106.012 19.4775C106.012 20.2907 106.285 20.9755 106.831 21.5319C107.376 22.0776 108.05 22.3504 108.853 22.3504ZM116.618 16.8132C117.078 15.8181 117.913 15.3205 119.122 15.3205V16.7811C118.437 16.749 117.848 16.9309 117.356 17.3268C116.864 17.7227 116.618 18.3593 116.618 19.2367V23.49H115.222V15.465H116.618V16.8132ZM129.925 23.6986C128.224 23.6986 126.817 23.1369 125.704 22.0134C124.602 20.8899 124.051 19.5096 124.051 17.8725C124.051 16.2354 124.602 14.8551 125.704 13.7316C126.817 12.6081 128.224 12.0463 129.925 12.0463C130.953 12.0463 131.894 12.2924 132.75 12.7846C133.617 13.2768 134.291 13.9402 134.773 14.7748L133.473 15.5292C133.152 14.9086 132.67 14.4164 132.028 14.0526C131.397 13.6781 130.696 13.4908 129.925 13.4908C128.631 13.4908 127.571 13.9081 126.748 14.7427C125.934 15.5773 125.528 16.6206 125.528 17.8725C125.528 19.1137 125.934 20.1516 126.748 20.9862C127.571 21.8208 128.631 22.2381 129.925 22.2381C130.696 22.2381 131.397 22.0562 132.028 21.6924C132.67 21.3179 133.152 20.8257 133.473 20.2158L134.773 20.9541C134.302 21.7887 133.633 22.4574 132.766 22.9603C131.9 23.4525 130.953 23.6986 129.925 23.6986ZM137.072 14.0044C136.804 14.0044 136.58 13.9135 136.398 13.7316C136.216 13.5497 136.125 13.3303 136.125 13.0735C136.125 12.8167 136.216 12.5974 136.398 12.4155C136.58 12.2229 136.804 12.1266 137.072 12.1266C137.329 12.1266 137.548 12.2229 137.73 12.4155C137.912 12.5974 138.003 12.8167 138.003 13.0735C138.003 13.3303 137.912 13.5497 137.73 13.7316C137.548 13.9135 137.329 14.0044 137.072 14.0044ZM136.366 23.49V15.465H137.762V23.49H136.366ZM144.258 16.8132H142.123V21.1627C142.123 21.5586 142.198 21.8422 142.348 22.0134C142.508 22.1739 142.749 22.2595 143.07 22.2702C143.391 22.2702 143.787 22.2595 144.258 22.2381V23.49C143.038 23.6505 142.145 23.5542 141.578 23.2011C141.01 22.8373 140.727 22.1578 140.727 21.1627V16.8132H139.138V15.465H140.727V13.6353L142.123 13.218V15.465H144.258V16.8132ZM152.148 15.465H153.545V23.49H152.148V22.1097C151.453 23.169 150.442 23.6986 149.115 23.6986C147.991 23.6986 147.034 23.292 146.242 22.4788C145.45 21.6549 145.054 20.6545 145.054 19.4775C145.054 18.3005 145.45 17.3054 146.242 16.4922C147.034 15.6683 147.991 15.2563 149.115 15.2563C150.442 15.2563 151.453 15.786 152.148 16.8453V15.465ZM149.291 22.3504C150.104 22.3504 150.784 22.0776 151.33 21.5319C151.875 20.9755 152.148 20.2907 152.148 19.4775C152.148 18.6643 151.875 17.9848 151.33 17.4391C150.784 16.8827 150.104 16.6045 149.291 16.6045C148.489 16.6045 147.815 16.8827 147.269 17.4391C146.723 17.9848 146.45 18.6643 146.45 19.4775C146.45 20.2907 146.723 20.9755 147.269 21.5319C147.815 22.0776 148.489 22.3504 149.291 22.3504Z" fill="white"/>
</svg>
