<svg width="223" height="238" viewBox="0 0 223 238" fill="none" xmlns="http://www.w3.org/2000/svg">
<path d="M2.08572 208.518C0.698937 206.786 0 204.306 0 201.066V198.785H5.28085V201.527C5.28085 204.119 6.24605 205.402 8.17645 205.402C9.11946 205.402 9.84058 205.091 10.3398 204.455C10.828 203.832 11.072 202.81 11.072 201.402C11.072 199.733 10.7281 198.25 10.0514 196.979C9.37463 195.708 8.12098 194.175 6.29043 192.38C3.98283 190.1 2.37417 188.031 1.46444 186.187C0.554712 184.343 0.0887538 182.262 0.0887538 179.932C0.0887538 176.779 0.798785 174.324 2.21885 172.592C3.63891 170.86 5.70244 170 8.42052 170C11.1386 170 13.1245 170.872 14.4891 172.592C15.8648 174.324 16.5526 176.804 16.5526 180.044V181.701H11.2717V179.645C11.2717 178.274 11.0388 177.277 10.5617 176.654C10.0847 176.031 9.39681 175.707 8.47599 175.707C6.61216 175.707 5.68025 176.978 5.68025 179.533C5.68025 180.978 6.02417 182.324 6.7231 183.583C7.42204 184.841 8.67569 186.362 10.5062 188.144C12.8471 190.424 14.4558 192.505 15.3322 194.362C16.2087 196.231 16.6524 198.412 16.6524 200.929C16.6524 204.206 15.9313 206.711 14.4891 208.468C13.0468 210.225 10.9611 211.097 8.20973 211.097C5.45836 211.097 3.45031 210.237 2.06353 208.505L2.08572 208.518Z" fill="white"/>
<path d="M23.0204 170.598H30.5867L36.3779 210.549H30.7864L29.7657 202.611V202.723H23.4087L22.388 210.549H17.207L22.9982 170.598H23.0204ZM29.1222 197.315L26.6371 177.564H26.5373L24.0965 197.315H29.1222Z" fill="white"/>
<path d="M38.0658 170.598H45.0773L50.5135 194.511H50.6134V170.598H55.5947V210.549H49.8479L43.1358 181.377H43.036V210.549H38.0547V170.598H38.0658Z" fill="white"/>
<path d="M65.8555 170.598H80.6441V176.305H71.447V187.433H78.6582V193.14H71.447V210.549H65.8555V170.598Z" fill="white"/>
<path d="M82.3184 170.598H90.6058C93.4792 170.598 95.5871 171.346 96.9073 172.854C98.2275 174.361 98.8931 176.667 98.8931 179.795V182.249C98.8931 186.399 97.6728 189.028 95.232 190.125V190.237C96.5855 190.698 97.5396 191.633 98.1055 193.028C98.6602 194.437 98.9486 196.318 98.9486 198.673V205.689C98.9486 206.835 98.9819 207.758 99.0485 208.455C99.115 209.166 99.2814 209.851 99.5588 210.536H93.8675C93.6678 209.888 93.5235 209.278 93.457 208.705C93.3904 208.131 93.3571 207.11 93.3571 205.627V198.324C93.3571 196.493 93.0909 195.222 92.5694 194.499C92.048 193.776 91.1383 193.415 89.8513 193.415H87.9209V210.536H82.3295V170.586L82.3184 170.598ZM89.9401 187.72C91.0606 187.72 91.8927 187.396 92.4585 186.748C93.0132 186.1 93.3017 185.016 93.3017 183.496V180.418C93.3017 178.972 93.0687 177.925 92.6138 177.277C92.1589 176.629 91.4378 176.305 90.4504 176.305H87.9099V187.72H89.9401Z" fill="white"/>
<path d="M106.104 170.598H113.671L119.462 210.549H113.87L112.85 202.611V202.723H106.493L105.472 210.549H100.291L106.082 170.598H106.104ZM112.206 197.315L109.721 177.564H109.621L107.181 197.315H112.206Z" fill="white"/>
<path d="M121.136 170.598H128.148L133.584 194.511H133.684V170.598H138.665V210.549H132.918L126.206 181.377H126.106V210.549H121.125V170.598H121.136Z" fill="white"/>
<path d="M143.583 208.555C142.174 206.847 141.475 204.43 141.475 201.302V179.844C141.475 176.729 142.174 174.311 143.583 172.591C144.991 170.884 147.033 170.024 149.707 170.024C152.38 170.024 154.422 170.884 155.831 172.591C157.24 174.299 157.938 176.716 157.938 179.844V184.068H152.658V179.445C152.658 176.978 151.726 175.732 149.862 175.732C147.998 175.732 147.066 176.965 147.066 179.445V201.763C147.066 204.193 147.998 205.414 149.862 205.414C151.726 205.414 152.658 204.193 152.658 201.763V195.657H157.938V201.302C157.938 204.417 157.24 206.835 155.831 208.555C154.422 210.262 152.38 211.122 149.707 211.122C147.033 211.122 144.991 210.262 143.583 208.555Z" fill="white"/>
<path d="M160.268 170.598H165.859V210.549H160.268V170.598Z" fill="white"/>
<path d="M170.129 208.518C168.742 206.785 168.043 204.306 168.043 201.066V198.785H173.324V201.527C173.324 204.119 174.289 205.402 176.219 205.402C177.162 205.402 177.884 205.091 178.383 204.455C178.871 203.832 179.115 202.81 179.115 201.402C179.115 199.732 178.771 198.25 178.094 196.978C177.418 195.707 176.164 194.175 174.333 192.38C172.026 190.1 170.417 188.031 169.507 186.187C168.598 184.343 168.132 182.262 168.132 179.931C168.132 176.779 168.842 174.324 170.262 172.592C171.682 170.86 173.745 170 176.463 170C179.182 170 181.167 170.872 182.532 172.592C183.908 174.324 184.596 176.804 184.596 180.044V181.701H179.315V179.645C179.315 178.274 179.082 177.277 178.605 176.654C178.128 176.031 177.44 175.707 176.519 175.707C174.655 175.707 173.723 176.978 173.723 179.533C173.723 180.978 174.067 182.324 174.766 183.583C175.465 184.841 176.719 186.362 178.549 188.143C180.89 190.424 182.499 192.505 183.375 194.362C184.252 196.231 184.695 198.412 184.695 200.929C184.695 204.206 183.974 206.711 182.532 208.468C181.09 210.225 179.004 211.097 176.253 211.097C173.501 211.097 171.493 210.237 170.106 208.505L170.129 208.518Z" fill="white"/>
<path d="M188.647 208.555C187.238 206.847 186.539 204.43 186.539 201.302V179.844C186.539 176.729 187.238 174.311 188.647 172.591C190.056 170.884 192.097 170.024 194.771 170.024C197.445 170.024 199.486 170.884 200.895 172.591C202.304 174.299 203.003 176.716 203.003 179.844V184.068H197.722V179.445C197.722 176.978 196.79 175.732 194.926 175.732C193.062 175.732 192.131 176.965 192.131 179.445V201.763C192.131 204.193 193.062 205.414 194.926 205.414C196.79 205.414 197.722 204.193 197.722 201.763V195.657H203.003V201.302C203.003 204.417 202.304 206.835 200.895 208.555C199.486 210.262 197.445 211.122 194.771 211.122C192.097 211.122 190.056 210.262 188.647 208.555Z" fill="white"/>
<path d="M207.217 208.492C205.763 206.748 205.031 204.268 205.031 201.078V180.068C205.031 176.866 205.763 174.398 207.217 172.654C208.67 170.909 210.778 170.024 213.518 170.024C216.259 170.024 218.367 170.897 219.82 172.654C221.273 174.398 222.005 176.878 222.005 180.068V201.078C222.005 204.28 221.273 206.748 219.82 208.492C218.367 210.249 216.259 211.122 213.518 211.122C210.778 211.122 208.67 210.249 207.217 208.492ZM216.414 201.477V179.669C216.414 177.04 215.449 175.732 213.518 175.732C211.588 175.732 210.623 177.04 210.623 179.669V201.477C210.623 204.106 211.588 205.414 213.518 205.414C215.449 205.414 216.414 204.106 216.414 201.477Z" fill="white"/>
<path d="M50.5021 237.017H47.6287C46.6413 237.017 45.8647 236.693 45.2879 236.045C44.722 235.397 44.4336 234.512 44.4336 233.378V224.182C44.4336 223.06 44.722 222.163 45.2879 221.515C45.8537 220.867 46.6413 220.543 47.6287 220.543H50.5021C51.4895 220.543 52.2661 220.867 52.843 221.515C53.4088 222.163 53.6973 223.048 53.6973 224.182V225.44C53.6973 225.639 53.6085 225.752 53.4421 225.752H52.7986C52.6322 225.752 52.5435 225.652 52.5435 225.44V224.231C52.5435 223.409 52.3549 222.786 51.9888 222.35C51.6116 221.914 51.079 221.702 50.3801 221.702H47.7064C47.0075 221.702 46.4749 221.926 46.1088 222.362C45.7427 222.811 45.5652 223.434 45.5652 224.231V233.328C45.5652 234.126 45.7427 234.749 46.1088 235.197C46.4749 235.646 47.0075 235.858 47.7064 235.858H50.3801C51.079 235.858 51.6116 235.646 51.9888 235.21C52.366 234.774 52.5435 234.151 52.5435 233.328V232.119C52.5435 231.92 52.6322 231.808 52.7986 231.808H53.4421C53.6085 231.808 53.6973 231.907 53.6973 232.119V233.378C53.6973 234.499 53.4088 235.397 52.843 236.045C52.2772 236.693 51.4895 237.017 50.5021 237.017Z" fill="white"/>
<path d="M63.5708 237.017H56.5259C56.3706 237.017 56.293 236.917 56.293 236.705V220.854C56.293 220.655 56.3706 220.543 56.5259 220.543H63.5708C63.7483 220.543 63.8481 220.643 63.8481 220.829V221.415C63.8481 221.602 63.7594 221.702 63.5708 221.702H57.6687C57.5133 221.702 57.4357 221.777 57.4357 221.926V227.82C57.4357 227.97 57.5133 228.057 57.6687 228.057H62.9384C63.1048 228.057 63.1936 228.157 63.1936 228.344V228.929C63.1936 229.116 63.1048 229.216 62.9384 229.216H57.6687C57.5133 229.216 57.4357 229.291 57.4357 229.44V235.633C57.4357 235.783 57.5133 235.87 57.6687 235.87H63.5708C63.7483 235.87 63.8481 235.97 63.8481 236.157V236.742C63.8481 236.929 63.7594 237.029 63.5708 237.029V237.017Z" fill="white"/>
<path d="M67.4338 237.016H66.7681C66.6128 237.016 66.5352 236.917 66.5352 236.705V220.854C66.5352 220.655 66.6128 220.543 66.7681 220.543H67.3894C67.5225 220.543 67.6224 220.592 67.6668 220.692L74.6672 234.213H74.756V220.842C74.756 220.642 74.8336 220.53 75.0111 220.53H75.6546C75.821 220.53 75.9098 220.63 75.9098 220.842V236.692C75.9098 236.892 75.821 237.004 75.6546 237.004H75.1332C75.0001 237.004 74.878 236.904 74.7671 236.717L67.7888 223.297H67.7V236.692C67.7 236.892 67.6113 237.004 67.4449 237.004L67.4338 237.016Z" fill="white"/>
<path d="M82.2079 237.017H81.5423C81.3759 237.017 81.2871 236.917 81.2871 236.705V221.926C81.2871 221.777 81.2095 221.702 81.0541 221.702H77.7481C77.5706 221.702 77.4707 221.602 77.4707 221.415V220.829C77.4707 220.643 77.5595 220.543 77.7481 220.543H85.9578C86.1353 220.543 86.2351 220.643 86.2351 220.829V221.415C86.2351 221.602 86.1464 221.702 85.9578 221.702H82.6517C82.4964 221.702 82.4187 221.777 82.4187 221.926V236.705C82.4187 236.904 82.3411 237.017 82.1858 237.017H82.2079Z" fill="white"/>
<path d="M88.7541 237.017H88.0884C87.9331 237.017 87.8555 236.917 87.8555 236.705V220.854C87.8555 220.655 87.9331 220.543 88.0884 220.543H93.2916C94.279 220.543 95.0667 220.867 95.6436 221.515C96.2205 222.163 96.509 223.048 96.509 224.182V226.611C96.509 227.571 96.2871 228.356 95.8544 228.967C95.4217 229.577 94.8337 229.976 94.0904 230.15V230.25L96.8085 236.705C96.8973 236.904 96.8418 237.017 96.6532 237.017H95.9432C95.7435 237.017 95.6103 236.917 95.5327 236.705L92.8368 230.25H89.2312C89.0758 230.25 88.9982 230.325 88.9982 230.487V236.718C88.9982 236.917 88.9094 237.029 88.743 237.029L88.7541 237.017ZM89.2312 229.154H93.1807C93.8796 229.154 94.4232 228.942 94.8005 228.506C95.1777 228.069 95.3663 227.446 95.3663 226.649V224.244C95.3663 223.446 95.1777 222.823 94.8005 222.375C94.4232 221.926 93.8796 221.714 93.1807 221.714H89.2312C89.0758 221.714 88.9982 221.789 88.9982 221.939V228.929C88.9982 229.079 89.0758 229.154 89.2312 229.154Z" fill="white"/>
<path d="M105.086 237.017H102.279C101.292 237.017 100.515 236.693 99.9382 236.045C99.3724 235.397 99.084 234.512 99.084 233.378V224.182C99.084 223.06 99.3724 222.163 99.9382 221.515C100.504 220.867 101.292 220.543 102.279 220.543H105.086C106.073 220.543 106.85 220.867 107.427 221.515C107.993 222.163 108.281 223.048 108.281 224.182V233.378C108.281 234.499 107.993 235.397 107.427 236.045C106.861 236.693 106.073 237.017 105.086 237.017ZM102.368 235.858H104.964C105.663 235.858 106.195 235.646 106.573 235.21C106.95 234.774 107.127 234.151 107.127 233.328V224.231C107.127 223.409 106.939 222.786 106.573 222.35C106.195 221.914 105.663 221.702 104.964 221.702H102.368C101.669 221.702 101.136 221.926 100.77 222.362C100.404 222.811 100.227 223.434 100.227 224.231V233.328C100.227 234.126 100.404 234.749 100.77 235.197C101.136 235.646 101.669 235.858 102.368 235.858Z" fill="white"/>
<path d="M127.097 220.543H128.328C128.484 220.543 128.561 220.643 128.561 220.854V236.705C128.561 236.904 128.484 237.017 128.328 237.017H127.663C127.496 237.017 127.407 236.917 127.407 236.705V222.512H127.319L123.28 233.141C123.192 233.328 123.07 233.428 122.937 233.428H122.182C122.027 233.428 121.927 233.328 121.86 233.141L117.756 222.487H117.667V236.705C117.667 236.904 117.589 237.017 117.434 237.017H116.768C116.613 237.017 116.535 236.917 116.535 236.705V220.854C116.535 220.655 116.613 220.543 116.768 220.543H118C118.111 220.543 118.177 220.593 118.21 220.692L122.493 231.932H122.582L126.864 220.692C126.897 220.593 126.964 220.543 127.075 220.543H127.097Z" fill="white"/>
<path d="M138.979 237.017H131.934C131.779 237.017 131.701 236.917 131.701 236.705V220.854C131.701 220.655 131.779 220.543 131.934 220.543H138.979C139.156 220.543 139.256 220.643 139.256 220.829V221.415C139.256 221.602 139.168 221.702 138.979 221.702H133.077C132.922 221.702 132.844 221.777 132.844 221.926V227.82C132.844 227.97 132.922 228.057 133.077 228.057H138.347C138.513 228.057 138.602 228.157 138.602 228.344V228.929C138.602 229.116 138.513 229.216 138.347 229.216H133.077C132.922 229.216 132.844 229.291 132.844 229.44V235.633C132.844 235.783 132.922 235.87 133.077 235.87H138.979C139.156 235.87 139.256 235.97 139.256 236.157V236.742C139.256 236.929 139.168 237.029 138.979 237.029V237.017Z" fill="white"/>
<path d="M141.939 236.717V220.866C141.939 220.667 142.017 220.555 142.172 220.555H147.808C148.796 220.555 149.572 220.879 150.149 221.527C150.715 222.175 151.003 223.059 151.003 224.193V233.39C151.003 234.511 150.715 235.408 150.149 236.056C149.583 236.704 148.796 237.028 147.808 237.028H142.172C142.017 237.028 141.939 236.929 141.939 236.717ZM143.304 235.87H147.686C148.385 235.87 148.918 235.658 149.295 235.222C149.672 234.785 149.85 234.162 149.85 233.34V224.243C149.85 223.421 149.661 222.798 149.295 222.362C148.918 221.925 148.385 221.714 147.686 221.714H143.304C143.149 221.714 143.071 221.788 143.071 221.938V235.645C143.071 235.795 143.149 235.882 143.304 235.882V235.87Z" fill="white"/>
<path d="M155.164 220.854V236.705C155.164 236.904 155.075 237.017 154.908 237.017H154.243C154.087 237.017 154.01 236.917 154.01 236.705V220.854C154.01 220.655 154.087 220.543 154.243 220.543H154.908C155.075 220.543 155.164 220.643 155.164 220.854Z" fill="white"/>
<path d="M164.264 237.017H161.39C160.403 237.017 159.626 236.693 159.05 236.045C158.484 235.397 158.195 234.512 158.195 233.378V224.182C158.195 223.06 158.484 222.163 159.05 221.515C159.615 220.867 160.403 220.543 161.39 220.543H164.264C165.251 220.543 166.028 220.867 166.605 221.515C167.171 222.163 167.459 223.048 167.459 224.182V225.44C167.459 225.639 167.37 225.752 167.204 225.752H166.56C166.394 225.752 166.305 225.652 166.305 225.44V224.231C166.305 223.409 166.117 222.786 165.75 222.35C165.373 221.914 164.841 221.702 164.142 221.702H161.468C160.769 221.702 160.237 221.926 159.871 222.362C159.504 222.811 159.327 223.434 159.327 224.231V233.328C159.327 234.126 159.504 234.749 159.871 235.197C160.237 235.646 160.769 235.858 161.468 235.858H164.142C164.841 235.858 165.373 235.646 165.75 235.21C166.128 234.774 166.305 234.151 166.305 233.328V232.119C166.305 231.92 166.394 231.808 166.56 231.808H167.204C167.37 231.808 167.459 231.907 167.459 232.119V233.378C167.459 234.499 167.171 235.397 166.605 236.045C166.039 236.693 165.251 237.017 164.264 237.017Z" fill="white"/>
<path d="M175.834 237.017H173.027C172.04 237.017 171.263 236.693 170.686 236.045C170.12 235.397 169.832 234.512 169.832 233.378V224.182C169.832 223.06 170.12 222.163 170.686 221.515C171.252 220.867 172.04 220.543 173.027 220.543H175.834C176.821 220.543 177.598 220.867 178.175 221.515C178.741 222.163 179.029 223.048 179.029 224.182V233.378C179.029 234.499 178.741 235.397 178.175 236.045C177.609 236.693 176.821 237.017 175.834 237.017ZM173.116 235.858H175.712C176.411 235.858 176.943 235.646 177.321 235.21C177.698 234.774 177.875 234.151 177.875 233.328V224.231C177.875 223.409 177.687 222.786 177.321 222.35C176.943 221.914 176.411 221.702 175.712 221.702H173.116C172.417 221.702 171.884 221.926 171.518 222.362C171.152 222.811 170.975 223.434 170.975 224.231V233.328C170.975 234.126 171.152 234.749 171.518 235.197C171.884 235.646 172.417 235.858 173.116 235.858Z" fill="white"/>
<path d="M185.286 228.518V230.799C185.286 230.948 185.231 231.023 185.12 231.023H184.521C184.399 231.023 184.332 230.948 184.332 230.799V228.518C184.332 228.381 184.399 228.306 184.521 228.306H185.12C185.231 228.306 185.286 228.381 185.286 228.518Z" fill="white"/>
<path d="M37.6768 228.518V230.799C37.6768 230.948 37.6213 231.023 37.5103 231.023H36.9113C36.7892 231.023 36.7227 230.948 36.7227 230.799V228.518C36.7227 228.381 36.7892 228.306 36.9113 228.306H37.5103C37.6213 228.306 37.6768 228.381 37.6768 228.518Z" fill="white"/>
<path d="M180.182 52.4043L180.281 52.342H140.697C139.887 52.342 139.077 52.3794 138.29 52.4666C136.382 52.6784 134.396 53.0897 132.388 53.7252C129.614 54.585 126.907 55.8311 124.333 57.4013C122.791 58.3359 121.293 59.4075 119.851 60.5789C120.095 59.8811 120.317 59.1458 120.517 58.3732C121.094 56.1178 121.094 54.1738 121.094 52.4666V6.31014L120.961 5.63723C120.284 2.22285 117.532 -0.11987 114.47 0.00474289H83.6618C81.8202 0.0670491 79.9896 1.06395 78.7581 2.68391C77.8373 3.90511 76.8278 5.9986 77.0829 9.18868V46.9837H42.7019C38.475 46.9837 35.0469 50.8466 35.0469 55.5819V87.7319C35.0469 92.1432 38.0201 95.7819 41.8365 96.2804L41.7367 96.3427H81.3209C82.1308 96.3427 82.9407 96.3053 83.7284 96.2181C85.6366 96.0062 87.6224 95.595 89.6305 94.9595C92.393 94.0996 95.111 92.8535 97.6849 91.2834C99.227 90.3488 100.725 89.2771 102.167 88.1058C101.923 88.8036 101.701 89.5388 101.501 90.3114C100.924 92.5669 100.924 94.5109 100.924 96.2181V142.362L101.058 143.035C101.712 146.362 104.33 148.68 107.292 148.68C107.381 148.68 107.459 148.68 107.548 148.68H138.356C140.198 148.618 142.029 147.621 143.26 146.001C144.181 144.78 145.19 142.686 144.935 139.496V101.701H179.316C183.543 101.701 186.971 97.838 186.971 93.1027V60.9527C186.971 56.5414 183.998 52.9028 180.182 52.4168V52.4043Z" fill="#000738"/>
<path d="M64.768 90.0501C80.4885 80.9659 82.43 59.7942 82.6408 53.2396H42.7016C41.5589 53.2396 40.627 54.2864 40.627 55.5699V87.7199C40.627 89.0034 41.5589 90.0501 42.7016 90.0501H64.768Z" fill="#381767"/>
<path d="M115.513 7.00863V52.4174C115.513 53.8879 115.513 55.2212 115.158 56.6543C114.803 58.0748 114.26 59.4207 113.749 60.7665C112.74 63.4581 111.586 66.0999 110.255 68.6171C108.191 72.5424 105.695 76.2184 102.755 79.3711C100.436 81.8634 97.829 84.0316 95.0111 85.7513C92.8255 87.0846 90.5068 88.1438 88.1216 88.8915C86.5018 89.4024 84.8599 89.7638 83.1846 89.9507C82.5634 90.013 81.931 90.0504 81.3097 90.0504H64.7793C80.4998 80.9662 82.4413 59.7945 82.6521 53.2399C82.6854 51.9813 82.6743 51.271 82.6743 51.271V8.84043C82.3747 6.32326 83.817 6.27342 83.817 6.27342H114.637C115.358 6.18619 115.524 6.99617 115.524 6.99617L115.513 7.00863Z" fill="#71258E"/>
<path d="M157.238 58.6105C141.518 67.6947 139.576 88.8664 139.365 95.421H179.316C180.458 95.421 181.39 94.3742 181.39 93.0907V60.9407C181.39 59.6572 180.458 58.6105 179.316 58.6105H157.249H157.238Z" fill="#008085"/>
<path d="M106.494 141.665V96.256C106.494 94.7856 106.494 93.4522 106.849 92.0192C107.204 90.5986 107.747 89.2528 108.257 87.907C109.267 85.2154 110.421 82.5736 111.752 80.0564C113.816 76.1311 116.312 72.455 119.252 69.3023C121.571 66.8101 124.178 64.6418 126.996 62.9222C129.181 61.5888 131.5 60.5296 133.885 59.7819C135.505 59.271 137.147 58.9097 138.822 58.7227C139.443 58.6604 140.076 58.623 140.697 58.623H157.227C141.507 67.7073 139.565 88.879 139.355 95.4336C139.321 96.6922 139.332 97.4025 139.332 97.4025V139.833C139.632 142.35 138.19 142.4 138.19 142.4H107.37C106.649 142.487 106.482 141.677 106.482 141.677L106.494 141.665Z" fill="#00969A"/>
</svg>
