<svg id="Capa_1" data-name="Capa 1" xmlns="http://www.w3.org/2000/svg" viewBox="0 0 1080 1080"><defs><style>.cls-1{fill:#452663;}.cls-2{fill:#0a969b;}.cls-3{fill:#171933;}.cls-4{fill:#372664;}.cls-5{fill:#6e2d87;}.cls-6{fill:#018086;}.cls-7{fill:#00959c;}</style></defs><title>logo-nav</title><path class="cls-1" d="M10.14,949Q0,937.09,0,914.77V904.28H25.72v12.58q0,17.86,14.08,17.84a12.87,12.87,0,0,0,10.52-4.33c2.37-2.89,3.65-7.55,3.65-14A40.69,40.69,0,0,0,49,896q-5-8.79-18.23-21.11Q14,859.17,7.3,846.43A60.85,60.85,0,0,1,.62,817.71Q.62,795.93,11,784t30.14-11.92q19.55,0,29.55,11.92t10,34.24v7.6H55v-9.44q0-9.42-3.47-13.76a12.18,12.18,0,0,0-10.12-4.34q-13.59,0-13.61,17.58a36.31,36.31,0,0,0,5.07,18.62q5.06,8.68,18.42,21,17.06,15.74,23.5,28.58a67.12,67.12,0,0,1,6.42,30.17q0,22.57-10.51,34.63T40.18,961Q20.27,960.94,10.14,949Z"/><path class="cls-1" d="M111.91,774.68h36.84l28.18,183.63H149.81l-4.94-36.46v.52H114L109,958.31H83.81Zm29.67,122.76-12.11-90.75H129l-11.85,90.75Z"/><path class="cls-1" d="M185.16,774.68h34.12l26.44,109.93h.5V774.68h24.22V958.31H242.51l-32.64-134h-.49v134H185.16Z"/><path class="cls-2" d="M320.37,774.68h71.94v26.25H347.57v51.15h35.09V878.3H347.57v80h-27.2Z"/><path class="cls-2" d="M400.46,774.68h40.31q21,0,30.64,10.36t9.64,31.83v11.29q0,28.58-17.8,36.21v.52a21.66,21.66,0,0,1,14,12.85q4.09,9.68,4.07,26V936c0,4.24.12,8.49.49,12.71a33.81,33.81,0,0,0,2.48,9.68H456.61a45.2,45.2,0,0,1-2-8.4,128.88,128.88,0,0,1-.51-14.17V902.17q0-12.58-3.83-17.58t-13.22-5h-9.39v78.69H400.46Zm37.08,78.7c5.47,0,9.52-1.48,12.24-4.46s4.08-7.95,4.08-15V819.8q0-10-3.34-14.42c-2.22-3-5.72-4.45-10.5-4.45H427.65v52.45Z"/><path class="cls-2" d="M516.14,774.68H553l28.17,183.63H554L549,921.85v.52h-30.9l-5,35.94H488Zm29.68,122.76-12.11-90.75h-.49l-11.88,90.75Z"/><path class="cls-2" d="M589.32,774.68h34.12l26.5,109.93h.49V774.68h24.22V958.31h-28l-32.63-134h-.49v134H589.32Z"/><path class="cls-2" d="M698.45,949.12q-10.2-11.79-10.21-33.31v-98.7q0-21.51,10.25-33.33T728.27,772q19.54,0,29.81,11.79t10.25,33.33v19.35H742.59V815.17q0-17.05-13.6-17t-13.59,17V917.75q0,16.77,13.59,16.78t13.6-16.78V889.84h25.7v26q0,21.51-10.25,33.31t-29.8,11.82Q708.71,960.94,698.45,949.12Z"/><path class="cls-2" d="M779.67,774.68h27.12V958.31H779.67Z"/><path class="cls-2" d="M827.62,949q-10.14-11.91-10.14-34.23V904.28h25.79v12.58q0,17.86,14.08,17.84a12.87,12.87,0,0,0,10.52-4.33c2.37-2.89,3.65-7.55,3.65-14A40.78,40.78,0,0,0,866.58,896q-5-8.79-18.24-21.11-16.85-15.74-23.49-28.47a60.85,60.85,0,0,1-6.68-28.72q0-21.78,10.4-33.72t30.14-11.92q19.54,0,29.55,11.92t10,34.24v7.6H872.45v-9.44q0-9.42-3.47-13.76a12.18,12.18,0,0,0-10.12-4.34q-13.61,0-13.61,17.58a36.31,36.31,0,0,0,5.07,18.62q5.05,8.68,18.43,21,17,15.74,23.49,28.58a67.12,67.12,0,0,1,6.42,30.17q0,22.57-10.51,34.63T857.62,961Q837.79,960.94,827.62,949Z"/><path class="cls-2" d="M917.72,949.12q-10.26-11.79-10.25-33.31v-98.7q0-21.51,10.25-33.33T947.5,772q19.53,0,29.8,11.79t10.25,33.33v19.35H961.82V815.17q0-17.05-13.61-17t-13.59,17V917.75q0,16.77,13.59,16.78t13.61-16.78V889.84h25.69v26q0,21.51-10.25,33.31t-29.8,11.82Q928,960.94,917.72,949.12Z"/><path class="cls-2" d="M1008.07,948.87q-10.62-12.07-10.63-34.1V818.23q0-22,10.63-34.1t30.66-12.06q20.05,0,30.66,12.06t10.61,34.1v96.54q0,22-10.61,34.1t-30.66,12.07Q1018.71,960.94,1008.07,948.87Zm44.74-32.27V816.39q0-18.09-14.08-18.1t-14.1,18.1V916.6q0,18.1,14.1,18.1T1052.81,916.6Z"/><path class="cls-1" d="M245.71,1080h-14a14.74,14.74,0,0,1-11.36-4.47,17.25,17.25,0,0,1-4.16-12.25V1021a17.25,17.25,0,0,1,4.16-12.25,14.74,14.74,0,0,1,11.36-4.47h14a14.76,14.76,0,0,1,11.36,4.47,17.34,17.34,0,0,1,4.16,12.25v5.81c0,.93-.4,1.41-1.22,1.41H256.9c-.82,0-1.22-.48-1.22-1.41v-5.54a12.45,12.45,0,0,0-2.71-8.65,10,10,0,0,0-7.83-3h-13a9.68,9.68,0,0,0-7.77,3.06,12.6,12.6,0,0,0-2.66,8.59v41.79a12.6,12.6,0,0,0,2.66,8.59,9.72,9.72,0,0,0,7.77,3.08h13a10,10,0,0,0,7.83-3,12.45,12.45,0,0,0,2.71-8.65v-5.54c0-.93.4-1.41,1.22-1.41H260c.82,0,1.22.48,1.22,1.41v5.81a17.34,17.34,0,0,1-4.16,12.25A14.77,14.77,0,0,1,245.71,1080Z"/><path class="cls-1" d="M309.27,1080H275c-.75,0-1.12-.46-1.12-1.41v-72.87c0-1,.37-1.41,1.12-1.41h34.27a1.16,1.16,0,0,1,1.33,1.3v2.7a1.16,1.16,0,0,1-1.33,1.3H280.54c-.75,0-1.11.35-1.11,1v27.09c0,.72.36,1.07,1.11,1.07h25.54a1.09,1.09,0,0,1,1.22,1,1.82,1.82,0,0,1,0,.33v2.71a1.14,1.14,0,0,1-.91,1.3.81.81,0,0,1-.31,0H280.54c-.75,0-1.11.35-1.11,1.06v28.49a1,1,0,0,0,1.11,1.07h28.73c.89,0,1.33.42,1.33,1.27v2.71C310.6,1079.55,310.16,1080,309.27,1080Z"/><path class="cls-1" d="M328,1080h-3.21c-.75,0-1.12-.46-1.12-1.41v-72.87c0-1,.37-1.41,1.12-1.41h3a1.31,1.31,0,0,1,1.33.7l34.07,62.16h.4v-61.45c0-1,.4-1.41,1.22-1.41h3.1c.82,0,1.22.46,1.22,1.41v72.87c0,1-.4,1.41-1.22,1.41h-2.5a2.15,2.15,0,0,1-1.82-1.29L329.69,1017h-.45v61.57C329.24,1079.51,328.84,1080,328,1080Z"/><path class="cls-1" d="M399.91,1080H396.7c-.82,0-1.22-.46-1.22-1.41v-67.93q0-1.05-1.11-1H378.28a1.16,1.16,0,0,1-1.33-1.3v-2.7a1.16,1.16,0,0,1,1.33-1.3h40c.9,0,1.34.42,1.34,1.3v2.7a1.17,1.17,0,0,1-1.34,1.3H402.23c-.75,0-1.11.35-1.11,1v67.93C401,1079.51,400.66,1080,399.91,1080Z"/><path class="cls-1" d="M431.76,1080h-3.21c-.75,0-1.12-.46-1.12-1.41v-72.87c0-1,.37-1.41,1.12-1.41h25.29a14.94,14.94,0,0,1,11.42,4.47,17.16,17.16,0,0,1,4.21,12.25v11.17a17.58,17.58,0,0,1-3.15,10.84,14.15,14.15,0,0,1-8.59,5.41v.47l13.18,29.67c.46,1,.2,1.41-.76,1.41H466.7a2,2,0,0,1-2-1.41l-13.09-29.67H434.09c-.75,0-1.11.37-1.11,1.06v28.61C432.9,1079.51,432.58,1080,431.76,1080Zm2.33-36.13h19.19a10.23,10.23,0,0,0,7.88-3,12.26,12.26,0,0,0,2.77-8.54v-11.07a12.4,12.4,0,0,0-2.77-8.59,10.07,10.07,0,0,0-7.88-3.06H434.09c-.75,0-1.11.35-1.11,1v32.14C432.9,1043.49,433.34,1043.84,434.09,1043.84Z"/><path class="cls-1" d="M511.2,1080H497.54a14.74,14.74,0,0,1-11.36-4.47,17.34,17.34,0,0,1-4.16-12.25V1021a17.34,17.34,0,0,1,4.16-12.25,14.74,14.74,0,0,1,11.36-4.47H511.2a14.74,14.74,0,0,1,11.36,4.47,17.25,17.25,0,0,1,4.16,12.25v42.25a17.25,17.25,0,0,1-4.16,12.25A14.74,14.74,0,0,1,511.2,1080Zm-13.2-5.28h12.64a9.94,9.94,0,0,0,7.82-3,12.5,12.5,0,0,0,2.72-8.65v-41.79a12.5,12.5,0,0,0-2.72-8.65,10,10,0,0,0-7.82-3H498a9.69,9.69,0,0,0-7.77,3.06,12.67,12.67,0,0,0-2.67,8.59V1063a12.66,12.66,0,0,0,2.67,8.59A9.71,9.71,0,0,0,498,1074.69Z"/><path class="cls-1" d="M618.26,1004.28h6c.75,0,1.12.46,1.12,1.41v72.87c0,1-.37,1.41-1.12,1.41H621c-.82,0-1.22-.46-1.22-1.41v-65.22h-.44l-19.64,48.86a2,2,0,0,1-1.66,1.3h-3.65a1.61,1.61,0,0,1-1.55-1.3l-20.06-49h-.46v65.34c0,1-.36,1.41-1.09,1.41H568c-.73,0-1.11-.46-1.11-1.41v-72.87c0-1,.38-1.41,1.11-1.41h6a1,1,0,0,1,1,.7L596,1056.67h.43L617.26,1005A.92.92,0,0,1,618.26,1004.28Z"/><path class="cls-1" d="M676.06,1080H641.77c-.73,0-1.09-.46-1.09-1.41v-72.87c0-1,.36-1.41,1.09-1.41h34.29a1.16,1.16,0,0,1,1.33,1.3v2.7a1.16,1.16,0,0,1-1.33,1.3H647.33c-.75,0-1.11.35-1.11,1v27.09c0,.72.36,1.07,1.11,1.07h25.54a1.11,1.11,0,0,1,1.22,1,1.4,1.4,0,0,1,0,.29v2.71a1.13,1.13,0,0,1-.91,1.3.81.81,0,0,1-.31,0H647.33c-.75,0-1.11.35-1.11,1.06v28.49a1,1,0,0,0,1.11,1.07h28.73c.89,0,1.33.42,1.33,1.27v2.71C677.39,1079.55,677,1080,676.06,1080Z"/><path class="cls-1" d="M690.48,1078.56v-72.87c0-1,.37-1.41,1.12-1.41H719a14.74,14.74,0,0,1,11.38,4.47,17.25,17.25,0,0,1,4.16,12.25v42.25a17.25,17.25,0,0,1-4.16,12.25A14.74,14.74,0,0,1,719,1080H691.6C690.85,1080,690.48,1079.51,690.48,1078.56Zm6.66-3.87h21.3a10,10,0,0,0,7.83-3A12.5,12.5,0,0,0,729,1063v-41.79a12.5,12.5,0,0,0-2.72-8.65,10,10,0,0,0-7.83-3h-21.3c-.75,0-1.11.35-1.11,1v63A1,1,0,0,0,697.14,1074.69Z"/><path class="cls-1" d="M754.83,1005.69v72.87c0,1-.4,1.41-1.22,1.41H750.4c-.75,0-1.12-.46-1.12-1.41v-72.87c0-1,.37-1.41,1.12-1.41h3.21C754.43,1004.28,754.83,1004.74,754.83,1005.69Z"/><path class="cls-1" d="M799.09,1080h-14a14.77,14.77,0,0,1-11.38-4.47,17.34,17.34,0,0,1-4.16-12.25V1021a17.34,17.34,0,0,1,4.16-12.25,14.77,14.77,0,0,1,11.38-4.47h14a14.74,14.74,0,0,1,11.38,4.47,17.25,17.25,0,0,1,4.16,12.25v5.81c0,.93-.4,1.41-1.22,1.41h-3.1c-.82,0-1.22-.48-1.22-1.41v-5.54a12.5,12.5,0,0,0-2.72-8.65,10,10,0,0,0-7.82-3h-13a9.75,9.75,0,0,0-7.77,3.06,12.65,12.65,0,0,0-2.66,8.59v41.79a12.66,12.66,0,0,0,2.66,8.59,9.77,9.77,0,0,0,7.77,3.08h13a10,10,0,0,0,7.82-3,12.5,12.5,0,0,0,2.72-8.65v-5.54c0-.93.4-1.41,1.22-1.41h3.1c.82,0,1.22.48,1.22,1.41v5.81a17.25,17.25,0,0,1-4.16,12.25A14.71,14.71,0,0,1,799.09,1080Z"/><path class="cls-1" d="M855.34,1080H841.7a14.74,14.74,0,0,1-11.36-4.47,17.25,17.25,0,0,1-4.16-12.25V1021a17.25,17.25,0,0,1,4.16-12.25,14.74,14.74,0,0,1,11.36-4.47h13.64a14.77,14.77,0,0,1,11.38,4.47,17.34,17.34,0,0,1,4.16,12.25v42.25a17.34,17.34,0,0,1-4.16,12.25A14.77,14.77,0,0,1,855.34,1080Zm-13.19-5.28h12.64a10,10,0,0,0,7.83-3,12.5,12.5,0,0,0,2.72-8.65v-41.79a12.5,12.5,0,0,0-2.72-8.65,10,10,0,0,0-7.83-3H842.15a9.71,9.71,0,0,0-7.77,3.06,12.6,12.6,0,0,0-2.66,8.59V1063a12.6,12.6,0,0,0,2.66,8.59A9.72,9.72,0,0,0,842.15,1074.69Z"/><path class="cls-1" d="M901.36,1040.92v10.47c0,.69-.3,1-.84,1h-2.9c-.61,0-.92-.35-.92-1v-10.47a.85.85,0,0,1,.68-1h3.14C901.06,1040,901.36,1040.28,901.36,1040.92Z"/><path class="cls-1" d="M183.3,1040.92v10.47c0,.69-.28,1-.83,1h-2.9c-.6,0-.91-.35-.91-1v-10.47a.85.85,0,0,1,.68-1h3.13C183,1040,183.3,1040.28,183.3,1040.92Z"/><path class="cls-3" d="M876.53,240.8l.5-.27H684.48c-3.94,0-7.86.2-11.71.58a157.35,157.35,0,0,0-28.68,5.81,182.1,182.1,0,0,0-39.22,16.89,199.4,199.4,0,0,0-21.77,14.62c1.15-3.22,2.26-6.58,3.21-10.14a99.17,99.17,0,0,0,2.79-27.1V29l-.66-3.09C585.19,10.35,571.94-.54,556.93,0H407a32.32,32.32,0,0,0-23.84,12.29c-4.48,5.59-9.41,15.25-8.13,29.86V215.86H207.73c-20.56,0-37.24,17.69-37.26,39.52V403.12c0,20.08,14.21,36.95,33,39.27l-.48.26H395.53c3.93,0,7.87-.2,11.71-.58a158.14,158.14,0,0,0,28.69-5.81,181.63,181.63,0,0,0,39.2-16.88A194.77,194.77,0,0,0,497,404.75c-1.17,3.21-2.28,6.6-3.21,10.14A99.17,99.17,0,0,0,491,442V654.3l.64,3.08c3.15,15.12,15.77,25.89,30.37,25.91H673.14A32.39,32.39,0,0,0,697,671c4.48-5.61,9.41-15.25,8.13-29.88V467.32H872.37c20.52-.06,37.12-17.7,37.17-39.46V280.05C909.52,260,895.33,243.1,876.53,240.8Z"/><path class="cls-4" d="M315.09,413.85c76.49-41.77,85.92-139.06,87-169.16H207.73c-5.58,0-10.11,4.78-10.12,10.71h0V403.14c0,5.93,4.54,10.73,10.12,10.73Z"/><path class="cls-5" d="M561.94,32.17V240.88a72.09,72.09,0,0,1-1.82,19.49,169.08,169.08,0,0,1-6.84,18.91,308.42,308.42,0,0,1-17,36.07,228.87,228.87,0,0,1-36.48,49.43,178.31,178.31,0,0,1-37.7,29.33,155.26,155.26,0,0,1-33.44,14.4,132.67,132.67,0,0,1-24,4.85c-3,.29-6.08.45-9.12.45H315.09c76.49-41.77,85.92-139.06,87-169.16.19-5.8,0-9.05,0-9.05v-195c-1.46-11.62,5.48-11.77,5.48-11.77H557.65A4,4,0,0,1,561.94,32.17Z"/><path class="cls-6" d="M764.84,269.37c-76.47,41.75-85.9,139-87,169.15h194.4c5.59,0,10.12-4.79,10.13-10.72V280.05c0-5.91-4.55-10.7-10.13-10.7Z"/><path class="cls-7" d="M518.08,651V442.32a72.09,72.09,0,0,1,1.82-19.49,168.26,168.26,0,0,1,6.82-18.91,302.46,302.46,0,0,1,16.95-36.06,228.17,228.17,0,0,1,36.47-49.43,178.36,178.36,0,0,1,37.7-29.34,156.1,156.1,0,0,1,33.52-14.46,132.62,132.62,0,0,1,24-4.83,89.68,89.68,0,0,1,9.12-.45h80.34c-76.47,41.75-85.9,139-87,169.15-.18,5.81-.09,9.06-.09,9.06V642.69c1.48,11.61-5.47,11.78-5.47,11.78h-150A4,4,0,0,1,518.08,651Z"/></svg>