<svg width="208" height="66" viewBox="0 0 208 66" fill="none" xmlns="http://www.w3.org/2000/svg">
<path d="M49.791 11.8369C49.6445 11.9248 49.498 11.9688 49.3516 11.9688C48.6777 11.9688 47.9893 11.5586 47.2861 10.7383C46.9639 10.3574 46.7881 10.0205 46.7588 9.72754C46.7881 9.58105 46.832 9.46387 46.8906 9.37598C49.9668 6.47559 51.5195 4.55664 51.5488 3.61914C51.4902 3.00391 50.8604 2.69629 49.6592 2.69629C48.2236 2.69629 46.1289 2.98926 43.375 3.5752C35.9043 5.06934 28.624 7.94043 21.5342 12.1885C20.8311 12.5986 20.1572 13.0088 19.5127 13.4189C14.7373 16.5244 11.251 19.6006 9.05371 22.6475C7.73535 24.5225 7.07617 26.2217 7.07617 27.7451C7.07617 28.126 7.12012 28.4629 7.20801 28.7559C7.55957 30.543 9.39062 32.1396 12.7012 33.5459C13.3457 33.8389 15.9385 34.7764 20.4795 36.3584C25.5479 38.1455 29.1074 39.9912 31.1582 41.8955C33.3262 43.9463 34.4102 46.3779 34.4102 49.1904C34.4102 52.5596 32.3887 55.8115 28.3457 58.9463C24.6836 61.8174 20.4941 63.7803 15.7773 64.835C13.9609 65.2451 12.2764 65.4502 10.7236 65.4502C9.90332 65.4502 9.06836 65.377 8.21875 65.2305C4.64453 64.5859 2.1543 62.8428 0.748047 60.001C0.630859 59.708 0.572266 59.5322 0.572266 59.4736C0.630859 59.21 0.806641 59.0635 1.09961 59.0342C1.80273 59.0342 2.49121 59.4004 3.16504 60.1328C3.34082 60.3672 3.4873 60.5869 3.60449 60.792C4.07324 61.6709 5.08398 62.2568 6.63672 62.5498C7.25195 62.667 7.96973 62.7256 8.79004 62.7256C12.5986 62.7256 16.7002 61.5684 21.0947 59.2539C25.4307 56.9688 28.4336 54.3613 30.1035 51.4316C30.8652 50.0547 31.2461 48.7217 31.2461 47.4326C31.2461 44.8545 29.6641 42.7305 26.5 41.0605C25.2402 40.416 22.4863 39.332 18.2383 37.8086C13.4629 36.1387 10.0498 34.4834 7.99902 32.8428C6.76855 31.876 5.78711 30.8213 5.05469 29.6787C4.32227 28.5068 3.95605 27.3057 3.95605 26.0752C3.95605 22.208 7.10547 17.916 13.4043 13.1992C14.4883 12.3789 15.6016 11.6025 16.7441 10.8701C23.541 6.50488 30.7773 3.37012 38.4531 1.46582C39.3027 1.26074 40.1377 1.07031 40.958 0.894531C43.8291 0.337891 45.9238 0.0595703 47.2422 0.0595703C49.791 0.0888672 51.7246 0.704102 53.043 1.90527C53.7754 2.6084 54.1416 3.45801 54.1416 4.4541C54.1416 6.44629 52.8379 8.76074 50.2305 11.3975C49.9375 11.6904 49.791 11.8369 49.791 11.8369ZM44.1221 45.0596C43.6533 45.2939 43.4189 45.9531 43.4189 47.0371C43.4482 48.0625 43.7412 48.6777 44.2979 48.8828C44.8545 49.0586 45.4551 49.1465 46.0996 49.1465C49.791 49.1465 54.9766 46.7002 61.6562 41.8076C63.3848 40.5479 64.9082 39.332 66.2266 38.1602C66.3438 38.0723 66.4609 38.0283 66.5781 38.0283C67.1641 38.0283 67.7646 38.4678 68.3799 39.3467C68.7021 39.8154 68.8633 40.2109 68.8633 40.5332C68.834 40.709 68.7754 40.8555 68.6875 40.9727C67.9844 41.6758 66.4316 42.8916 64.0293 44.6201C57.3789 49.3955 52.0176 51.7979 47.9453 51.8271C47.418 51.8271 47.0371 51.8125 46.8027 51.7832C43.082 51.2852 41.0166 49.5859 40.6064 46.6855C40.5479 46.3633 40.5186 46.041 40.5186 45.7188C40.5186 43.0527 41.6611 40.2256 43.9463 37.2373C46.0264 34.5127 48.1943 32.7842 50.4502 32.0518C50.9482 31.9053 51.417 31.8174 51.8564 31.7881H52.0322C53.4092 31.7881 54.5811 32.3887 55.5479 33.5898C56.1631 34.3809 56.4707 35.1865 56.4707 36.0068C56.4414 36.5928 56.2949 37.1348 56.0312 37.6328C55.7383 38.1602 55.2842 38.7021 54.6689 39.2588C54.083 39.8154 53.4238 40.3281 52.6914 40.7969C51.9883 41.2656 51.2266 41.7197 50.4062 42.1592C49.6152 42.5986 48.8535 42.9941 48.1211 43.3457C47.3887 43.6973 46.7148 44.0049 46.0996 44.2686C45.5137 44.5322 45.0449 44.7227 44.6934 44.8398L44.1221 45.0596ZM46.583 40.1816C50.5381 38.1602 52.7646 36.3145 53.2627 34.6445C51.5342 35.1719 49.6006 36.666 47.4619 39.127C47.1396 39.4785 46.8467 39.8301 46.583 40.1816ZM88.1553 38.248C88.5654 37.8672 89.1514 38.0723 89.9131 38.8633C90.6748 39.6543 90.9092 40.2695 90.6162 40.709C90.5576 40.7383 90.5283 40.7676 90.5283 40.7969C90.2939 41.002 88.3311 43.1406 84.6396 47.2129C78.1943 54.2734 73.7412 58.1406 71.2803 58.8145C70.7236 58.9316 70.2549 58.9316 69.874 58.8145C68.9072 58.4629 68.1162 57.8477 67.501 56.9688C66.3877 55.2988 67.6328 51.1826 71.2363 44.6201C71.5 44.1221 71.9102 43.3896 72.4668 42.4229C73.1992 41.1045 73.6826 40.2109 73.917 39.7422C70.3135 40.8262 67.5303 40.6943 65.5674 39.3467C63.7217 38.0869 63.0186 36.2705 63.458 33.8975C63.7803 32.0518 64.6152 30.6309 65.9629 29.6348C66.4023 29.3125 66.8418 29.0928 67.2812 28.9756C68.4824 28.624 69.6396 29.0342 70.7529 30.2061C71.3682 30.8799 71.7637 31.583 71.9395 32.3154C72.1738 33.6338 71.8223 35.2744 70.8848 37.2373C71.1191 37.1787 71.5439 37.0322 72.1592 36.7979C73.624 36.2705 74.5615 36.0068 74.9717 36.0068C76.3486 36.124 77.3154 36.8418 77.8721 38.1602C78.1943 39.0391 77.1689 41.6758 74.7959 46.0703C72.3643 50.6113 70.9287 53.4238 70.4893 54.5078C70.2549 55.1523 70.0938 55.6797 70.0059 56.0898C71.9688 55.1816 75.8359 51.5928 81.6074 45.3232C85.3867 41.1924 87.5693 38.834 88.1553 38.248ZM66.3584 37.6328C67.7354 35.5234 68.5557 33.707 68.8193 32.1836C68.1455 32.7402 67.5596 33.5605 67.0615 34.6445C66.7393 35.2891 66.4902 36.0801 66.3145 37.0176C66.2852 37.3398 66.2998 37.5449 66.3584 37.6328ZM90.001 32.667C90.1182 32.4619 90.2939 32.3447 90.5283 32.3154C91.1729 32.3154 91.8174 32.6816 92.4619 33.4141C92.7549 33.7949 92.916 34.1465 92.9453 34.4688C92.9453 34.5859 92.9307 34.6738 92.9014 34.7324C92.9014 34.7324 92.3887 36.2266 91.3633 39.2148C90.3086 42.7891 89.7812 45.6162 89.7812 47.6963C89.7812 48.2529 89.8252 48.7803 89.9131 49.2783C91.7588 48.5752 94.2783 46.0996 97.4717 41.8516C97.7646 41.4414 98.043 41.0605 98.3066 40.709C99.625 38.8633 100.665 37.1787 101.427 35.6553L101.954 33.1504C102.042 32.9746 102.101 32.8867 102.13 32.8867C102.247 32.6816 102.423 32.5791 102.657 32.5791C103.36 32.5791 104.005 32.96 104.591 33.7217C105.001 34.249 105.191 34.791 105.162 35.3477C104.723 36.666 104.503 37.3838 104.503 37.501C104.474 37.6475 104.459 37.7793 104.459 37.8965C104.459 38.248 104.474 38.5264 104.503 38.7314C104.796 38.9072 105.25 38.9951 105.865 38.9951C107.623 38.9951 109.806 38.5996 112.413 37.8086C112.501 37.7793 112.604 37.7646 112.721 37.7646C113.395 37.7646 114.039 38.1895 114.654 39.0391C114.918 39.3906 115.05 39.6982 115.05 39.9619C114.991 40.1963 114.859 40.3574 114.654 40.4453C112.135 41.2656 109.996 41.6758 108.238 41.6758C106.1 41.6465 104.4 41.0605 103.141 39.918C101.207 43.1406 99.0244 46.0264 96.5928 48.5752C94.3076 50.9189 92.4766 52.1055 91.0996 52.1348H91.0117C89.5469 52.1348 88.3896 51.2998 87.54 49.6299C87.2178 48.9854 86.998 48.3262 86.8809 47.6523C86.8223 47.3301 86.793 46.8467 86.793 46.2021C86.793 45.6455 86.8223 45.0303 86.8809 44.3564C86.9688 43.6826 87.0713 43.0234 87.1885 42.3789C87.3057 41.7051 87.4375 41.0312 87.584 40.3574C87.7598 39.6543 87.9355 38.9951 88.1113 38.3799C88.3164 37.7646 88.5068 37.1641 88.6826 36.5781C88.8584 35.9922 89.0195 35.4648 89.166 34.9961C89.3418 34.5273 89.4883 34.1172 89.6055 33.7656C89.7227 33.4141 89.8105 33.1504 89.8691 32.9746L90.001 32.667ZM114.918 31.9199C115.035 31.7441 115.196 31.6416 115.401 31.6123C116.046 31.6123 116.734 32.0078 117.467 32.7988C117.818 33.209 118.009 33.5605 118.038 33.8535C118.038 33.9414 118.009 34.0293 117.95 34.1172C115.401 39.5078 113.995 43.6973 113.731 46.6855C113.702 46.9492 113.688 47.1982 113.688 47.4326C113.688 47.8428 113.746 48.2676 113.863 48.707H113.951C116.383 48.707 119.986 46.2607 124.762 41.3682C125.992 40.0791 127.047 38.9072 127.926 37.8525C128.014 37.7354 128.131 37.6768 128.277 37.6768C128.775 37.6768 129.303 38.1162 129.859 38.9951C130.152 39.4639 130.299 39.874 130.299 40.2256C130.27 40.3721 130.211 40.5332 130.123 40.709C124.205 47.7402 119.444 51.3145 115.841 51.4316C115.519 51.4316 115.108 51.373 114.61 51.2559C113.204 50.8457 112.12 50.0107 111.358 48.751C110.86 47.9307 110.611 46.876 110.611 45.5869C110.611 42.4814 112.047 37.9258 114.918 31.9199ZM119.796 29.9424C119.679 30.0889 119.518 30.1768 119.312 30.2061C118.668 30.2061 117.994 29.8252 117.291 29.0635C116.939 28.624 116.749 28.2578 116.72 27.9648C116.72 27.877 116.749 27.7744 116.808 27.6572L120.455 21.8125C120.572 21.666 120.748 21.5928 120.982 21.5928C121.656 21.5928 122.345 21.9883 123.048 22.7793C123.37 23.1602 123.546 23.4971 123.575 23.79C123.575 23.8779 123.546 23.9805 123.487 24.0977L119.796 29.9424ZM140.362 38.0283C140.216 38.3213 140.011 38.4824 139.747 38.5117C139.103 38.5117 138.429 38.0723 137.726 37.1934C137.315 36.666 137.154 36.2412 137.242 35.9189L137.857 34.1172C136.188 34.4395 134.239 35.8311 132.013 38.292C129.493 41.0459 128.014 43.624 127.574 46.0264C127.486 46.4365 127.442 46.8174 127.442 47.1689C127.472 47.9014 127.647 48.5312 127.97 49.0586C128.351 49.1465 128.717 49.1904 129.068 49.1904C131.91 49.1904 136.847 46.876 143.878 42.2471C144.493 41.8662 145.387 41.2803 146.559 40.4893C148.463 39.2002 149.767 38.3506 150.47 37.9404C150.616 37.8525 150.733 37.8086 150.821 37.8086C151.495 37.8086 152.198 38.2334 152.931 39.083C153.224 39.4932 153.385 39.8301 153.414 40.0938C153.385 40.2988 153.312 40.4307 153.194 40.4893C152.433 40.958 151.07 41.8516 149.107 43.1699C143.482 46.9199 139.278 49.3809 136.495 50.5527C134.298 51.4609 132.423 51.915 130.87 51.915C130.577 51.915 130.211 51.8857 129.771 51.8271C127.867 51.5049 126.388 50.4795 125.333 48.751C124.835 47.9307 124.527 47.0664 124.41 46.1582C124.381 45.9824 124.366 45.7627 124.366 45.499C124.366 43.0381 125.523 40.2988 127.838 37.2812C130.064 34.4395 132.408 32.5645 134.869 31.6562C135.66 31.3926 136.393 31.2607 137.066 31.2607C138.648 31.29 139.894 31.9932 140.802 33.3701C141.095 33.8389 141.241 34.3369 141.241 34.8643C141.241 35.3037 140.992 36.2412 140.494 37.6768C140.436 37.8232 140.392 37.9404 140.362 38.0283ZM153.238 31.9199C153.355 31.7441 153.517 31.6416 153.722 31.6123C154.366 31.6123 155.055 32.0078 155.787 32.7988C156.139 33.209 156.329 33.5605 156.358 33.8535C156.358 33.9414 156.329 34.0293 156.271 34.1172C153.722 39.5078 152.315 43.6973 152.052 46.6855C152.022 46.9492 152.008 47.1982 152.008 47.4326C152.008 47.8428 152.066 48.2676 152.184 48.707H152.271C154.703 48.707 158.307 46.2607 163.082 41.3682C164.312 40.0791 165.367 38.9072 166.246 37.8525C166.334 37.7354 166.451 37.6768 166.598 37.6768C167.096 37.6768 167.623 38.1162 168.18 38.9951C168.473 39.4639 168.619 39.874 168.619 40.2256C168.59 40.3721 168.531 40.5332 168.443 40.709C162.525 47.7402 157.765 51.3145 154.161 51.4316C153.839 51.4316 153.429 51.373 152.931 51.2559C151.524 50.8457 150.44 50.0107 149.679 48.751C149.181 47.9307 148.932 46.876 148.932 45.5869C148.932 42.4814 150.367 37.9258 153.238 31.9199ZM158.116 29.9424C157.999 30.0889 157.838 30.1768 157.633 30.2061C156.988 30.2061 156.314 29.8252 155.611 29.0635C155.26 28.624 155.069 28.2578 155.04 27.9648C155.04 27.877 155.069 27.7744 155.128 27.6572L158.775 21.8125C158.893 21.666 159.068 21.5928 159.303 21.5928C159.977 21.5928 160.665 21.9883 161.368 22.7793C161.69 23.1602 161.866 23.4971 161.896 23.79C161.896 23.8779 161.866 23.9805 161.808 24.0977L158.116 29.9424ZM170.641 36.4463C171.314 37.0322 171.666 37.4863 171.695 37.8086C171.695 38.0137 171.417 38.248 170.86 38.5117C170.538 38.6582 170.318 38.7754 170.201 38.8633C170.67 40.416 172.018 41.4414 174.244 41.9395C175.416 39.8301 176.002 37.9844 176.002 36.4023C176.002 35.7871 175.899 35.3037 175.694 34.9521C175.606 34.8643 175.431 34.8203 175.167 34.8203C173.849 34.8203 172.618 35.1279 171.476 35.7432C171.095 35.9775 170.816 36.2119 170.641 36.4463ZM166.993 36.7539C166.993 36.6953 166.979 36.6074 166.949 36.4902C166.949 36.4023 166.949 36.3291 166.949 36.2705C166.949 34.5127 167.916 33.2969 169.85 32.623C170.641 32.3301 171.49 32.1836 172.398 32.1836C174.508 32.2129 176.134 32.7842 177.276 33.8975C178.478 35.0693 179.078 36.5928 179.078 38.4678C179.078 39.5811 178.829 40.7236 178.331 41.8955C181.671 41.251 184.586 39.918 187.076 37.8965C187.193 37.8086 187.325 37.7646 187.472 37.7646C188.087 37.7646 188.702 38.1748 189.317 38.9951C189.61 39.376 189.771 39.7129 189.801 40.0059C189.771 40.1816 189.698 40.3135 189.581 40.4014C185.948 43.3311 182.14 44.7959 178.155 44.7959C177.599 44.7959 177.188 44.7812 176.925 44.752C174.288 49.0293 171.197 51.168 167.652 51.168C166.129 51.168 164.913 50.8457 164.005 50.2012C163.946 50.1133 163.902 50.0547 163.873 50.0254C162.379 48.9414 161.632 47.5498 161.632 45.8506C161.632 43.5361 162.833 41.0605 165.235 38.4238C165.821 37.7793 166.407 37.2227 166.993 36.7539ZM168.619 40.3574C166.598 42.5254 165.338 44.5908 164.84 46.5537C164.781 46.876 164.737 47.1689 164.708 47.4326C164.679 47.96 164.679 48.2969 164.708 48.4434C165.118 48.6191 165.543 48.707 165.982 48.707C167.799 48.707 169.776 47.5205 171.915 45.1475C172.325 44.6787 172.706 44.21 173.058 43.7412C171.241 42.8916 169.762 41.7637 168.619 40.3574ZM192.35 28.0088C192.467 27.9502 192.584 27.9209 192.701 27.9209C193.375 27.9209 194.078 28.3311 194.811 29.1514C195.104 29.5615 195.265 29.8984 195.294 30.1621C195.265 30.3672 195.191 30.499 195.074 30.5576C192.174 32.2568 190.46 33.8828 189.933 35.4355C189.757 35.9336 189.669 36.4463 189.669 36.9736C189.698 38.2627 190.255 39.9912 191.339 42.1592C195.528 40.3721 199.908 38.9512 204.479 37.8965H204.698C205.431 37.8965 206.148 38.3359 206.852 39.2148C207.115 39.5957 207.262 39.918 207.291 40.1816C207.232 40.416 207.101 40.5625 206.896 40.6211C201.534 41.8516 196.788 43.4189 192.657 45.3232C192.804 45.8799 192.877 46.3633 192.877 46.7734C192.877 48.9414 191.061 50.8604 187.428 52.5303C187.398 52.5596 187.369 52.5742 187.34 52.5742C186.021 53.1602 185.069 53.4531 184.483 53.4531C183.312 53.3945 182.315 52.6621 181.495 51.2559C181.29 50.875 181.188 50.4795 181.188 50.0693C181.217 47.9893 183.912 45.6602 189.273 43.082C187.838 40.3281 187.003 38.6143 186.769 37.9404C186.446 37.0029 186.285 36.168 186.285 35.4355C186.344 32.8281 188.365 30.3525 192.35 28.0088ZM185.978 49.3662C187.149 48.7217 188.043 48.0771 188.658 47.4326C187.691 48.0479 186.798 48.6924 185.978 49.3662Z" fill="#471666"/>
</svg>
