<svg id="svg561" xmlns="http://www.w3.org/2000/svg" xmlns:xlink="http://www.w3.org/1999/xlink" viewBox="0 0 672.67 672.67"><defs><style>.cls-1,.cls-3{fill:none;}.cls-2{clip-path:url(#clip-path);}.cls-3{stroke:#fff;stroke-linecap:round;stroke-linejoin:round;stroke-width:30px;}</style><clipPath id="clip-path" transform="translate(-5 -5)"><rect class="cls-1" width="682.67" height="682.67"/></clipPath></defs><title>tiktok-icon</title><g id="g567"><g id="g569"><g class="cls-2"><g id="g571"><g id="g577"><path id="path579" class="cls-3" d="M278.26,359.33c-35.34,3.24-62.77,32.54-62.84,68.08A68.7,68.7,0,0,0,282.59,496c39.14.78,70.28-28.41,70.61-68.38.67-82.82.33-323.85.33-323.85H434.3c2.84,38.35,17.75,71.05,51.24,91.56,14.92,9.13,32.57,14.44,49.62,19.2a85.61,85.61,0,0,0,14.42,3v78.85s-71-.92-114.4-31.66l-.09,159.61c-.36,86.35-58.55,147.42-146.69,154.25-70.88,5.5-140-52.89-153.37-129.47C119.94,362.48,195.1,277,277.72,277.47Z" transform="translate(-5 -5)"/></g><path id="path581" class="cls-3" d="M662.67,662.67H20V20H662.67Z" transform="translate(-5 -5)"/></g></g></g></g></svg>