<svg width="190" height="171" viewBox="0 0 190 171" fill="none" xmlns="http://www.w3.org/2000/svg">
<path opacity="0.35" d="M181.331 60.5789L181.455 60.5078H132.129C131.12 60.5078 130.111 60.5505 129.129 60.65C126.752 60.8918 124.277 61.3611 121.775 62.0864C118.319 63.0677 114.945 64.4899 111.738 66.2819C109.817 67.3485 107.95 68.5716 106.153 69.9084C106.457 69.112 106.734 68.2729 106.983 67.3912C107.701 64.817 107.701 62.5984 107.701 60.65V7.97241L107.536 7.20443C106.692 3.30765 103.264 0.633947 99.4482 0.776165H61.0576C58.7627 0.847274 56.4817 1.98502 54.9472 3.83386C53.7997 5.22759 52.5417 7.61686 52.8597 11.2576V54.3924H10.0037C4.73661 54.3924 0.464844 58.8012 0.464844 64.2055V100.898C0.464844 105.932 4.16981 110.085 8.92543 110.654L8.80101 110.725H58.113C59.1222 110.725 60.1313 110.682 61.1129 110.583C63.4907 110.341 65.9653 109.872 68.4675 109.146C71.9098 108.165 75.2968 106.743 78.5041 104.951C80.4257 103.884 82.292 102.661 84.0892 101.324C83.785 102.121 83.5085 102.96 83.2597 103.842C82.5408 106.416 82.5408 108.634 82.5408 110.583V163.246L82.7067 164.014C83.5224 167.811 86.785 170.457 90.4761 170.457C90.5867 170.457 90.6835 170.457 90.794 170.457H129.185C131.48 170.386 133.761 169.248 135.295 167.399C136.443 166.005 137.701 163.616 137.383 159.975V116.84H180.225C185.492 116.84 189.764 112.432 189.764 107.027V70.3351C189.764 65.3006 186.059 61.1478 181.303 60.5931L181.331 60.5789Z" fill="#32C9D0" fill-opacity="0.78"/>
<mask id="mask0_732_1129" style="mask-type:luminance" maskUnits="userSpaceOnUse" x="45" y="30" width="79" height="76">
<path d="M123.271 30.2065H45.709V105.134H123.271V30.2065Z" fill="white"/>
</mask>
<g mask="url(#mask0_732_1129)">
<path d="M107.646 76.1079C107.646 76.1129 107.651 76.1129 107.651 76.118C107.906 76.6762 108.452 77.003 109.035 77.003C109.244 77.003 109.452 76.9628 109.66 76.8723C110.436 76.5404 110.769 75.6855 110.425 74.9312C110.077 74.1719 109.202 73.84 108.426 74.1719C107.64 74.4987 107.302 75.3536 107.646 76.1079Z" fill="black"/>
</g>
<mask id="mask1_732_1129" style="mask-type:luminance" maskUnits="userSpaceOnUse" x="45" y="30" width="79" height="76">
<path d="M123.271 30.2065H45.709V105.134H123.271V30.2065Z" fill="white"/>
</mask>
<g mask="url(#mask1_732_1129)">
<path d="M111.82 80.3776C111.69 79.578 110.914 79.0349 110.086 79.1606C109.259 79.2863 108.696 80.0356 108.827 80.8352C109.165 82.912 109.259 85.0341 109.102 87.1311C108.738 91.9988 106.193 96.4391 102.117 99.3205L101.091 100.045C99.087 101.463 96.7133 102.207 94.225 102.207C93.3245 102.207 92.4239 102.106 91.5494 101.905L87.5359 100.99C79.7745 99.22 72.7001 95.0613 67.6091 89.2783C65.3447 86.7087 64.3244 84.838 63.5436 82.912C63.6061 82.7159 63.6269 82.5047 63.6009 82.2885C63.5905 82.2231 62.8461 75.9071 72.0755 71.8489C78.4054 69.0681 81.3622 64.3059 82.3929 62.2542C89.3318 63.1795 91.7212 65.0653 91.8982 65.2111C92.2625 65.5882 92.7675 65.7089 93.2932 65.5933C93.4182 65.5681 93.5431 65.538 93.668 65.5128C98.5248 64.5272 103.527 67.0264 105.573 71.4466C105.917 72.1859 106.812 72.5178 107.572 72.1859C108.337 71.854 108.676 70.989 108.337 70.2498C107.176 67.7455 105.23 65.6385 102.804 64.2355C102.804 64.2305 102.809 64.2255 102.809 64.2204C103.116 63.2751 103.267 62.2945 103.267 61.2988C103.267 61.0976 103.257 60.9015 103.246 60.7054H104.298C105.136 60.7054 105.813 60.0517 105.813 59.2421C105.813 58.4325 105.136 57.7787 104.298 57.7787H102.585C102.195 56.8082 101.653 55.9131 100.982 55.1186L101.669 54.4548C102.262 53.8815 102.262 52.9562 101.669 52.383C101.076 51.8097 100.118 51.8097 99.5243 52.383L98.733 53.1473C97.5045 52.3578 96.0886 51.8248 94.5634 51.6186C96.5675 50.0698 99.2067 49.3356 102.419 49.4362C102.83 49.4513 103.225 49.3004 103.522 49.0238C103.819 48.7472 103.985 48.3701 103.985 47.9728V42.4111C103.985 41.6518 103.382 41.0182 102.596 40.9528C102.351 40.9327 99.5139 40.7265 95.8231 41.154C94.173 38.0714 91.8513 35.7783 89.1809 34.5111L90.2532 32.9623C90.7217 32.2884 90.5343 31.3833 89.8368 30.9307C89.1444 30.4831 88.2022 30.6591 87.7337 31.333L86.1981 33.5456C85.5422 33.4299 84.8759 33.3645 84.1992 33.3645C83.8088 33.3645 83.4235 33.3847 83.0383 33.4249V31.6699C83.0383 30.8603 82.3616 30.2065 81.5235 30.2065C80.6854 30.2065 80.0087 30.8603 80.0087 31.6699V34.1742C78.5876 34.7323 77.2394 35.5772 76.0109 36.6935C75.0895 37.5283 74.2618 38.4988 73.5382 39.5699C72.9708 38.4888 71.8048 37.7395 70.467 37.7395H66.3546C64.4546 37.7395 62.9137 39.233 62.9137 41.0634V56.0237C62.1537 56.597 61.4145 57.2658 60.7118 58.0402C57.3907 61.7011 56.7296 66.4934 56.7608 69.8727C56.792 73.6945 57.7499 77.5866 59.2647 80.0859C59.4937 80.6793 59.6967 81.2475 59.8997 81.8007C60.92 84.6218 61.8778 87.2869 65.3031 91.1691C70.8105 97.4247 78.4627 101.92 86.8436 103.831L90.8571 104.746C91.9606 104.998 93.0954 105.124 94.2302 105.124C97.364 105.124 100.352 104.178 102.882 102.398L103.907 101.674C108.707 98.2846 111.705 93.0599 112.132 87.3322C112.304 85.019 112.2 82.6757 111.82 80.3776ZM93.3349 62.5962C92.7258 62.1838 91.6847 61.6005 90.0554 61.0122C90.1803 59.6041 90.602 56.949 92.0283 54.5453C92.3979 54.49 92.7727 54.4598 93.1475 54.4598C97.0568 54.4598 100.237 57.5323 100.237 61.3089C100.237 61.8922 100.159 62.4654 100.014 63.0186C97.8637 62.3448 95.5629 62.1939 93.3349 62.5962ZM100.956 43.8242V46.5296C97.2026 46.6855 94.1053 47.8974 91.7368 50.1352C88.4052 53.2831 87.4058 57.653 87.1039 60.1372C85.6567 59.7902 83.9337 59.4734 81.8983 59.237C81.435 58.8247 80.9769 58.4375 80.5241 58.0704C80.5241 58.0352 80.5293 58 80.5293 57.9648C80.5293 54.0324 81.8463 50.8693 84.4386 48.5612C89.3631 44.1712 97.6763 43.794 100.956 43.8242ZM84.2096 36.2963C84.9696 36.2963 85.7192 36.4019 86.4428 36.608C88.8581 37.2869 91.0444 39.062 92.653 41.6618C89.1288 42.396 85.3236 43.789 82.3876 46.3989C79.5923 48.883 77.989 52.1114 77.5933 56.0137C76.3544 55.2694 75.1259 54.7012 73.9182 54.3039V45.8457C73.9443 45.7854 73.9703 45.725 73.9859 45.6647C75.6569 40.0627 79.7641 36.2963 84.2096 36.2963ZM65.9486 41.0685C65.9486 40.8472 66.136 40.6712 66.3598 40.6712H70.4722C70.7012 40.6712 70.8834 40.8472 70.8834 41.0685V53.6804C70.3785 53.6351 69.8735 53.625 69.3738 53.6452C68.1869 53.6954 67.0469 53.9318 65.9486 54.3441V41.0685ZM62.997 59.9763C64.9543 57.819 67.1458 56.6724 69.5092 56.5718C72.5232 56.4411 75.99 58.0251 79.5662 61.153C78.6397 62.908 76.0681 66.8756 70.8157 69.1837C65.022 71.7333 62.5441 75.193 61.4926 77.642C61.477 77.6822 61.4562 77.7224 61.4406 77.7677C59.5249 73.6693 58.4942 64.9395 62.997 59.9763Z" fill="black"/>
</g>
<mask id="mask2_732_1129" style="mask-type:luminance" maskUnits="userSpaceOnUse" x="45" y="30" width="79" height="76">
<path d="M123.271 30.2065H45.709V105.134H123.271V30.2065Z" fill="white"/>
</mask>
<g mask="url(#mask2_732_1129)">
<path d="M75.9794 89.062C75.3339 88.5441 74.3813 88.6346 73.8451 89.2531C73.3089 89.8716 73.4026 90.7969 74.0429 91.3149C78.1397 94.5986 83.0485 96.9621 88.2332 98.1438C88.3477 98.1689 88.4675 98.184 88.582 98.184C89.2691 98.184 89.8886 97.7314 90.0551 97.0576C90.2478 96.2681 89.7428 95.4836 88.9307 95.2976C84.1989 94.2114 79.7222 92.0591 75.9794 89.062Z" fill="black"/>
</g>
<mask id="mask3_732_1129" style="mask-type:luminance" maskUnits="userSpaceOnUse" x="45" y="30" width="79" height="76">
<path d="M123.271 30.2065H45.709V105.134H123.271V30.2065Z" fill="white"/>
</mask>
<g mask="url(#mask3_732_1129)">
<path d="M70.076 85.3256C69.4409 85.8536 69.3732 86.7738 69.9198 87.3873C70.2217 87.7343 70.6486 87.9153 71.0858 87.9153C71.4294 87.9153 71.773 87.8047 72.0541 87.5784C72.6943 87.0605 72.7828 86.1402 72.2467 85.5167L72.2154 85.4815C71.6688 84.8629 70.711 84.7925 70.076 85.3256Z" fill="black"/>
</g>
<path d="M41.4807 132.665C43.7847 132.665 45.8007 131.531 46.8807 129.749L44.3967 128.309C43.8567 129.281 42.7587 129.857 41.4807 129.857C39.2487 129.857 37.8087 128.363 37.8087 126.113C37.8087 123.863 39.2487 122.369 41.4807 122.369C42.7587 122.369 43.8387 122.945 44.3967 123.917L46.8807 122.477C45.7827 120.695 43.7667 119.561 41.4807 119.561C37.6827 119.561 34.9287 122.405 34.9287 126.113C34.9287 129.821 37.6827 132.665 41.4807 132.665ZM54.7623 123.413V124.259C54.1683 123.575 53.2863 123.161 52.0803 123.161C49.7223 123.161 47.7783 125.231 47.7783 127.913C47.7783 130.595 49.7223 132.665 52.0803 132.665C53.2863 132.665 54.1683 132.251 54.7623 131.567V132.413H57.4623V123.413H54.7623ZM52.6203 130.109C51.3783 130.109 50.4783 129.263 50.4783 127.913C50.4783 126.563 51.3783 125.717 52.6203 125.717C53.8623 125.717 54.7623 126.563 54.7623 127.913C54.7623 129.263 53.8623 130.109 52.6203 130.109ZM62.1431 125.015V123.413H59.4431V132.413H62.1431V128.345C62.1431 126.563 63.7271 126.113 64.8431 126.293V123.233C63.7091 123.233 62.5031 123.809 62.1431 125.015ZM72.3756 119.813V124.259C71.7816 123.575 70.8996 123.161 69.6936 123.161C67.3356 123.161 65.3916 125.231 65.3916 127.913C65.3916 130.595 67.3356 132.665 69.6936 132.665C70.8996 132.665 71.7816 132.251 72.3756 131.567V132.413H75.0756V119.813H72.3756ZM70.2336 130.109C68.9916 130.109 68.0916 129.263 68.0916 127.913C68.0916 126.563 68.9916 125.717 70.2336 125.717C71.4756 125.717 72.3756 126.563 72.3756 127.913C72.3756 129.263 71.4756 130.109 70.2336 130.109ZM78.4064 122.621C79.2884 122.621 80.0264 121.883 80.0264 121.001C80.0264 120.119 79.2884 119.381 78.4064 119.381C77.5244 119.381 76.7864 120.119 76.7864 121.001C76.7864 121.883 77.5244 122.621 78.4064 122.621ZM77.0564 132.413H79.7564V123.413H77.0564V132.413ZM86.0522 132.665C88.6982 132.665 90.8222 130.595 90.8222 127.913C90.8222 125.231 88.6982 123.161 86.0522 123.161C83.4062 123.161 81.2822 125.231 81.2822 127.913C81.2822 130.595 83.4062 132.665 86.0522 132.665ZM86.0522 130.037C84.8822 130.037 83.9822 129.191 83.9822 127.913C83.9822 126.635 84.8822 125.789 86.0522 125.789C87.2222 125.789 88.1222 126.635 88.1222 127.913C88.1222 129.191 87.2222 130.037 86.0522 130.037ZM92.3494 132.413H95.0494V119.273H92.3494V132.413ZM101.345 132.665C103.991 132.665 106.115 130.595 106.115 127.913C106.115 125.231 103.991 123.161 101.345 123.161C98.6991 123.161 96.5751 125.231 96.5751 127.913C96.5751 130.595 98.6991 132.665 101.345 132.665ZM101.345 130.037C100.175 130.037 99.2751 129.191 99.2751 127.913C99.2751 126.635 100.175 125.789 101.345 125.789C102.515 125.789 103.415 126.635 103.415 127.913C103.415 129.191 102.515 130.037 101.345 130.037ZM114.248 123.413V124.331C113.654 123.593 112.79 123.161 111.62 123.161C109.064 123.161 107.192 125.249 107.192 127.733C107.192 130.217 109.064 132.305 111.62 132.305C112.79 132.305 113.654 131.873 114.248 131.135V131.963C114.248 133.241 113.474 133.889 112.214 133.889C111.026 133.889 110.504 133.385 110.162 132.755L107.858 134.087C108.686 135.563 110.252 136.265 112.124 136.265C114.518 136.265 116.876 134.987 116.876 131.963V123.413H114.248ZM112.07 129.821C110.792 129.821 109.892 128.975 109.892 127.733C109.892 126.491 110.792 125.645 112.07 125.645C113.348 125.645 114.248 126.491 114.248 127.733C114.248 128.975 113.348 129.821 112.07 129.821ZM118.857 122.513L119.577 119.813H122.637L121.449 122.513H118.857ZM118.857 132.413H121.557V123.413H118.857V132.413ZM130.067 123.413V124.259C129.473 123.575 128.591 123.161 127.385 123.161C125.027 123.161 123.083 125.231 123.083 127.913C123.083 130.595 125.027 132.665 127.385 132.665C128.591 132.665 129.473 132.251 130.067 131.567V132.413H132.767V123.413H130.067ZM127.925 130.109C126.683 130.109 125.783 129.263 125.783 127.913C125.783 126.563 126.683 125.717 127.925 125.717C129.167 125.717 130.067 126.563 130.067 127.913C130.067 129.263 129.167 130.109 127.925 130.109ZM36.2519 143.161C35.0459 143.161 34.1639 143.575 33.5699 144.259V143.413H30.8699V156.013H33.5699V151.567C34.1639 152.251 35.0459 152.665 36.2519 152.665C38.6099 152.665 40.5539 150.595 40.5539 147.913C40.5539 145.231 38.6099 143.161 36.2519 143.161ZM35.7119 150.109C34.4699 150.109 33.5699 149.263 33.5699 147.913C33.5699 146.563 34.4699 145.717 35.7119 145.717C36.9539 145.717 37.8539 146.563 37.8539 147.913C37.8539 149.263 36.9539 150.109 35.7119 150.109ZM48.6187 143.413V144.259C48.0247 143.575 47.1427 143.161 45.9367 143.161C43.5787 143.161 41.6347 145.231 41.6347 147.913C41.6347 150.595 43.5787 152.665 45.9367 152.665C47.1427 152.665 48.0247 152.251 48.6187 151.567V152.413H51.3187V143.413H48.6187ZM46.4767 150.109C45.2347 150.109 44.3347 149.263 44.3347 147.913C44.3347 146.563 45.2347 145.717 46.4767 145.717C47.7187 145.717 48.6187 146.563 48.6187 147.913C48.6187 149.263 47.7187 150.109 46.4767 150.109ZM55.9996 145.015V143.413H53.2996V152.413H55.9996V148.345C55.9996 146.563 57.5836 146.113 58.6996 146.293V143.233C57.5656 143.233 56.3596 143.809 55.9996 145.015ZM66.232 143.413V144.259C65.638 143.575 64.756 143.161 63.55 143.161C61.192 143.161 59.248 145.231 59.248 147.913C59.248 150.595 61.192 152.665 63.55 152.665C64.756 152.665 65.638 152.251 66.232 151.567V152.413H68.932V143.413H66.232ZM64.09 150.109C62.848 150.109 61.948 149.263 61.948 147.913C61.948 146.563 62.848 145.717 64.09 145.717C65.332 145.717 66.232 146.563 66.232 147.913C66.232 149.263 65.332 150.109 64.09 150.109ZM83.5128 152.413H86.6628L82.3788 139.813H78.7068L74.4228 152.413H77.5728L78.2028 150.433H82.8828L83.5128 152.413ZM79.0668 147.733L80.5428 143.107L82.0188 147.733H79.0668ZM93.9175 139.813V144.259C93.3235 143.575 92.4415 143.161 91.2355 143.161C88.8775 143.161 86.9335 145.231 86.9335 147.913C86.9335 150.595 88.8775 152.665 91.2355 152.665C92.4415 152.665 93.3235 152.251 93.9175 151.567V152.413H96.6175V139.813H93.9175ZM91.7755 150.109C90.5335 150.109 89.6335 149.263 89.6335 147.913C89.6335 146.563 90.5335 145.717 91.7755 145.717C93.0175 145.717 93.9175 146.563 93.9175 147.913C93.9175 149.263 93.0175 150.109 91.7755 150.109ZM104.412 143.413V148.327C104.412 149.605 103.728 150.181 102.738 150.181C101.874 150.181 101.172 149.659 101.172 148.543V143.413H98.4724V148.939C98.4724 151.369 100.02 152.665 101.838 152.665C103.026 152.665 103.926 152.233 104.412 151.567V152.413H107.112V143.413H104.412ZM109.093 152.413H111.793V139.273H109.093V152.413ZM119.042 146.005V143.413H117.188V140.893L114.488 141.703V143.413H113.048V146.005H114.488V149.191C114.488 151.711 115.514 152.773 119.042 152.413V149.965C117.854 150.037 117.188 149.965 117.188 149.191V146.005H119.042ZM124.715 152.665C127.361 152.665 129.485 150.595 129.485 147.913C129.485 145.231 127.361 143.161 124.715 143.161C122.069 143.161 119.945 145.231 119.945 147.913C119.945 150.595 122.069 152.665 124.715 152.665ZM124.715 150.037C123.545 150.037 122.645 149.191 122.645 147.913C122.645 146.635 123.545 145.789 124.715 145.789C125.885 145.789 126.785 146.635 126.785 147.913C126.785 149.191 125.885 150.037 124.715 150.037ZM133.393 146.041C133.393 145.717 133.681 145.537 134.149 145.537C134.743 145.537 135.103 145.861 135.355 146.329L137.659 145.087C136.903 143.809 135.607 143.161 134.149 143.161C132.277 143.161 130.621 144.151 130.621 146.113C130.621 149.227 135.049 148.705 135.049 149.695C135.049 150.055 134.725 150.253 134.077 150.253C133.285 150.253 132.781 149.875 132.547 149.191L130.207 150.523C130.909 151.981 132.277 152.665 134.077 152.665C136.021 152.665 137.821 151.783 137.821 149.713C137.821 146.383 133.393 147.067 133.393 146.041Z" fill="black"/>
</svg>
