<svg width="190" height="170" viewBox="0 0 190 170" fill="none" xmlns="http://www.w3.org/2000/svg">
<path opacity="0.35" d="M180.866 60.1224L180.99 60.0513H131.664C130.655 60.0513 129.646 60.0939 128.665 60.1935C126.287 60.4353 123.812 60.9046 121.31 61.6299C117.854 62.6112 114.481 64.0334 111.273 65.8253C109.352 66.892 107.485 68.115 105.688 69.4519C105.992 68.6555 106.269 67.8164 106.518 66.9346C107.237 64.3605 107.237 62.1419 107.237 60.1935V7.51586L107.071 6.74788C106.227 2.85111 102.799 0.177404 98.9833 0.319622H60.5927C58.2979 0.390731 56.0168 1.52848 54.4823 3.37731C53.3349 4.77105 52.0769 7.16032 52.3948 10.8011V53.9359H9.5389C4.27177 53.9359 0 58.3446 0 63.7489V100.441C0 105.476 3.70496 109.629 8.46059 110.197L8.33617 110.269H57.6481C58.6573 110.269 59.6665 110.226 60.648 110.126C63.0258 109.885 65.5004 109.415 68.0027 108.69C71.445 107.709 74.832 106.286 78.0392 104.494C79.9608 103.428 81.8272 102.205 83.6243 100.868C83.3202 101.664 83.0437 102.503 82.7949 103.385C82.076 105.959 82.076 108.178 82.076 110.126V162.79L82.2419 163.558C83.0575 167.355 86.3201 170 90.0112 170C90.1218 170 90.2186 170 90.3292 170H128.72C131.015 169.929 133.296 168.791 134.83 166.942C135.978 165.549 137.236 163.159 136.918 159.519V116.384H179.76C185.027 116.384 189.299 111.975 189.299 106.571V69.8785C189.299 64.844 185.594 60.6912 180.838 60.1366L180.866 60.1224Z" fill="#32C9D0" fill-opacity="0.61"/>
<mask id="mask0_732_1085" style="mask-type:luminance" maskUnits="userSpaceOnUse" x="59" y="41" width="73" height="69">
<path d="M131.116 41.7932H59.0938V109.584H131.116V41.7932Z" fill="white"/>
</mask>
<g mask="url(#mask0_732_1085)">
<path d="M110.758 67.0854H113.93C114.73 67.0854 115.38 66.4485 115.38 65.6659V63.4957H117.597C118.398 63.4957 119.047 62.8587 119.047 62.0762V58.9778C119.047 58.1952 118.398 57.5583 117.597 57.5583H115.38V55.388C115.38 54.6055 114.73 53.9685 113.93 53.9685H110.758C109.957 53.9685 109.308 54.6055 109.308 55.388V57.5583H107.09C106.29 57.5583 105.641 58.1952 105.641 58.9778V62.0762C105.641 62.8587 106.29 63.4957 107.09 63.4957H109.308V65.6659C109.303 66.4485 109.957 67.0854 110.758 67.0854ZM107.745 61.4392V59.6284H109.962C110.762 59.6284 111.412 58.9914 111.412 58.2089V56.0386H113.267V58.2089C113.267 58.9914 113.916 59.6284 114.716 59.6284H116.934V61.4392H114.716C113.916 61.4392 113.267 62.0762 113.267 62.8587V65.0289H111.412V62.8587C111.412 62.0762 110.762 61.4392 109.962 61.4392H107.745Z" fill="black"/>
</g>
<mask id="mask1_732_1085" style="mask-type:luminance" maskUnits="userSpaceOnUse" x="59" y="41" width="73" height="69">
<path d="M131.116 41.7932H59.0938V109.584H131.116V41.7932Z" fill="white"/>
</mask>
<g mask="url(#mask1_732_1085)">
<path d="M129.94 50.893C128.641 48.4088 126.423 46.5707 123.707 45.7108C119.584 44.4096 115.135 45.6517 112.344 48.8092C109.566 45.6699 105.146 44.4233 101.032 45.6972C100.994 45.6744 100.957 45.6517 100.919 45.629C99.9823 45.1239 98.9373 45.7017 97.6145 46.4297C96.932 46.8073 96.1317 47.2487 95.3691 47.5125C95.5151 46.8392 95.6516 46.0748 95.7316 45.3514C95.9246 43.5952 95.7128 42.6216 95.0255 42.1029C94.7807 41.9164 94.0982 41.5387 93.1096 42.0574C91.8339 42.7262 90.7418 43.527 89.6827 44.305C87.635 45.8064 85.705 47.2214 82.6405 47.5353C78.6863 47.9357 77.4153 49.8375 77.0105 50.9385C76.9681 51.0477 76.9399 51.1614 76.9164 51.2752C72.4773 54.2689 69.7377 59.1463 69.7377 64.1146C69.7377 64.2374 69.7424 64.3557 69.7424 64.4786C68.815 64.5605 67.9395 64.9381 67.2287 65.5841C66.0848 66.6169 65.5623 68.1366 65.7976 69.7563C66.1648 72.3041 68.2031 74.4471 70.6415 75.0203C70.7168 76.6582 71.3523 78.1141 72.5244 79.3335C69.4223 79.2925 66.6355 78.8103 64.6161 77.9413C63.1097 77.2815 61.5657 77.4726 60.4925 78.4417C59.3062 79.5109 58.9437 81.3308 59.5698 83.0779C60.1724 84.7568 62.5496 88.6696 71.71 89.5295C71.6206 89.7752 71.5312 90.0208 71.4464 90.262C71.4464 90.2665 71.4417 90.2711 71.4417 90.2711C71.2252 90.8898 71.0369 91.4995 70.8674 92.1046C70.8392 92.2002 70.7733 92.2866 70.6744 92.3412C69.7 92.8917 68.7962 93.4968 67.9865 94.1338C67.5346 94.4932 67.4593 95.1393 67.8265 95.5852C68.0336 95.8354 68.3396 95.9674 68.6456 95.9674C68.8762 95.9674 69.1116 95.89 69.3093 95.7399C69.9966 95.1984 70.7639 94.6843 71.5924 94.2066C72.8963 95.3804 74.092 97.2322 74.8828 99.316C75.7584 101.636 76.0267 103.929 75.6548 105.868L66.6167 107.269C65.4163 107.455 64.216 106.982 63.4816 106.036L61.3257 103.252C61.1468 103.019 61.2033 102.783 61.2362 102.692C61.2692 102.601 61.3774 102.382 61.6646 102.31C62.3377 102.146 62.945 102.078 63.4628 102.114C64.3713 102.182 65.2186 101.6 65.4728 100.731C65.6329 100.185 65.9059 99.6026 66.2778 99.002C66.5838 98.5152 66.4237 97.8828 65.9294 97.5825C65.4305 97.2868 64.7808 97.4369 64.4796 97.9237C64.0324 98.6426 63.6934 99.3524 63.4816 100.044C62.7755 100.012 61.9941 100.099 61.1515 100.303C60.2618 100.522 59.551 101.154 59.2497 102C58.9437 102.847 59.0944 103.775 59.6451 104.489L61.8011 107.273C63.0062 108.829 64.9786 109.607 66.9509 109.298L76.0267 107.892C76.0832 107.883 76.1397 107.888 76.1914 107.901C76.1914 107.901 76.1914 107.901 76.1961 107.901C76.2009 107.901 76.2103 107.906 76.215 107.906C76.2338 107.91 76.2526 107.92 76.2668 107.929C78.6298 109.025 81.6708 109.585 85.3001 109.585H86.7971C90.4264 109.585 93.4674 109.03 95.8305 107.929C95.8493 107.92 95.8681 107.915 95.8869 107.906C95.8917 107.906 95.8964 107.906 95.9011 107.901C95.9576 107.888 96.014 107.883 96.0752 107.892L105.146 109.298C107.119 109.603 109.091 108.829 110.296 107.273L112.452 104.489C113.008 103.775 113.153 102.847 112.852 102C112.546 101.154 111.835 100.522 110.946 100.303C110.108 100.099 109.326 100.012 108.616 100.044C107.754 97.2731 105.071 94.4022 101.418 92.3367C101.324 92.2866 101.253 92.1956 101.225 92.1001C101.06 91.5041 100.867 90.8944 100.655 90.2711C100.655 90.2665 100.651 90.262 100.651 90.2529C100.566 90.0117 100.481 89.7661 100.387 89.5249C109.548 88.6696 111.925 84.7522 112.527 83.0734C113.153 81.3308 112.786 79.5109 111.605 78.4417C110.531 77.4726 108.987 77.2815 107.476 77.9322C105.448 78.8057 102.647 79.288 99.521 79.3244C100.703 78.1096 101.376 76.6537 101.451 75.0112C103.306 74.5744 104.93 73.2277 105.758 71.4897C106.14 71.7854 106.53 72.0903 106.93 72.3997C108.088 73.3005 109.284 74.2287 110.597 75.2615C111.101 75.6573 111.718 75.8575 112.334 75.8575C112.951 75.8575 113.568 75.6573 114.071 75.2615C115.432 74.1923 116.675 73.2277 117.875 72.2996C119.108 71.3441 120.276 70.4387 121.335 69.6016C121.787 69.2421 121.857 68.5961 121.49 68.1502C121.123 67.7089 120.459 67.6406 120.007 68.0001C118.958 68.8327 117.795 69.7335 116.566 70.6844C115.361 71.6171 114.114 72.5862 112.749 73.6599C112.509 73.8465 112.16 73.8465 111.92 73.6599C110.607 72.6226 109.406 71.6899 108.244 70.7891C107.575 70.2704 106.944 69.779 106.337 69.3013C106.422 67.8499 105.899 66.5123 104.864 65.575C104.153 64.9335 103.277 64.5559 102.35 64.4695C102.355 64.3466 102.355 64.2283 102.355 64.1055C102.355 60.3428 100.778 56.5893 98.0005 53.6593C99.987 51.6892 101.508 49.2369 101.733 47.6354C105.264 46.5707 109.067 47.8128 111.228 50.752C111.487 51.1023 111.901 51.3116 112.339 51.3116H112.344C112.782 51.3116 113.196 51.1023 113.45 50.752C115.634 47.7855 119.494 46.548 123.053 47.6672C125.232 48.3543 127.012 49.8329 128.057 51.8257C129.102 53.8185 129.29 56.0934 128.584 58.2227C127.826 60.5203 126.409 62.4585 123.698 64.9153C123.27 65.3021 123.246 65.9527 123.641 66.3713C123.849 66.5896 124.131 66.7034 124.418 66.7034C124.677 66.7034 124.931 66.6124 125.134 66.4304C128.095 63.7506 129.728 61.4848 130.594 58.8596C131.47 56.2026 131.239 53.3726 129.94 50.893ZM67.8924 69.4605C67.7559 68.5187 68.0383 67.6588 68.6644 67.0901C69.0316 66.758 69.4835 66.5669 69.9636 66.5259C70.2367 68.0092 70.7592 69.4423 71.5312 70.8027C71.6394 70.9938 71.6489 71.2167 71.55 71.4078C71.2817 71.9356 71.0699 72.4497 70.9192 72.9456C69.5258 72.5134 68.1466 71.2395 67.8924 69.4605ZM85.3048 107.524C82.2733 107.524 79.7266 107.114 77.726 106.304C78.6863 101.418 76.1867 95.4487 72.9245 92.5914C73.014 92.2684 73.1128 91.9363 73.2211 91.6087H98.8855C98.9938 91.9408 99.0879 92.2684 99.1821 92.596C95.9246 95.4578 93.4203 101.418 94.3806 106.309C92.3753 107.119 89.8333 107.528 86.8018 107.528H85.3048V107.524ZM106.624 100.731C106.879 101.595 107.721 102.178 108.63 102.114C109.148 102.078 109.755 102.141 110.428 102.31C110.715 102.378 110.823 102.601 110.856 102.692C110.889 102.783 110.946 103.019 110.767 103.252L108.611 106.036C107.877 106.982 106.676 107.455 105.471 107.269L96.4377 105.868C96.0658 103.929 96.3341 101.636 97.2097 99.316C97.9958 97.2322 99.1962 95.3804 100.5 94.2066C105.189 96.8955 106.37 99.8756 106.624 100.731ZM108.328 79.8203C109.067 79.5018 109.722 79.5519 110.174 79.9568C110.743 80.4709 110.885 81.4264 110.536 82.3955C110.164 83.4419 108.258 86.8997 99.4692 87.5321C98.9844 87.564 98.5419 87.8233 98.2783 88.2237C98.0241 88.615 97.9723 89.1063 98.1371 89.5386H73.9602C74.1249 89.1063 74.0731 88.6195 73.8189 88.2237C73.56 87.8233 73.1128 87.5594 72.6327 87.5276C63.8394 86.9043 61.9376 83.4419 61.561 82.4C61.2127 81.4309 61.3586 80.4709 61.9235 79.9613C62.3707 79.5564 63.0297 79.5064 63.7688 79.8249C66.6873 81.0806 70.778 81.6084 75.3065 81.3172C75.3441 81.3354 75.3818 81.3581 75.4194 81.3763C77.0105 82.1589 78.9452 82.723 81.1388 83.0552C81.5578 85.8032 83.742 87.9098 86.3546 87.9098C88.9624 87.9098 91.2078 85.7486 91.5844 82.946C93.5662 82.5911 95.2985 82.0406 96.7343 81.3172C101.291 81.6084 105.4 81.0851 108.328 79.8203ZM83.3513 83.3009C84.2222 83.3691 85.1213 83.401 86.0533 83.401C87.216 83.401 88.327 83.3509 89.3814 83.2463C88.9719 84.7522 87.7715 85.8487 86.3593 85.8487C84.9424 85.8487 83.775 84.7795 83.3513 83.3009ZM103.438 67.0901C104.064 67.6543 104.346 68.5187 104.21 69.4605C103.951 71.244 102.571 72.518 101.183 72.9456C101.032 72.4497 100.82 71.9356 100.552 71.4078C100.458 71.2213 100.462 70.9938 100.575 70.8027C101.347 69.4423 101.875 68.0092 102.143 66.5259C102.618 66.5669 103.07 66.758 103.438 67.0901ZM98.7302 69.7972C98.283 70.5843 98.2594 71.5307 98.6643 72.3223C99.022 73.0275 99.248 73.6872 99.3233 74.2605C99.3233 74.2696 99.3233 74.2787 99.328 74.2833C99.3468 74.4243 99.3563 74.5608 99.3563 74.6927C99.3563 76.6901 98.1371 78.3052 95.7269 79.4973C93.3403 80.6802 89.9039 81.3308 86.0486 81.3308C82.5463 81.3308 78.7146 80.7666 76.0643 79.3699C76.0596 79.3653 76.0502 79.3653 76.0455 79.3608C74.059 78.3143 72.7457 76.7947 72.7457 74.6973C72.7457 74.5653 72.7551 74.4289 72.7739 74.2878C72.7739 74.2833 72.7739 74.2742 72.7786 74.2651C72.8539 73.6918 73.0799 73.0275 73.4376 72.3269C73.8472 71.5307 73.8236 70.5843 73.3717 69.8018C72.3597 68.0228 71.8513 66.1074 71.8513 64.11C71.8513 60.0517 73.9837 56.057 77.4812 53.4227C78.9123 55.3381 80.8188 57.1899 82.7346 58.5229C84.0009 59.401 85.6673 60.3246 87.0842 60.3246C87.4514 60.3246 87.8044 60.2609 88.1292 60.1199C88.8589 59.7969 89.6168 59.0325 89.4473 57.2263C91.7068 57.5584 94.1264 56.7986 96.433 55.0378C98.8667 57.5948 100.251 60.8524 100.251 64.1055C100.251 66.1074 99.7423 68.0228 98.7302 69.7972ZM95.8634 52.8176C94.2205 54.2644 91.7068 55.8249 89.0566 55.0333C88.5623 54.8877 88.021 55.006 87.6444 55.3518C87.2725 55.693 87.1078 56.2071 87.2254 56.6939C87.5173 57.9315 87.2772 58.2363 87.2725 58.2363C87.103 58.35 86.0345 58.25 84.1139 56.9487C82.2969 55.7157 80.4092 53.8822 79.0676 52.0441C78.9782 51.9213 78.9546 51.7666 79.0017 51.6346C79.4113 50.5245 80.7811 49.7965 82.8664 49.5872C86.5099 49.2187 88.7694 47.558 90.9584 45.9565C91.8669 45.2877 92.7377 44.6508 93.698 44.1048C93.7169 44.7827 93.5756 46.0839 93.0861 48.054C92.9778 48.4953 93.0955 48.9639 93.3968 49.3051C93.7027 49.6509 94.1594 49.8284 94.6254 49.7829C96.0705 49.6464 97.5063 48.8593 98.6549 48.2223C98.9373 48.0676 99.2809 47.8765 99.5728 47.7309C99.2292 48.8274 97.9064 51.0204 95.8634 52.8176Z" fill="black"/>
</g>
<mask id="mask2_732_1085" style="mask-type:luminance" maskUnits="userSpaceOnUse" x="59" y="41" width="73" height="69">
<path d="M131.116 41.7932H59.0938V109.584H131.116V41.7932Z" fill="white"/>
</mask>
<g mask="url(#mask2_732_1085)">
<path d="M79.9666 67.4038C79.3828 67.4038 78.9121 67.8679 78.9121 68.4366V69.0417C78.9121 69.6104 79.3828 70.0745 79.9666 70.0745C80.5503 70.0745 81.021 69.6104 81.021 69.0417V68.4366C81.021 67.8633 80.5503 67.4038 79.9666 67.4038Z" fill="black"/>
</g>
<mask id="mask3_732_1085" style="mask-type:luminance" maskUnits="userSpaceOnUse" x="59" y="41" width="73" height="69">
<path d="M131.116 41.7932H59.0938V109.584H131.116V41.7932Z" fill="white"/>
</mask>
<g mask="url(#mask3_732_1085)">
<path d="M92.1345 67.4038C91.5508 67.4038 91.0801 67.8679 91.0801 68.4366V69.0417C91.0801 69.6104 91.5508 70.0745 92.1345 70.0745C92.7182 70.0745 93.189 69.6104 93.189 69.0417V68.4366C93.189 67.8633 92.7135 67.4038 92.1345 67.4038Z" fill="black"/>
</g>
<mask id="mask4_732_1085" style="mask-type:luminance" maskUnits="userSpaceOnUse" x="59" y="41" width="73" height="69">
<path d="M131.116 41.7932H59.0938V109.584H131.116V41.7932Z" fill="white"/>
</mask>
<g mask="url(#mask4_732_1085)">
<path d="M82.4149 65.8022C82.7162 65.3153 82.5562 64.6829 82.0572 64.3872C80.6921 63.5819 79.2422 63.5819 77.8771 64.3872C77.3781 64.6829 77.218 65.3153 77.5193 65.8022C77.8206 66.289 78.4702 66.4482 78.9692 66.1525C79.6612 65.743 80.2778 65.743 80.9698 66.1525C81.1393 66.2526 81.3276 66.3026 81.5158 66.3026C81.8689 66.2981 82.2172 66.1206 82.4149 65.8022Z" fill="black"/>
</g>
<mask id="mask5_732_1085" style="mask-type:luminance" maskUnits="userSpaceOnUse" x="59" y="41" width="73" height="69">
<path d="M131.116 41.7932H59.0938V109.584H131.116V41.7932Z" fill="white"/>
</mask>
<g mask="url(#mask5_732_1085)">
<path d="M94.2213 64.3872C92.8561 63.5819 91.411 63.5819 90.0411 64.3872C89.5422 64.6829 89.3821 65.3153 89.6834 65.8022C89.9846 66.289 90.6343 66.4437 91.1332 66.1525C91.8252 65.743 92.4419 65.743 93.1339 66.1525C93.3033 66.2526 93.4916 66.3026 93.6799 66.3026C94.0377 66.3026 94.386 66.1252 94.5837 65.8067C94.885 65.3153 94.7202 64.6784 94.2213 64.3872Z" fill="black"/>
</g>
<mask id="mask6_732_1085" style="mask-type:luminance" maskUnits="userSpaceOnUse" x="59" y="41" width="73" height="69">
<path d="M131.116 41.7932H59.0938V109.584H131.116V41.7932Z" fill="white"/>
</mask>
<g mask="url(#mask6_732_1085)">
<path d="M88.8052 71.603H83.2929C82.4645 71.603 81.7584 72.1854 81.6124 72.9862C81.5654 73.2637 81.5371 73.5458 81.5371 73.8279C81.5371 76.3894 83.5613 78.4731 86.0467 78.4731C88.5322 78.4731 90.5564 76.3894 90.5564 73.8279C90.5564 73.5458 90.5328 73.2637 90.4811 72.9862C90.3398 72.1854 89.6337 71.603 88.8052 71.603ZM86.0467 76.4167C84.724 76.4167 83.646 75.2565 83.646 73.8324C83.646 73.7778 83.646 73.7232 83.6507 73.6686H88.4428C88.4475 73.7232 88.4475 73.7778 88.4475 73.8324C88.4475 75.2565 87.3695 76.4167 86.0467 76.4167Z" fill="black"/>
</g>
<path d="M52.0979 133.395C54.4019 133.395 56.4179 132.261 57.4979 130.479L55.0139 129.039C54.4739 130.011 53.3759 130.587 52.0979 130.587C49.8659 130.587 48.4259 129.093 48.4259 126.843C48.4259 124.593 49.8659 123.099 52.0979 123.099C53.3759 123.099 54.4559 123.675 55.0139 124.647L57.4979 123.207C56.3999 121.425 54.3839 120.291 52.0979 120.291C48.2999 120.291 45.5459 123.135 45.5459 126.843C45.5459 130.551 48.2999 133.395 52.0979 133.395ZM65.3795 124.143V124.989C64.7855 124.305 63.9035 123.891 62.6975 123.891C60.3395 123.891 58.3955 125.961 58.3955 128.643C58.3955 131.325 60.3395 133.395 62.6975 133.395C63.9035 133.395 64.7855 132.981 65.3795 132.297V133.143H68.0795V124.143H65.3795ZM63.2375 130.839C61.9955 130.839 61.0955 129.993 61.0955 128.643C61.0955 127.293 61.9955 126.447 63.2375 126.447C64.4795 126.447 65.3795 127.293 65.3795 128.643C65.3795 129.993 64.4795 130.839 63.2375 130.839ZM72.7603 125.745V124.143H70.0603V133.143H72.7603V129.075C72.7603 127.293 74.3443 126.843 75.4603 127.023V123.963C74.3263 123.963 73.1203 124.539 72.7603 125.745ZM82.9927 120.543V124.989C82.3987 124.305 81.5167 123.891 80.3107 123.891C77.9527 123.891 76.0087 125.961 76.0087 128.643C76.0087 131.325 77.9527 133.395 80.3107 133.395C81.5167 133.395 82.3987 132.981 82.9927 132.297V133.143H85.6927V120.543H82.9927ZM80.8507 130.839C79.6087 130.839 78.7087 129.993 78.7087 128.643C78.7087 127.293 79.6087 126.447 80.8507 126.447C82.0927 126.447 82.9927 127.293 82.9927 128.643C82.9927 129.993 82.0927 130.839 80.8507 130.839ZM89.0236 123.351C89.9056 123.351 90.6436 122.613 90.6436 121.731C90.6436 120.849 89.9056 120.111 89.0236 120.111C88.1416 120.111 87.4036 120.849 87.4036 121.731C87.4036 122.613 88.1416 123.351 89.0236 123.351ZM87.6736 133.143H90.3736V124.143H87.6736V133.143ZM96.6694 133.395C99.3154 133.395 101.439 131.325 101.439 128.643C101.439 125.961 99.3154 123.891 96.6694 123.891C94.0234 123.891 91.8994 125.961 91.8994 128.643C91.8994 131.325 94.0234 133.395 96.6694 133.395ZM96.6694 130.767C95.4994 130.767 94.5994 129.921 94.5994 128.643C94.5994 127.365 95.4994 126.519 96.6694 126.519C97.8394 126.519 98.7394 127.365 98.7394 128.643C98.7394 129.921 97.8394 130.767 96.6694 130.767ZM102.967 133.143H105.667V120.003H102.967V133.143ZM111.962 133.395C114.608 133.395 116.732 131.325 116.732 128.643C116.732 125.961 114.608 123.891 111.962 123.891C109.316 123.891 107.192 125.961 107.192 128.643C107.192 131.325 109.316 133.395 111.962 133.395ZM111.962 130.767C110.792 130.767 109.892 129.921 109.892 128.643C109.892 127.365 110.792 126.519 111.962 126.519C113.132 126.519 114.032 127.365 114.032 128.643C114.032 129.921 113.132 130.767 111.962 130.767ZM124.866 124.143V125.061C124.272 124.323 123.408 123.891 122.238 123.891C119.682 123.891 117.81 125.979 117.81 128.463C117.81 130.947 119.682 133.035 122.238 133.035C123.408 133.035 124.272 132.603 124.866 131.865V132.693C124.866 133.971 124.092 134.619 122.832 134.619C121.644 134.619 121.122 134.115 120.78 133.485L118.476 134.817C119.304 136.293 120.87 136.995 122.742 136.995C125.136 136.995 127.494 135.717 127.494 132.693V124.143H124.866ZM122.688 130.551C121.41 130.551 120.51 129.705 120.51 128.463C120.51 127.221 121.41 126.375 122.688 126.375C123.966 126.375 124.866 127.221 124.866 128.463C124.866 129.705 123.966 130.551 122.688 130.551ZM129.474 123.243L130.194 120.543H133.254L132.066 123.243H129.474ZM129.474 133.143H132.174V124.143H129.474V133.143ZM140.684 124.143V124.989C140.09 124.305 139.208 123.891 138.002 123.891C135.644 123.891 133.7 125.961 133.7 128.643C133.7 131.325 135.644 133.395 138.002 133.395C139.208 133.395 140.09 132.981 140.684 132.297V133.143H143.384V124.143H140.684ZM138.542 130.839C137.3 130.839 136.4 129.993 136.4 128.643C136.4 127.293 137.3 126.447 138.542 126.447C139.784 126.447 140.684 127.293 140.684 128.643C140.684 129.993 139.784 130.839 138.542 130.839ZM57.3598 140.543H52.5898V153.143H55.4698V149.183H57.3598C59.8438 149.183 61.7698 147.257 61.7698 144.863C61.7698 142.469 59.8438 140.543 57.3598 140.543ZM57.3598 146.483H55.4698V143.243H57.3598C58.2418 143.243 58.8898 143.945 58.8898 144.863C58.8898 145.781 58.2418 146.483 57.3598 146.483ZM64.984 149.723H71.374C71.446 149.381 71.482 149.021 71.482 148.643C71.482 145.925 69.538 143.891 66.91 143.891C64.066 143.891 62.122 145.961 62.122 148.643C62.122 151.325 64.03 153.395 67.108 153.395C68.818 153.395 70.15 152.765 71.032 151.541L68.872 150.299C68.512 150.695 67.882 150.983 67.144 150.983C66.154 150.983 65.326 150.659 64.984 149.723ZM64.93 147.707C65.182 146.789 65.866 146.285 66.892 146.285C67.702 146.285 68.512 146.663 68.8 147.707H64.93ZM79.4595 140.543V144.989C78.8655 144.305 77.9835 143.891 76.7775 143.891C74.4195 143.891 72.4755 145.961 72.4755 148.643C72.4755 151.325 74.4195 153.395 76.7775 153.395C77.9835 153.395 78.8655 152.981 79.4595 152.297V153.143H82.1595V140.543H79.4595ZM77.3175 150.839C76.0755 150.839 75.1755 149.993 75.1755 148.643C75.1755 147.293 76.0755 146.447 77.3175 146.447C78.5595 146.447 79.4595 147.293 79.4595 148.643C79.4595 149.993 78.5595 150.839 77.3175 150.839ZM85.4904 143.351C86.3724 143.351 87.1104 142.613 87.1104 141.731C87.1104 140.849 86.3724 140.111 85.4904 140.111C84.6084 140.111 83.8704 140.849 83.8704 141.731C83.8704 142.613 84.6084 143.351 85.4904 143.351ZM84.1404 153.143H86.8404V144.143H84.1404V153.143ZM96.4662 140.543H93.2262L91.7862 143.063H94.3782L96.4662 140.543ZM95.3502 144.143V144.989C94.7562 144.305 93.8742 143.891 92.6682 143.891C90.3102 143.891 88.3662 145.961 88.3662 148.643C88.3662 151.325 90.3102 153.395 92.6682 153.395C93.8742 153.395 94.7562 152.981 95.3502 152.297V153.143H98.0502V144.143H95.3502ZM93.2082 150.839C91.9662 150.839 91.0662 149.993 91.0662 148.643C91.0662 147.293 91.9662 146.447 93.2082 146.447C94.4502 146.447 95.3502 147.293 95.3502 148.643C95.3502 149.993 94.4502 150.839 93.2082 150.839ZM105.305 146.735V144.143H103.451V141.623L100.751 142.433V144.143H99.311V146.735H100.751V149.921C100.751 152.441 101.777 153.503 105.305 153.143V150.695C104.117 150.767 103.451 150.695 103.451 149.921V146.735H105.305ZM109.71 145.745V144.143H107.01V153.143H109.71V149.075C109.71 147.293 111.294 146.843 112.41 147.023V143.963C111.276 143.963 110.07 144.539 109.71 145.745ZM115.022 143.351C115.904 143.351 116.642 142.613 116.642 141.731C116.642 140.849 115.904 140.111 115.022 140.111C114.14 140.111 113.402 140.849 113.402 141.731C113.402 142.613 114.14 143.351 115.022 143.351ZM113.672 153.143H116.372V144.143H113.672V153.143ZM122.667 153.395C124.431 153.395 125.961 152.477 126.735 151.073L124.377 149.723C124.089 150.353 123.423 150.731 122.631 150.731C121.461 150.731 120.597 149.885 120.597 148.643C120.597 147.401 121.461 146.555 122.631 146.555C123.423 146.555 124.071 146.933 124.377 147.563L126.735 146.195C125.961 144.809 124.413 143.891 122.667 143.891C119.931 143.891 117.897 145.961 117.897 148.643C117.897 151.325 119.931 153.395 122.667 153.395ZM134.18 144.143V144.989C133.586 144.305 132.704 143.891 131.498 143.891C129.14 143.891 127.196 145.961 127.196 148.643C127.196 151.325 129.14 153.395 131.498 153.395C132.704 153.395 133.586 152.981 134.18 152.297V153.143H136.88V144.143H134.18ZM132.038 150.839C130.796 150.839 129.896 149.993 129.896 148.643C129.896 147.293 130.796 146.447 132.038 146.447C133.28 146.447 134.18 147.293 134.18 148.643C134.18 149.993 133.28 150.839 132.038 150.839Z" fill="black"/>
</svg>
