<svg width="190" height="171" viewBox="0 0 190 171" fill="none" xmlns="http://www.w3.org/2000/svg">
<path d="M70.7368 113.732H67.8568L64.4368 119.33L61.0168 113.732H58.1368V126.332H61.0168V119.006L64.2748 124.352H64.5988L67.8568 119.006V126.332H70.7368V113.732ZM75.2245 122.912H81.6145C81.6865 122.57 81.7225 122.21 81.7225 121.832C81.7225 119.114 79.7785 117.08 77.1505 117.08C74.3065 117.08 72.3625 119.15 72.3625 121.832C72.3625 124.514 74.2705 126.584 77.3485 126.584C79.0585 126.584 80.3905 125.954 81.2725 124.73L79.1125 123.488C78.7525 123.884 78.1225 124.172 77.3845 124.172C76.3945 124.172 75.5665 123.848 75.2245 122.912ZM75.1705 120.896C75.4225 119.978 76.1065 119.474 77.1325 119.474C77.9425 119.474 78.7525 119.852 79.0405 120.896H75.1705ZM89.7 113.732V118.178C89.106 117.494 88.224 117.08 87.018 117.08C84.66 117.08 82.716 119.15 82.716 121.832C82.716 124.514 84.66 126.584 87.018 126.584C88.224 126.584 89.106 126.17 89.7 125.486V126.332H92.4V113.732H89.7ZM87.558 124.028C86.316 124.028 85.416 123.182 85.416 121.832C85.416 120.482 86.316 119.636 87.558 119.636C88.8 119.636 89.7 120.482 89.7 121.832C89.7 123.182 88.8 124.028 87.558 124.028ZM95.7308 116.54C96.6128 116.54 97.3508 115.802 97.3508 114.92C97.3508 114.038 96.6128 113.3 95.7308 113.3C94.8488 113.3 94.1108 114.038 94.1108 114.92C94.1108 115.802 94.8488 116.54 95.7308 116.54ZM94.3808 126.332H97.0808V117.332H94.3808V126.332ZM103.377 126.584C105.141 126.584 106.671 125.666 107.445 124.262L105.087 122.912C104.799 123.542 104.133 123.92 103.341 123.92C102.171 123.92 101.307 123.074 101.307 121.832C101.307 120.59 102.171 119.744 103.341 119.744C104.133 119.744 104.781 120.122 105.087 120.752L107.445 119.384C106.671 117.998 105.123 117.08 103.377 117.08C100.641 117.08 98.6066 119.15 98.6066 121.832C98.6066 124.514 100.641 126.584 103.377 126.584ZM109.881 116.54C110.763 116.54 111.501 115.802 111.501 114.92C111.501 114.038 110.763 113.3 109.881 113.3C108.999 113.3 108.261 114.038 108.261 114.92C108.261 115.802 108.999 116.54 109.881 116.54ZM108.531 126.332H111.231V117.332H108.531V126.332ZM118.481 117.08C117.293 117.08 116.393 117.512 115.907 118.178V117.332H113.207V126.332H115.907V121.418C115.907 120.14 116.591 119.564 117.581 119.564C118.445 119.564 119.147 120.086 119.147 121.202V126.332H121.847V120.806C121.847 118.376 120.299 117.08 118.481 117.08ZM130.235 117.332V118.178C129.641 117.494 128.759 117.08 127.553 117.08C125.195 117.08 123.251 119.15 123.251 121.832C123.251 124.514 125.195 126.584 127.553 126.584C128.759 126.584 129.641 126.17 130.235 125.486V126.332H132.935V117.332H130.235ZM128.093 124.028C126.851 124.028 125.951 123.182 125.951 121.832C125.951 120.482 126.851 119.636 128.093 119.636C129.335 119.636 130.235 120.482 130.235 121.832C130.235 123.182 129.335 124.028 128.093 124.028ZM66.0822 133.732V146.332H68.9622V133.732H66.0822ZM76.3111 137.08C75.1231 137.08 74.2231 137.512 73.7371 138.178V137.332H71.0371V146.332H73.7371V141.418C73.7371 140.14 74.4211 139.564 75.4111 139.564C76.2751 139.564 76.9771 140.086 76.9771 141.202V146.332H79.6771V140.806C79.6771 138.376 78.1291 137.08 76.3111 137.08ZM86.8052 139.924V137.332H84.9512V134.812L82.2512 135.622V137.332H80.8112V139.924H82.2512V143.11C82.2512 145.63 83.2772 146.692 86.8052 146.332V143.884C85.6172 143.956 84.9512 143.884 84.9512 143.11V139.924H86.8052ZM90.5702 142.912H96.9602C97.0322 142.57 97.0682 142.21 97.0682 141.832C97.0682 139.114 95.1242 137.08 92.4962 137.08C89.6522 137.08 87.7082 139.15 87.7082 141.832C87.7082 144.514 89.6162 146.584 92.6942 146.584C94.4042 146.584 95.7362 145.954 96.6182 144.73L94.4582 143.488C94.0982 143.884 93.4682 144.172 92.7302 144.172C91.7402 144.172 90.9122 143.848 90.5702 142.912ZM90.5162 140.896C90.7682 139.978 91.4522 139.474 92.4782 139.474C93.2882 139.474 94.0982 139.852 94.3862 140.896H90.5162ZM101.3 138.934V137.332H98.5996V146.332H101.3V142.264C101.3 140.482 102.884 140.032 104 140.212V137.152C102.866 137.152 101.66 137.728 101.3 138.934ZM110.536 137.08C109.348 137.08 108.448 137.512 107.962 138.178V137.332H105.262V146.332H107.962V141.418C107.962 140.14 108.646 139.564 109.636 139.564C110.5 139.564 111.202 140.086 111.202 141.202V146.332H113.902V140.806C113.902 138.376 112.354 137.08 110.536 137.08ZM122.29 137.332V138.178C121.696 137.494 120.814 137.08 119.608 137.08C117.25 137.08 115.306 139.15 115.306 141.832C115.306 144.514 117.25 146.584 119.608 146.584C120.814 146.584 121.696 146.17 122.29 145.486V146.332H124.99V137.332H122.29ZM120.148 144.028C118.906 144.028 118.006 143.182 118.006 141.832C118.006 140.482 118.906 139.636 120.148 139.636C121.39 139.636 122.29 140.482 122.29 141.832C122.29 143.182 121.39 144.028 120.148 144.028Z" fill="black"/>
<path opacity="0.35" d="M181.251 60.3379L181.375 60.2668H132.049C131.04 60.2668 130.031 60.3095 129.049 60.4091C126.671 60.6508 124.197 61.1201 121.695 61.8455C118.239 62.8268 114.865 64.249 111.658 66.0409C109.736 67.1075 107.87 68.3306 106.073 69.6675C106.377 68.871 106.654 68.032 106.902 67.1502C107.621 64.576 107.621 62.3574 107.621 60.4091V7.73144L107.455 6.96346C106.612 3.06668 103.184 0.39298 99.3681 0.535198H60.9775C58.6826 0.606307 56.4016 1.74405 54.8671 3.59289C53.7196 4.98663 52.4616 7.37589 52.7796 11.0167V54.1515H9.92366C4.65653 54.1515 0.384766 58.5602 0.384766 63.9645V100.657C0.384766 105.691 4.08973 109.844 8.84535 110.413L8.72093 110.484H58.0329C59.0421 110.484 60.0513 110.441 61.0328 110.342C63.4106 110.1 65.8852 109.631 68.3874 108.905C71.8297 107.924 75.2167 106.502 78.424 104.71C80.3456 103.643 82.2119 102.42 84.0091 101.083C83.705 101.88 83.4285 102.719 83.1796 103.601C82.4608 106.175 82.4608 108.393 82.4608 110.342V163.005L82.6267 163.773C83.4423 167.57 86.7049 170.216 90.396 170.216C90.5066 170.216 90.6034 170.216 90.714 170.216H129.105C131.399 170.145 133.68 169.007 135.215 167.158C136.362 165.764 137.62 163.375 137.303 159.734V116.599H180.145C185.412 116.599 189.683 112.191 189.683 106.786V70.0941C189.683 65.0596 185.979 60.9068 181.223 60.3522L181.251 60.3379Z" fill="#BC50E6" fill-opacity="0.68"/>
<g clip-path="url(#clip0_840_979)">
<path d="M124.479 84.5241C124.444 84.4585 124.399 84.3983 124.348 84.3436C124.293 84.2834 124.233 84.2342 124.168 84.1904C122.52 82.4562 120.441 81.2801 118.185 80.8096C119.582 79.059 120.3 76.7832 120.179 74.4636C120.059 72.1441 119.12 69.9722 117.552 68.3967C115.985 66.8211 113.916 65.9787 111.786 66.0443C109.656 66.1045 107.632 67.0728 106.145 68.7304L102.448 72.8771V70.4372C102.443 67.04 101.404 63.7357 99.4948 61.0496L93.1106 52.1106V48.5H93.7887C93.9143 48.5 94.0399 48.4726 94.1554 48.4234C94.2709 48.3687 94.3764 48.2976 94.4668 48.1991C94.5573 48.1006 94.6276 47.9857 94.6728 47.8599C94.723 47.7341 94.7481 47.5973 94.7481 47.4605V37.3453C94.7481 37.2086 94.723 37.0718 94.6728 36.946C94.6226 36.8201 94.5522 36.7053 94.4668 36.6068C94.3764 36.5083 94.2709 36.4317 94.1554 36.3825C94.0349 36.3333 93.9143 36.3059 93.7887 36.3059H71.8334C71.7078 36.3059 71.5823 36.3333 71.4667 36.3825C71.3512 36.4372 71.2457 36.5138 71.1553 36.6068C71.0649 36.7053 70.9946 36.8201 70.9494 36.946C70.8991 37.0718 70.879 37.2086 70.879 37.3453V47.4605C70.879 47.5973 70.9042 47.7341 70.9494 47.8599C70.9996 47.9857 71.0699 48.1006 71.1553 48.1991C71.2457 48.2976 71.3512 48.3741 71.4667 48.4234C71.5823 48.4781 71.7078 48.5 71.8334 48.5H72.5115V52.1106L66.1323 61.0606C64.2186 63.7466 63.1789 67.0509 63.1738 70.4482V101.702C63.1738 102.922 63.6209 104.093 64.4145 104.957C65.2081 105.821 66.283 106.303 67.4032 106.308H98.224C99.3441 106.308 100.419 105.821 101.213 104.957C102.006 104.093 102.448 102.922 102.453 101.702V98.053C103.071 97.6537 103.639 97.1668 104.146 96.6033L104.483 96.2258C104.874 98.1679 105.673 99.9842 106.818 101.532C107.964 103.081 109.42 104.322 111.083 105.148C112.74 105.98 114.554 106.379 116.382 106.319C118.205 106.259 119.994 105.734 121.601 104.793C123.208 103.852 124.595 102.517 125.649 100.892C126.704 99.2675 127.397 97.402 127.679 95.4381C127.96 93.4741 127.814 91.4664 127.262 89.5681C126.699 87.6807 125.75 85.952 124.479 84.5241ZM107.516 70.1911C108.089 69.5455 108.777 69.0258 109.536 68.6648C110.294 68.3037 111.113 68.1122 111.937 68.0958C112.765 68.0794 113.584 68.2435 114.353 68.5772C115.121 68.9109 115.824 69.4033 116.417 70.0324C117.01 70.6615 117.482 71.411 117.814 72.2371C118.14 73.0632 118.316 73.9549 118.326 74.8575C118.336 75.7602 118.185 76.6519 117.874 77.4889C117.567 78.3259 117.11 79.0863 116.533 79.7319L115.528 80.8588C115.508 80.8807 115.488 80.9026 115.468 80.9245L110.314 86.696L101.303 77.1607L107.516 70.1911ZM99.2738 76.444L99.2638 76.4549L99.2587 76.4659L92.3873 84.174C91.3124 85.3776 90.569 86.8875 90.2476 88.5287C89.9261 90.1698 90.0416 91.8822 90.5741 93.4577H65.0826V71.887H100.54V75.0271L99.2738 76.444ZM72.7878 38.3848H92.8344V46.4211H92.1663H92.1563H92.1462H90.353V42.4057C90.353 42.1321 90.2526 41.8641 90.0718 41.6726C89.8909 41.4757 89.6498 41.3663 89.3987 41.3663C89.1475 41.3663 88.9014 41.4757 88.7256 41.6726C88.5448 41.8696 88.4443 42.1321 88.4443 42.4057V46.4211H85.963V42.4057C85.963 42.1321 85.8625 41.8641 85.6817 41.6726C85.5009 41.4757 85.2598 41.3663 85.0086 41.3663C84.7575 41.3663 84.5113 41.4757 84.3355 41.6726C84.1547 41.8696 84.0543 42.1321 84.0543 42.4057V46.4211H81.5729V42.4057C81.5729 42.1321 81.4725 41.8641 81.2916 41.6726C81.1108 41.4757 80.8697 41.3663 80.6186 41.3663C80.3674 41.3663 80.1213 41.4757 79.9455 41.6726C79.7647 41.8696 79.6642 42.1321 79.6642 42.4057V46.4211H77.1829V42.4057C77.1829 42.1321 77.0824 41.8641 76.9016 41.6726C76.7207 41.4757 76.4796 41.3663 76.2285 41.3663C75.9773 41.3663 75.7312 41.4757 75.5554 41.6726C75.3746 41.8696 75.2741 42.1321 75.2741 42.4057V46.4211H73.4809H73.4709H73.4608H72.7928V38.3848H72.7878ZM91.2019 51.4268H74.4252V48.5H91.2019V51.4268ZM67.6342 62.3352L73.933 53.5056H91.6841L97.9829 62.3352C99.5099 64.4852 100.389 67.0947 100.514 69.8081H65.1077C65.2332 67.0947 66.1123 64.4852 67.6342 62.3352ZM100.54 101.702C100.54 102.369 100.293 103.015 99.8615 103.485C99.4245 103.961 98.8368 104.224 98.224 104.224H67.4032C66.7904 104.224 66.1976 103.956 65.7657 103.485C65.3287 103.015 65.0876 102.369 65.0876 101.702V95.5365H91.5786C91.87 95.9851 92.1965 96.4064 92.5581 96.7893C94.0851 98.4086 96.1294 99.3168 98.2642 99.3113H98.3898C99.1181 99.2949 99.8464 99.18 100.545 98.9557L100.54 101.702ZM102.77 95.1591C102.197 95.8046 101.509 96.3243 100.751 96.6854C99.9921 97.0464 99.1734 97.2379 98.3496 97.2489C97.5208 97.2653 96.7021 97.1011 95.9335 96.7674C95.165 96.4337 94.4618 95.9414 93.8691 95.3123C93.2764 94.6831 92.8042 93.9391 92.4778 93.1076C92.1513 92.2815 91.9755 91.3898 91.9654 90.4926C91.9554 89.5954 92.1061 88.6982 92.4125 87.8612C92.7189 87.0242 93.1759 86.2638 93.7536 85.6183L99.972 78.6487L108.983 88.184L102.77 95.1591ZM111.017 88.8897L116.548 82.6915C118.647 82.8173 120.662 83.6707 122.279 85.1314L108.355 100.296C107.079 98.6056 106.306 96.5322 106.145 94.3494L111.017 88.8897ZM116 104.229C113.705 104.235 111.475 103.365 109.701 101.773L123.63 86.603C124.826 88.1785 125.589 90.0933 125.825 92.1174C126.061 94.147 125.76 96.204 124.961 98.053C124.163 99.9021 122.892 101.467 121.305 102.561C119.717 103.655 117.879 104.235 116 104.229Z" fill="black"/>
<path d="M70.7391 62.1001C70.8395 62.1821 70.95 62.2478 71.0706 62.2806C71.1911 62.3189 71.3167 62.3243 71.4423 62.3079C71.5679 62.2915 71.6884 62.2478 71.7939 62.1766C71.9044 62.111 71.9998 62.018 72.0752 61.9086L75.0086 57.8001C75.089 57.6907 75.1492 57.5704 75.1844 57.4336C75.2196 57.3023 75.2296 57.1601 75.2145 57.0233C75.1995 56.8865 75.1593 56.7552 75.099 56.6349C75.0387 56.5145 74.9533 56.4106 74.8529 56.3231C74.7524 56.241 74.6369 56.1753 74.5163 56.1425C74.3958 56.1042 74.2652 56.0988 74.1396 56.1152C74.014 56.1316 73.8935 56.1808 73.783 56.2519C73.6725 56.3231 73.577 56.4161 73.5017 56.5255L70.5683 60.6394C70.493 60.7488 70.4327 60.8692 70.4025 61.0005C70.3674 61.1317 70.3573 61.2685 70.3774 61.4053C70.3925 61.542 70.4327 61.6733 70.493 61.7882C70.5583 61.9141 70.6386 62.018 70.7391 62.1001Z" fill="black"/>
<path d="M88.4545 78.9604H86.2192V76.526C86.2192 76.3892 86.1941 76.2525 86.1489 76.1266C86.0987 76.0008 86.0284 75.8859 85.943 75.7875C85.8526 75.689 85.7471 75.6124 85.6316 75.5632C85.516 75.5085 85.3905 75.4866 85.2649 75.4866H80.3575C80.2319 75.4866 80.1063 75.5139 79.9908 75.5632C79.8753 75.6179 79.7698 75.6945 79.6794 75.7875C79.5889 75.8859 79.5186 76.0008 79.4734 76.1266C79.4232 76.2525 79.4031 76.3892 79.4031 76.526V78.9604H77.1679C77.0423 78.9604 76.9167 78.9878 76.8012 79.037C76.6857 79.0917 76.5802 79.1683 76.4898 79.2613C76.3994 79.3598 76.3291 79.4747 76.2838 79.6005C76.2336 79.7263 76.2085 79.8631 76.2135 79.9999V85.3447C76.2135 85.4814 76.2386 85.6182 76.2838 85.744C76.3291 85.8699 76.3994 85.9847 76.4898 86.0832C76.5802 86.1817 76.6857 86.2583 76.8012 86.3075C76.9167 86.3622 77.0423 86.3841 77.1679 86.3841H79.4031V88.8185C79.4031 89.0921 79.5036 89.3601 79.6844 89.5516C79.8652 89.7485 80.1063 89.8579 80.3575 89.8579H85.2649C85.516 89.8579 85.7622 89.7485 85.938 89.5516C86.1188 89.3546 86.2192 89.0921 86.2192 88.8185V86.3841H88.4545C88.58 86.3841 88.7056 86.3567 88.8211 86.3075C88.9367 86.2528 89.0422 86.1762 89.1326 86.0832C89.223 85.9847 89.2933 85.8699 89.3385 85.744C89.3887 85.6182 89.4088 85.4814 89.4088 85.3447V79.9999C89.4088 79.8631 89.3837 79.7263 89.3385 79.6005C89.2883 79.4747 89.218 79.3598 89.1326 79.2613C89.0422 79.1628 88.9367 79.0863 88.8211 79.037C88.7006 78.9878 88.58 78.9604 88.4545 78.9604ZM87.5001 84.3052H85.2649C85.1393 84.3052 85.0137 84.3326 84.8982 84.3873C84.7827 84.442 84.6772 84.5186 84.5868 84.6116C84.4964 84.7101 84.4261 84.825 84.3808 84.9508C84.3306 85.0766 84.3055 85.2134 84.3055 85.3501V87.7846H81.3068V85.3501C81.3068 85.2134 81.2817 85.0766 81.2315 84.9508C81.1812 84.825 81.1109 84.7101 81.0255 84.6116C80.9351 84.5131 80.8296 84.4365 80.7141 84.3873C80.5986 84.3326 80.473 84.3052 80.3474 84.3052H78.1122V81.0393H80.3474C80.473 81.0393 80.5986 81.0119 80.7141 80.9627C80.8296 80.908 80.9351 80.8314 81.0255 80.7384C81.1159 80.6399 81.1862 80.525 81.2315 80.3992C81.2817 80.2734 81.3068 80.1366 81.3068 79.9999V77.5654H84.3055V79.9999C84.3055 80.1366 84.3306 80.2734 84.3808 80.3992C84.4311 80.525 84.5014 80.6399 84.5868 80.7384C84.6772 80.8369 84.7827 80.9134 84.8982 80.9627C85.0137 81.0174 85.1393 81.0393 85.2649 81.0393H87.5001V84.3052Z" fill="black"/>
</g>
<defs>
<clipPath id="clip0_840_979">
<rect width="64.6354" height="70.0242" fill="white" transform="translate(63.1738 36.3059)"/>
</clipPath>
</defs>
</svg>
